{"glyphs":{"0":{"ha":1389,"x_min":0,"x_max":1215,"o":"m 347 174 l 347 347 l 174 347 l 174 521 l 0 521 l 0 1042 l 174 1042 l 174 1215 l 347 1215 l 347 1389 l 868 1389 l 868 1215 l 1042 1215 l 1042 1042 l 1215 1042 l 1215 521 l 1042 521 l 1042 347 l 868 347 l 868 174 l 347 174 m 521 347 l 868 347 l 868 1042 l 694 1042 l 694 1215 l 347 1215 l 347 521 l 521 521 l 521 347 z "},"1":{"ha":1389,"x_min":174,"x_max":1215,"o":"m 174 174 l 174 347 l 521 347 l 521 1042 l 347 1042 l 347 1215 l 521 1215 l 521 1389 l 868 1389 l 868 347 l 1215 347 l 1215 174 l 174 174 z "},"2":{"ha":1389,"x_min":0,"x_max":1215,"o":"m 0 174 l 0 521 l 174 521 l 174 694 l 347 694 l 347 868 l 694 868 l 694 1042 l 868 1042 l 868 1215 l 347 1215 l 347 1042 l 0 1042 l 0 1215 l 174 1215 l 174 1389 l 1042 1389 l 1042 1215 l 1215 1215 l 1215 868 l 1042 868 l 1042 694 l 868 694 l 868 521 l 521 521 l 521 347 l 1215 347 l 1215 174 l 0 174 z "},"3":{"ha":1389,"x_min":0,"x_max":1215,"o":"m 174 174 l 174 347 l 0 347 l 0 521 l 347 521 l 347 347 l 868 347 l 868 694 l 347 694 l 347 868 l 521 868 l 521 1042 l 694 1042 l 694 1215 l 174 1215 l 174 1389 l 1215 1389 l 1215 1215 l 1042 1215 l 1042 1042 l 868 1042 l 868 868 l 1042 868 l 1042 694 l 1215 694 l 1215 347 l 1042 347 l 1042 174 l 174 174 z "},"4":{"ha":1389,"x_min":0,"x_max":1215,"o":"m 694 174 l 694 521 l 0 521 l 0 868 l 174 868 l 174 1042 l 347 1042 l 347 1215 l 521 1215 l 521 1389 l 1042 1389 l 1042 694 l 1215 694 l 1215 521 l 1042 521 l 1042 174 l 694 174 m 347 694 l 694 694 l 694 1042 l 521 1042 l 521 868 l 347 868 l 347 694 z "},"5":{"ha":1389,"x_min":0,"x_max":1215,"o":"m 174 174 l 174 347 l 0 347 l 0 521 l 347 521 l 347 347 l 868 347 l 868 868 l 0 868 l 0 1389 l 1042 1389 l 1042 1215 l 347 1215 l 347 1042 l 1042 1042 l 1042 868 l 1215 868 l 1215 347 l 1042 347 l 1042 174 l 174 174 z "},"6":{"ha":1389,"x_min":0,"x_max":1215,"o":"m 174 174 l 174 347 l 0 347 l 0 1042 l 174 1042 l 174 1215 l 347 1215 l 347 1389 l 1042 1389 l 1042 1215 l 521 1215 l 521 1042 l 347 1042 l 347 868 l 1042 868 l 1042 694 l 1215 694 l 1215 347 l 1042 347 l 1042 174 l 174 174 m 347 347 l 868 347 l 868 694 l 347 694 l 347 347 z "},"7":{"ha":1389,"x_min":0,"x_max":1215,"o":"m 347 174 l 347 694 l 521 694 l 521 868 l 694 868 l 694 1042 l 868 1042 l 868 1215 l 347 1215 l 347 1042 l 0 1042 l 0 1389 l 1215 1389 l 1215 1042 l 1042 1042 l 1042 868 l 868 868 l 868 694 l 694 694 l 694 174 l 347 174 z "},"8":{"ha":1389,"x_min":0,"x_max":1215,"o":"m 174 174 l 174 347 l 0 347 l 0 694 l 174 694 l 174 868 l 0 868 l 0 1215 l 174 1215 l 174 1389 l 868 1389 l 868 1215 l 1042 1215 l 1042 868 l 868 868 l 868 694 l 1215 694 l 1215 347 l 1042 347 l 1042 174 l 174 174 m 521 868 l 868 868 l 868 1215 l 347 1215 l 347 1042 l 521 1042 l 521 868 m 174 347 l 868 347 l 868 521 l 521 521 l 521 694 l 174 694 l 174 347 z "},"9":{"ha":1389,"x_min":0,"x_max":1215,"o":"m 174 174 l 174 347 l 694 347 l 694 521 l 868 521 l 868 694 l 174 694 l 174 868 l 0 868 l 0 1215 l 174 1215 l 174 1389 l 1042 1389 l 1042 1215 l 1215 1215 l 1215 521 l 1042 521 l 1042 347 l 868 347 l 868 174 l 174 174 m 347 868 l 868 868 l 868 1215 l 347 1215 l 347 868 z "},"\u0000":{"ha":0,"x_min":0,"x_max":0,"o":""},"\r":{"ha":1389,"x_min":0,"x_max":0,"o":""}," ":{"ha":1389,"x_min":0,"x_max":0,"o":""},"A":{"ha":1389,"x_min":0,"x_max":1215,"o":"m 0 174 l 0 1042 l 174 1042 l 174 1215 l 347 1215 l 347 1389 l 868 1389 l 868 1215 l 1042 1215 l 1042 1042 l 1215 1042 l 1215 174 l 868 174 l 868 521 l 347 521 l 347 174 l 0 174 m 347 694 l 868 694 l 868 1042 l 694 1042 l 694 1215 l 521 1215 l 521 1042 l 347 1042 l 347 694 z "},"Á":{"ha":1389,"x_min":0,"x_max":1215,"o":"m 868 1215 l 694 1215 l 694 1389 l 868 1389 l 868 1215 m 1215 694 l 1215 174 l 868 174 l 868 347 l 347 347 l 347 174 l 0 174 l 0 694 l 174 694 l 174 868 l 347 868 l 347 1042 l 521 1042 l 521 1215 l 694 1215 l 694 1042 l 868 1042 l 868 868 l 1042 868 l 1042 694 l 1215 694 m 868 694 l 694 694 l 694 868 l 521 868 l 521 694 l 347 694 l 347 521 l 868 521 l 868 694 z "},"Ă":{"ha":1389,"x_min":0,"x_max":1215,"o":"m 347 1389 l 347 1215 l 174 1215 l 174 1389 l 347 1389 m 1042 1215 l 868 1215 l 868 1389 l 1042 1389 l 1042 1215 m 1215 694 l 1215 174 l 868 174 l 868 347 l 347 347 l 347 174 l 0 174 l 0 694 l 174 694 l 174 868 l 347 868 l 347 1215 l 868 1215 l 868 868 l 1042 868 l 1042 694 l 1215 694 m 868 694 l 694 694 l 694 868 l 521 868 l 521 694 l 347 694 l 347 521 l 868 521 l 868 694 z "},"Â":{"ha":1389,"x_min":0,"x_max":1215,"o":"m 0 174 l 0 694 l 174 694 l 174 868 l 347 868 l 347 1042 l 174 1042 l 174 1215 l 347 1215 l 347 1389 l 868 1389 l 868 1215 l 1042 1215 l 1042 1042 l 868 1042 l 868 868 l 1042 868 l 1042 694 l 1215 694 l 1215 174 l 868 174 l 868 347 l 347 347 l 347 174 l 0 174 m 521 1042 l 694 1042 l 694 1215 l 521 1215 l 521 1042 m 347 521 l 868 521 l 868 694 l 694 694 l 694 868 l 521 868 l 521 694 l 347 694 l 347 521 z "},"Ä":{"ha":1389,"x_min":0,"x_max":1215,"o":"m 174 1215 l 174 1389 l 521 1389 l 521 1215 l 174 1215 m 694 1215 l 694 1389 l 1042 1389 l 1042 1215 l 694 1215 m 0 174 l 0 694 l 174 694 l 174 868 l 347 868 l 347 1042 l 868 1042 l 868 868 l 1042 868 l 1042 694 l 1215 694 l 1215 174 l 868 174 l 868 347 l 347 347 l 347 174 l 0 174 m 347 521 l 868 521 l 868 694 l 694 694 l 694 868 l 521 868 l 521 694 l 347 694 l 347 521 z "},"À":{"ha":1389,"x_min":0,"x_max":1215,"o":"m 521 1389 l 521 1215 l 347 1215 l 347 1389 l 521 1389 m 1215 694 l 1215 174 l 868 174 l 868 347 l 347 347 l 347 174 l 0 174 l 0 694 l 174 694 l 174 868 l 347 868 l 347 1042 l 521 1042 l 521 1215 l 694 1215 l 694 1042 l 868 1042 l 868 868 l 1042 868 l 1042 694 l 1215 694 m 868 694 l 694 694 l 694 868 l 521 868 l 521 694 l 347 694 l 347 521 l 868 521 l 868 694 z "},"Ā":{"ha":1389,"x_min":0,"x_max":1215,"o":"m 174 1215 l 174 1389 l 1042 1389 l 1042 1215 l 174 1215 m 0 174 l 0 694 l 174 694 l 174 868 l 347 868 l 347 1042 l 868 1042 l 868 868 l 1042 868 l 1042 694 l 1215 694 l 1215 174 l 868 174 l 868 347 l 347 347 l 347 174 l 0 174 m 347 521 l 868 521 l 868 694 l 694 694 l 694 868 l 521 868 l 521 694 l 347 694 l 347 521 z "},"Ą":{"ha":1389,"x_min":0,"x_max":1215,"o":"m 1215 1042 l 1215 521 l 1042 521 l 1042 347 l 868 347 l 868 694 l 347 694 l 347 521 l 0 521 l 0 1042 l 174 1042 l 174 1215 l 347 1215 l 347 1389 l 868 1389 l 868 1215 l 1042 1215 l 1042 1042 l 1215 1042 m 868 1042 l 694 1042 l 694 1215 l 521 1215 l 521 1042 l 347 1042 l 347 868 l 868 868 l 868 1042 m 694 347 l 868 347 l 868 174 l 694 174 l 694 347 m 868 0 l 868 174 l 1215 174 l 1215 0 l 868 0 z "},"Å":{"ha":1389,"x_min":0,"x_max":1215,"o":"m 0 174 l 0 694 l 174 694 l 174 868 l 347 868 l 347 1215 l 521 1215 l 521 1389 l 694 1389 l 694 1215 l 868 1215 l 868 868 l 1042 868 l 1042 694 l 1215 694 l 1215 174 l 868 174 l 868 347 l 347 347 l 347 174 l 0 174 m 521 1042 l 694 1042 l 694 1215 l 521 1215 l 521 1042 m 347 521 l 868 521 l 868 694 l 694 694 l 694 868 l 521 868 l 521 694 l 347 694 l 347 521 z "},"Ã":{"ha":1389,"x_min":0,"x_max":1215,"o":"m 1215 694 l 1215 174 l 868 174 l 868 347 l 347 347 l 347 174 l 0 174 l 0 694 l 174 694 l 174 868 l 347 868 l 347 1042 l 521 1042 l 521 1215 l 347 1215 l 347 1389 l 694 1389 l 694 1215 l 868 1215 l 868 868 l 1042 868 l 1042 694 l 1215 694 m 1042 1215 l 868 1215 l 868 1389 l 1042 1389 l 1042 1215 m 347 1215 l 347 1042 l 174 1042 l 174 1215 l 347 1215 m 868 694 l 694 694 l 694 868 l 521 868 l 521 694 l 347 694 l 347 521 l 868 521 l 868 694 z "},"Æ":{"ha":1389,"x_min":0,"x_max":1215,"o":"m 0 174 l 0 1042 l 174 1042 l 174 1215 l 347 1215 l 347 1389 l 1215 1389 l 1215 1215 l 868 1215 l 868 868 l 1215 868 l 1215 694 l 868 694 l 868 347 l 1215 347 l 1215 174 l 521 174 l 521 521 l 347 521 l 347 174 l 0 174 m 347 694 l 521 694 l 521 1042 l 347 1042 l 347 694 z "},"B":{"ha":1389,"x_min":0,"x_max":1215,"o":"m 0 174 l 0 1389 l 1042 1389 l 1042 1215 l 1215 1215 l 1215 868 l 1042 868 l 1042 694 l 1215 694 l 1215 347 l 1042 347 l 1042 174 l 0 174 m 347 868 l 868 868 l 868 1215 l 347 1215 l 347 868 m 347 347 l 868 347 l 868 694 l 347 694 l 347 347 z "},"C":{"ha":1389,"x_min":0,"x_max":1215,"o":"m 347 174 l 347 347 l 174 347 l 174 521 l 0 521 l 0 1042 l 174 1042 l 174 1215 l 347 1215 l 347 1389 l 1042 1389 l 1042 1215 l 1215 1215 l 1215 1042 l 868 1042 l 868 1215 l 521 1215 l 521 1042 l 347 1042 l 347 521 l 521 521 l 521 347 l 868 347 l 868 521 l 1215 521 l 1215 347 l 1042 347 l 1042 174 l 347 174 z "},"Ć":{"ha":1389,"x_min":0,"x_max":1215,"o":"m 868 1215 l 694 1215 l 694 1389 l 868 1389 l 868 1215 m 1215 868 l 1215 694 l 868 694 l 868 868 l 521 868 l 521 694 l 347 694 l 347 521 l 521 521 l 521 347 l 868 347 l 868 521 l 1215 521 l 1215 347 l 1042 347 l 1042 174 l 347 174 l 347 347 l 174 347 l 174 521 l 0 521 l 0 694 l 174 694 l 174 868 l 347 868 l 347 1042 l 521 1042 l 521 1215 l 694 1215 l 694 1042 l 1042 1042 l 1042 868 l 1215 868 z "},"Č":{"ha":1389,"x_min":0,"x_max":1215,"o":"m 347 174 l 347 347 l 174 347 l 174 521 l 0 521 l 0 694 l 174 694 l 174 868 l 347 868 l 347 1215 l 174 1215 l 174 1389 l 521 1389 l 521 1215 l 868 1215 l 868 1389 l 1215 1389 l 1215 1215 l 1042 1215 l 1042 868 l 1215 868 l 1215 694 l 868 694 l 868 868 l 521 868 l 521 694 l 347 694 l 347 521 l 521 521 l 521 347 l 868 347 l 868 521 l 1215 521 l 1215 347 l 1042 347 l 1042 174 l 347 174 z "},"Ç":{"ha":1389,"x_min":0,"x_max":1215,"o":"m 1215 1215 l 1215 1042 l 868 1042 l 868 1215 l 521 1215 l 521 1042 l 347 1042 l 347 694 l 521 694 l 521 521 l 868 521 l 868 694 l 1215 694 l 1215 521 l 1042 521 l 1042 347 l 868 347 l 868 174 l 694 174 l 694 347 l 347 347 l 347 521 l 174 521 l 174 694 l 0 694 l 0 1042 l 174 1042 l 174 1215 l 347 1215 l 347 1389 l 1042 1389 l 1042 1215 l 1215 1215 m 347 174 l 694 174 l 694 0 l 347 0 l 347 174 z "},"Ĉ":{"ha":1389,"x_min":0,"x_max":1215,"o":"m 347 174 l 347 347 l 174 347 l 174 521 l 0 521 l 0 694 l 174 694 l 174 868 l 347 868 l 347 1042 l 174 1042 l 174 1215 l 347 1215 l 347 1389 l 868 1389 l 868 1215 l 1042 1215 l 1042 868 l 1215 868 l 1215 694 l 868 694 l 868 868 l 521 868 l 521 694 l 347 694 l 347 521 l 521 521 l 521 347 l 868 347 l 868 521 l 1215 521 l 1215 347 l 1042 347 l 1042 174 l 347 174 m 521 1042 l 694 1042 l 694 1215 l 521 1215 l 521 1042 z "},"Ċ":{"ha":1389,"x_min":0,"x_max":1215,"o":"m 521 1215 l 521 1389 l 868 1389 l 868 1215 l 521 1215 m 347 174 l 347 347 l 174 347 l 174 521 l 0 521 l 0 694 l 174 694 l 174 868 l 347 868 l 347 1042 l 1042 1042 l 1042 868 l 1215 868 l 1215 694 l 868 694 l 868 868 l 521 868 l 521 694 l 347 694 l 347 521 l 521 521 l 521 347 l 868 347 l 868 521 l 1215 521 l 1215 347 l 1042 347 l 1042 174 l 347 174 z "},"D":{"ha":1389,"x_min":0,"x_max":1215,"o":"m 0 174 l 0 1389 l 868 1389 l 868 1215 l 1042 1215 l 1042 1042 l 1215 1042 l 1215 521 l 1042 521 l 1042 347 l 868 347 l 868 174 l 0 174 m 347 347 l 694 347 l 694 521 l 868 521 l 868 1042 l 694 1042 l 694 1215 l 347 1215 l 347 347 z "},"Ð":{"ha":1389,"x_min":0,"x_max":1215,"o":"m 174 174 l 174 694 l 0 694 l 0 868 l 174 868 l 174 1389 l 868 1389 l 868 1215 l 1042 1215 l 1042 1042 l 1215 1042 l 1215 521 l 1042 521 l 1042 347 l 868 347 l 868 174 l 174 174 m 521 347 l 694 347 l 694 521 l 868 521 l 868 1042 l 694 1042 l 694 1215 l 521 1215 l 521 868 l 694 868 l 694 694 l 521 694 l 521 347 z "},"Ď":{"ha":1389,"x_min":0,"x_max":1215,"o":"m 0 174 l 0 1042 l 347 1042 l 347 1215 l 174 1215 l 174 1389 l 521 1389 l 521 1215 l 694 1215 l 694 1389 l 1042 1389 l 1042 1215 l 868 1215 l 868 868 l 1042 868 l 1042 694 l 1215 694 l 1215 521 l 1042 521 l 1042 347 l 868 347 l 868 174 l 0 174 m 347 347 l 694 347 l 694 521 l 868 521 l 868 694 l 694 694 l 694 868 l 347 868 l 347 347 z "},"Đ":{"ha":1389,"x_min":0,"x_max":1215,"o":"m 174 174 l 174 694 l 0 694 l 0 868 l 174 868 l 174 1389 l 868 1389 l 868 1215 l 1042 1215 l 1042 1042 l 1215 1042 l 1215 521 l 1042 521 l 1042 347 l 868 347 l 868 174 l 174 174 m 521 347 l 694 347 l 694 521 l 868 521 l 868 1042 l 694 1042 l 694 1215 l 521 1215 l 521 868 l 694 868 l 694 694 l 521 694 l 521 347 z "},"E":{"ha":1389,"x_min":0,"x_max":1215,"o":"m 0 174 l 0 1389 l 1215 1389 l 1215 1215 l 347 1215 l 347 868 l 1042 868 l 1042 694 l 347 694 l 347 347 l 1215 347 l 1215 174 l 0 174 z "},"É":{"ha":1389,"x_min":0,"x_max":1215,"o":"m 868 1215 l 694 1215 l 694 1389 l 868 1389 l 868 1215 m 1215 1042 l 1215 868 l 347 868 l 347 694 l 1042 694 l 1042 521 l 347 521 l 347 347 l 1215 347 l 1215 174 l 0 174 l 0 1042 l 521 1042 l 521 1215 l 694 1215 l 694 1042 l 1215 1042 z "},"Ĕ":{"ha":1389,"x_min":0,"x_max":1215,"o":"m 347 1389 l 347 1215 l 174 1215 l 174 1389 l 347 1389 m 1042 1215 l 868 1215 l 868 1389 l 1042 1389 l 1042 1215 m 1215 1042 l 1215 868 l 347 868 l 347 694 l 1042 694 l 1042 521 l 347 521 l 347 347 l 1215 347 l 1215 174 l 0 174 l 0 1042 l 347 1042 l 347 1215 l 868 1215 l 868 1042 l 1215 1042 z "},"Ě":{"ha":1389,"x_min":0,"x_max":1215,"o":"m 0 174 l 0 1042 l 347 1042 l 347 1215 l 174 1215 l 174 1389 l 521 1389 l 521 1215 l 694 1215 l 694 1389 l 1042 1389 l 1042 1215 l 868 1215 l 868 1042 l 1215 1042 l 1215 868 l 347 868 l 347 694 l 1042 694 l 1042 521 l 347 521 l 347 347 l 1215 347 l 1215 174 l 0 174 z "},"Ê":{"ha":1389,"x_min":0,"x_max":1215,"o":"m 0 174 l 0 1042 l 174 1042 l 174 1215 l 347 1215 l 347 1389 l 868 1389 l 868 1215 l 1042 1215 l 1042 1042 l 1215 1042 l 1215 868 l 347 868 l 347 694 l 1042 694 l 1042 521 l 347 521 l 347 347 l 1215 347 l 1215 174 l 0 174 m 521 1042 l 694 1042 l 694 1215 l 521 1215 l 521 1042 z "},"Ë":{"ha":1389,"x_min":0,"x_max":1215,"o":"m 174 1215 l 174 1389 l 521 1389 l 521 1215 l 174 1215 m 694 1215 l 694 1389 l 1042 1389 l 1042 1215 l 694 1215 m 0 174 l 0 1042 l 1215 1042 l 1215 868 l 347 868 l 347 694 l 1042 694 l 1042 521 l 347 521 l 347 347 l 1215 347 l 1215 174 l 0 174 z "},"Ė":{"ha":1389,"x_min":0,"x_max":1215,"o":"m 521 1215 l 521 1389 l 868 1389 l 868 1215 l 521 1215 m 0 174 l 0 1042 l 1215 1042 l 1215 868 l 347 868 l 347 694 l 1042 694 l 1042 521 l 347 521 l 347 347 l 1215 347 l 1215 174 l 0 174 z "},"È":{"ha":1389,"x_min":0,"x_max":1215,"o":"m 521 1389 l 521 1215 l 347 1215 l 347 1389 l 521 1389 m 1215 1042 l 1215 868 l 347 868 l 347 694 l 1042 694 l 1042 521 l 347 521 l 347 347 l 1215 347 l 1215 174 l 0 174 l 0 1042 l 521 1042 l 521 1215 l 694 1215 l 694 1042 l 1215 1042 z "},"Ē":{"ha":1389,"x_min":0,"x_max":1215,"o":"m 174 1215 l 174 1389 l 1042 1389 l 1042 1215 l 174 1215 m 0 174 l 0 1042 l 1215 1042 l 1215 868 l 347 868 l 347 694 l 1042 694 l 1042 521 l 347 521 l 347 347 l 1215 347 l 1215 174 l 0 174 z "},"Ę":{"ha":1389,"x_min":0,"x_max":1215,"o":"m 1215 1389 l 1215 1215 l 347 1215 l 347 1042 l 1042 1042 l 1042 868 l 347 868 l 347 694 l 1215 694 l 1215 521 l 694 521 l 694 347 l 521 347 l 521 521 l 0 521 l 0 1389 l 1215 1389 m 347 347 l 521 347 l 521 174 l 347 174 l 347 347 m 521 0 l 521 174 l 868 174 l 868 0 l 521 0 z "},"F":{"ha":1389,"x_min":0,"x_max":1215,"o":"m 0 174 l 0 1389 l 1215 1389 l 1215 1215 l 347 1215 l 347 868 l 1042 868 l 1042 694 l 347 694 l 347 174 l 0 174 z "},"G":{"ha":1389,"x_min":0,"x_max":1215,"o":"m 347 174 l 347 347 l 174 347 l 174 521 l 0 521 l 0 1042 l 174 1042 l 174 1215 l 347 1215 l 347 1389 l 1215 1389 l 1215 1215 l 521 1215 l 521 1042 l 347 1042 l 347 521 l 521 521 l 521 347 l 868 347 l 868 694 l 694 694 l 694 868 l 1215 868 l 1215 174 l 347 174 z "},"Ğ":{"ha":1389,"x_min":0,"x_max":1215,"o":"m 347 1389 l 347 1215 l 174 1215 l 174 1389 l 347 1389 m 1042 1215 l 868 1215 l 868 1389 l 1042 1389 l 1042 1215 m 1215 1042 l 1215 868 l 347 868 l 347 347 l 868 347 l 868 521 l 694 521 l 694 694 l 1215 694 l 1215 174 l 174 174 l 174 347 l 0 347 l 0 868 l 174 868 l 174 1042 l 347 1042 l 347 1215 l 868 1215 l 868 1042 l 1215 1042 z "},"Ĝ":{"ha":1389,"x_min":0,"x_max":1215,"o":"m 174 174 l 174 347 l 0 347 l 0 868 l 174 868 l 174 1215 l 347 1215 l 347 1389 l 868 1389 l 868 1215 l 1042 1215 l 1042 1042 l 1215 1042 l 1215 868 l 347 868 l 347 347 l 868 347 l 868 521 l 694 521 l 694 694 l 1215 694 l 1215 174 l 174 174 m 521 1042 l 694 1042 l 694 1215 l 521 1215 l 521 1042 z "},"Ģ":{"ha":1389,"x_min":0,"x_max":1215,"o":"m 347 0 l 347 174 l 521 174 l 521 347 l 347 347 l 347 521 l 174 521 l 174 694 l 0 694 l 0 1042 l 174 1042 l 174 1215 l 347 1215 l 347 1389 l 1215 1389 l 1215 1215 l 521 1215 l 521 1042 l 347 1042 l 347 694 l 521 694 l 521 521 l 868 521 l 868 694 l 694 694 l 694 868 l 1215 868 l 1215 347 l 868 347 l 868 174 l 694 174 l 694 0 l 347 0 z "},"Ġ":{"ha":1389,"x_min":0,"x_max":1215,"o":"m 521 1215 l 521 1389 l 868 1389 l 868 1215 l 521 1215 m 174 174 l 174 347 l 0 347 l 0 868 l 174 868 l 174 1042 l 1215 1042 l 1215 868 l 347 868 l 347 347 l 868 347 l 868 521 l 694 521 l 694 694 l 1215 694 l 1215 174 l 174 174 z "},"H":{"ha":1389,"x_min":0,"x_max":1215,"o":"m 0 174 l 0 1389 l 347 1389 l 347 868 l 868 868 l 868 1389 l 1215 1389 l 1215 174 l 868 174 l 868 694 l 347 694 l 347 174 l 0 174 z "},"Ħ":{"ha":1389,"x_min":0,"x_max":1215,"o":"m 0 174 l 0 1389 l 347 1389 l 347 1215 l 868 1215 l 868 1389 l 1215 1389 l 1215 174 l 868 174 l 868 694 l 347 694 l 347 174 l 0 174 m 347 868 l 868 868 l 868 1042 l 347 1042 l 347 868 z "},"Ĥ":{"ha":1389,"x_min":0,"x_max":1215,"o":"m 0 174 l 0 1215 l 347 1215 l 347 1389 l 868 1389 l 868 1215 l 1215 1215 l 1215 174 l 868 174 l 868 521 l 347 521 l 347 174 l 0 174 m 347 694 l 868 694 l 868 1042 l 694 1042 l 694 1215 l 521 1215 l 521 1042 l 347 1042 l 347 694 z "},"I":{"ha":1389,"x_min":174,"x_max":1215,"o":"m 174 174 l 174 347 l 521 347 l 521 1215 l 174 1215 l 174 1389 l 1215 1389 l 1215 1215 l 868 1215 l 868 347 l 1215 347 l 1215 174 l 174 174 z "},"Ĳ":{"ha":1389,"x_min":0,"x_max":1215,"o":"m 0 521 l 0 694 l 174 694 l 174 1215 l 0 1215 l 0 1389 l 694 1389 l 694 1215 l 521 1215 l 521 694 l 694 694 l 694 521 l 0 521 m 174 174 l 174 347 l 868 347 l 868 1389 l 1215 1389 l 1215 347 l 1042 347 l 1042 174 l 174 174 z "},"Í":{"ha":1389,"x_min":174,"x_max":1215,"o":"m 868 1215 l 694 1215 l 694 1389 l 868 1389 l 868 1215 m 1215 1042 l 1215 868 l 868 868 l 868 347 l 1215 347 l 1215 174 l 174 174 l 174 347 l 521 347 l 521 868 l 174 868 l 174 1042 l 521 1042 l 521 1215 l 694 1215 l 694 1042 l 1215 1042 z "},"Ĭ":{"ha":1389,"x_min":174,"x_max":1215,"o":"m 521 1389 l 521 1215 l 347 1215 l 347 1389 l 521 1389 m 1042 1215 l 868 1215 l 868 1389 l 1042 1389 l 1042 1215 m 1215 1042 l 1215 868 l 868 868 l 868 347 l 1215 347 l 1215 174 l 174 174 l 174 347 l 521 347 l 521 868 l 174 868 l 174 1042 l 521 1042 l 521 1215 l 868 1215 l 868 1042 l 1215 1042 z "},"Î":{"ha":1389,"x_min":174,"x_max":1215,"o":"m 174 174 l 174 347 l 521 347 l 521 868 l 174 868 l 174 1042 l 347 1042 l 347 1215 l 521 1215 l 521 1389 l 868 1389 l 868 1215 l 1042 1215 l 1042 1042 l 1215 1042 l 1215 868 l 868 868 l 868 347 l 1215 347 l 1215 174 l 174 174 z "},"Ï":{"ha":1389,"x_min":174,"x_max":1215,"o":"m 174 1215 l 174 1389 l 521 1389 l 521 1215 l 174 1215 m 868 1215 l 868 1389 l 1215 1389 l 1215 1215 l 868 1215 m 174 174 l 174 347 l 521 347 l 521 868 l 174 868 l 174 1042 l 1215 1042 l 1215 868 l 868 868 l 868 347 l 1215 347 l 1215 174 l 174 174 z "},"İ":{"ha":1389,"x_min":174,"x_max":1215,"o":"m 521 1215 l 521 1389 l 868 1389 l 868 1215 l 521 1215 m 174 174 l 174 347 l 521 347 l 521 868 l 174 868 l 174 1042 l 1215 1042 l 1215 868 l 868 868 l 868 347 l 1215 347 l 1215 174 l 174 174 z "},"Ì":{"ha":1389,"x_min":174,"x_max":1215,"o":"m 694 1389 l 694 1215 l 521 1215 l 521 1389 l 694 1389 m 1215 1042 l 1215 868 l 868 868 l 868 347 l 1215 347 l 1215 174 l 174 174 l 174 347 l 521 347 l 521 868 l 174 868 l 174 1042 l 694 1042 l 694 1215 l 868 1215 l 868 1042 l 1215 1042 z "},"Ī":{"ha":1389,"x_min":174,"x_max":1215,"o":"m 174 1215 l 174 1389 l 1215 1389 l 1215 1215 l 174 1215 m 174 174 l 174 347 l 521 347 l 521 868 l 174 868 l 174 1042 l 1215 1042 l 1215 868 l 868 868 l 868 347 l 1215 347 l 1215 174 l 174 174 z "},"Į":{"ha":1389,"x_min":174,"x_max":1215,"o":"m 1215 1389 l 1215 1215 l 868 1215 l 868 694 l 1215 694 l 1215 521 l 694 521 l 694 347 l 521 347 l 521 521 l 174 521 l 174 694 l 521 694 l 521 1215 l 174 1215 l 174 1389 l 1215 1389 m 347 347 l 521 347 l 521 174 l 347 174 l 347 347 m 521 0 l 521 174 l 868 174 l 868 0 l 521 0 z "},"Ĩ":{"ha":1389,"x_min":174,"x_max":1215,"o":"m 694 1215 l 347 1215 l 347 1389 l 694 1389 l 694 1215 m 1215 1389 l 1215 1215 l 1042 1215 l 1042 1389 l 1215 1389 m 694 1215 l 1042 1215 l 1042 1042 l 1215 1042 l 1215 868 l 868 868 l 868 347 l 1215 347 l 1215 174 l 174 174 l 174 347 l 521 347 l 521 868 l 174 868 l 174 1215 l 347 1215 l 347 1042 l 694 1042 l 694 1215 z "},"J":{"ha":1389,"x_min":0,"x_max":1215,"o":"m 174 174 l 174 347 l 0 347 l 0 521 l 347 521 l 347 347 l 868 347 l 868 1389 l 1215 1389 l 1215 347 l 1042 347 l 1042 174 l 174 174 z "},"Ĵ":{"ha":1389,"x_min":0,"x_max":1215,"o":"m 174 174 l 174 347 l 0 347 l 0 521 l 347 521 l 347 347 l 868 347 l 868 1215 l 694 1215 l 694 1042 l 347 1042 l 347 1215 l 521 1215 l 521 1389 l 1042 1389 l 1042 1215 l 1215 1215 l 1215 347 l 1042 347 l 1042 174 l 174 174 z "},"K":{"ha":1389,"x_min":0,"x_max":1215,"o":"m 0 174 l 0 1389 l 347 1389 l 347 868 l 521 868 l 521 1042 l 694 1042 l 694 1215 l 868 1215 l 868 1389 l 1215 1389 l 1215 1215 l 1042 1215 l 1042 1042 l 868 1042 l 868 868 l 694 868 l 694 694 l 868 694 l 868 521 l 1042 521 l 1042 347 l 1215 347 l 1215 174 l 694 174 l 694 347 l 521 347 l 521 521 l 347 521 l 347 174 l 0 174 z "},"Ķ":{"ha":1389,"x_min":0,"x_max":1215,"o":"m 174 0 l 174 174 l 347 174 l 347 347 l 0 347 l 0 1389 l 347 1389 l 347 1042 l 521 1042 l 521 1215 l 694 1215 l 694 1389 l 1042 1389 l 1042 1215 l 868 1215 l 868 1042 l 694 1042 l 694 868 l 868 868 l 868 694 l 1042 694 l 1042 521 l 1215 521 l 1215 347 l 694 347 l 694 174 l 521 174 l 521 0 l 174 0 m 347 347 l 694 347 l 694 521 l 521 521 l 521 694 l 347 694 l 347 347 z "},"L":{"ha":1389,"x_min":174,"x_max":1215,"o":"m 174 174 l 174 1389 l 521 1389 l 521 347 l 1215 347 l 1215 174 l 174 174 z "},"Ĺ":{"ha":1389,"x_min":174,"x_max":1215,"o":"m 868 1215 l 694 1215 l 694 1389 l 868 1389 l 868 1215 m 1215 347 l 1215 174 l 174 174 l 174 1215 l 694 1215 l 694 1042 l 521 1042 l 521 347 l 1215 347 z "},"Ľ":{"ha":1389,"x_min":174,"x_max":1215,"o":"m 174 174 l 174 1389 l 521 1389 l 521 347 l 1215 347 l 1215 174 l 174 174 m 868 868 l 868 1389 l 1215 1389 l 1215 1042 l 1042 1042 l 1042 868 l 868 868 z "},"Ļ":{"ha":1389,"x_min":174,"x_max":1215,"o":"m 347 0 l 347 174 l 521 174 l 521 347 l 174 347 l 174 1389 l 521 1389 l 521 521 l 1215 521 l 1215 347 l 868 347 l 868 174 l 694 174 l 694 0 l 347 0 z "},"Ŀ":{"ha":1389,"x_min":174,"x_max":1215,"o":"m 174 174 l 174 1389 l 521 1389 l 521 347 l 1215 347 l 1215 174 l 174 174 m 694 694 l 694 1042 l 1042 1042 l 1042 694 l 694 694 z "},"Ł":{"ha":1389,"x_min":0,"x_max":1215,"o":"m 174 174 l 174 694 l 0 694 l 0 868 l 174 868 l 174 1389 l 521 1389 l 521 1042 l 694 1042 l 694 868 l 521 868 l 521 347 l 1215 347 l 1215 174 l 174 174 z "},"M":{"ha":1389,"x_min":0,"x_max":1215,"o":"m 0 174 l 0 1389 l 347 1389 l 347 1215 l 521 1215 l 521 1042 l 694 1042 l 694 1215 l 868 1215 l 868 1389 l 1215 1389 l 1215 174 l 868 174 l 868 868 l 694 868 l 694 521 l 521 521 l 521 868 l 347 868 l 347 174 l 0 174 z "},"N":{"ha":1389,"x_min":0,"x_max":1215,"o":"m 0 174 l 0 1389 l 347 1389 l 347 1215 l 521 1215 l 521 1042 l 694 1042 l 694 868 l 868 868 l 868 1389 l 1215 1389 l 1215 174 l 868 174 l 868 521 l 694 521 l 694 694 l 521 694 l 521 868 l 347 868 l 347 174 l 0 174 z "},"Ń":{"ha":1389,"x_min":0,"x_max":1215,"o":"m 868 1215 l 694 1215 l 694 1389 l 868 1389 l 868 1215 m 694 1042 l 521 1042 l 521 1215 l 694 1215 l 694 1042 m 1215 1042 l 1215 174 l 694 174 l 694 347 l 521 347 l 521 521 l 347 521 l 347 174 l 0 174 l 0 1042 l 521 1042 l 521 868 l 694 868 l 694 694 l 868 694 l 868 1042 l 1215 1042 z "},"Ň":{"ha":1389,"x_min":0,"x_max":1215,"o":"m 1215 1042 l 1215 174 l 694 174 l 694 347 l 521 347 l 521 521 l 347 521 l 347 174 l 0 174 l 0 1042 l 347 1042 l 347 1215 l 174 1215 l 174 1389 l 521 1389 l 521 1215 l 694 1215 l 694 1389 l 1042 1389 l 1042 1215 l 868 1215 l 868 1042 l 521 1042 l 521 868 l 694 868 l 694 694 l 868 694 l 868 1042 l 1215 1042 z "},"Ņ":{"ha":1389,"x_min":0,"x_max":1215,"o":"m 1215 1389 l 1215 347 l 868 347 l 868 521 l 694 521 l 694 694 l 521 694 l 521 868 l 347 868 l 347 347 l 0 347 l 0 1389 l 521 1389 l 521 1215 l 694 1215 l 694 1042 l 868 1042 l 868 1389 l 1215 1389 m 521 347 l 868 347 l 868 174 l 694 174 l 694 0 l 347 0 l 347 174 l 521 174 l 521 347 z "},"Ŋ":{"ha":1389,"x_min":0,"x_max":1215,"o":"m 347 0 l 347 174 l 868 174 l 868 521 l 694 521 l 694 694 l 521 694 l 521 868 l 347 868 l 347 347 l 0 347 l 0 1389 l 521 1389 l 521 1215 l 694 1215 l 694 1042 l 868 1042 l 868 1389 l 1215 1389 l 1215 174 l 1042 174 l 1042 0 l 347 0 z "},"Ñ":{"ha":1389,"x_min":0,"x_max":1215,"o":"m 521 1215 l 347 1215 l 347 1389 l 694 1389 l 694 1215 l 868 1215 l 868 1042 l 521 1042 l 521 1215 m 1042 1215 l 868 1215 l 868 1389 l 1042 1389 l 1042 1215 m 1215 1042 l 1215 174 l 694 174 l 694 347 l 521 347 l 521 521 l 347 521 l 347 174 l 0 174 l 0 1042 l 174 1042 l 174 1215 l 347 1215 l 347 1042 l 521 1042 l 521 868 l 694 868 l 694 694 l 868 694 l 868 1042 l 1215 1042 z "},"O":{"ha":1389,"x_min":0,"x_max":1215,"o":"m 174 174 l 174 347 l 0 347 l 0 1215 l 174 1215 l 174 1389 l 1042 1389 l 1042 1215 l 1215 1215 l 1215 347 l 1042 347 l 1042 174 l 174 174 m 347 347 l 868 347 l 868 1215 l 347 1215 l 347 347 z "},"Ó":{"ha":1389,"x_min":0,"x_max":1215,"o":"m 868 1215 l 694 1215 l 694 1389 l 868 1389 l 868 1215 m 1215 868 l 1215 347 l 1042 347 l 1042 174 l 174 174 l 174 347 l 0 347 l 0 868 l 174 868 l 174 1042 l 521 1042 l 521 1215 l 694 1215 l 694 1042 l 1042 1042 l 1042 868 l 1215 868 m 868 868 l 347 868 l 347 347 l 868 347 l 868 868 z "},"Ŏ":{"ha":1389,"x_min":0,"x_max":1215,"o":"m 347 1389 l 347 1215 l 174 1215 l 174 1389 l 347 1389 m 1042 1215 l 868 1215 l 868 1389 l 1042 1389 l 1042 1215 m 1215 868 l 1215 347 l 1042 347 l 1042 174 l 174 174 l 174 347 l 0 347 l 0 868 l 174 868 l 174 1042 l 347 1042 l 347 1215 l 868 1215 l 868 1042 l 1042 1042 l 1042 868 l 1215 868 m 868 868 l 347 868 l 347 347 l 868 347 l 868 868 z "},"Ô":{"ha":1389,"x_min":0,"x_max":1215,"o":"m 174 174 l 174 347 l 0 347 l 0 868 l 174 868 l 174 1215 l 347 1215 l 347 1389 l 868 1389 l 868 1215 l 1042 1215 l 1042 868 l 1215 868 l 1215 347 l 1042 347 l 1042 174 l 174 174 m 521 1042 l 694 1042 l 694 1215 l 521 1215 l 521 1042 m 347 347 l 868 347 l 868 868 l 347 868 l 347 347 z "},"Ö":{"ha":1389,"x_min":0,"x_max":1215,"o":"m 174 1215 l 174 1389 l 521 1389 l 521 1215 l 174 1215 m 694 1215 l 694 1389 l 1042 1389 l 1042 1215 l 694 1215 m 174 174 l 174 347 l 0 347 l 0 868 l 174 868 l 174 1042 l 1042 1042 l 1042 868 l 1215 868 l 1215 347 l 1042 347 l 1042 174 l 174 174 m 347 347 l 868 347 l 868 868 l 347 868 l 347 347 z "},"Ò":{"ha":1389,"x_min":0,"x_max":1215,"o":"m 521 1389 l 521 1215 l 347 1215 l 347 1389 l 521 1389 m 1215 868 l 1215 347 l 1042 347 l 1042 174 l 174 174 l 174 347 l 0 347 l 0 868 l 174 868 l 174 1042 l 521 1042 l 521 1215 l 694 1215 l 694 1042 l 1042 1042 l 1042 868 l 1215 868 m 868 868 l 347 868 l 347 347 l 868 347 l 868 868 z "},"Ő":{"ha":1389,"x_min":0,"x_max":1215,"o":"m 521 1215 l 347 1215 l 347 1389 l 521 1389 l 521 1215 m 1042 1215 l 868 1215 l 868 1389 l 1042 1389 l 1042 1215 m 1215 868 l 1215 347 l 1042 347 l 1042 174 l 174 174 l 174 347 l 0 347 l 0 868 l 174 868 l 174 1215 l 347 1215 l 347 1042 l 694 1042 l 694 1215 l 868 1215 l 868 1042 l 1042 1042 l 1042 868 l 1215 868 m 868 868 l 347 868 l 347 347 l 868 347 l 868 868 z "},"Ō":{"ha":1389,"x_min":0,"x_max":1215,"o":"m 174 1215 l 174 1389 l 1042 1389 l 1042 1215 l 174 1215 m 174 174 l 174 347 l 0 347 l 0 868 l 174 868 l 174 1042 l 1042 1042 l 1042 868 l 1215 868 l 1215 347 l 1042 347 l 1042 174 l 174 174 m 347 347 l 868 347 l 868 868 l 347 868 l 347 347 z "},"Ø":{"ha":1389,"x_min":0,"x_max":1215,"o":"m 174 174 l 174 347 l 0 347 l 0 1215 l 174 1215 l 174 1389 l 1042 1389 l 1042 1215 l 1215 1215 l 1215 347 l 1042 347 l 1042 174 l 174 174 m 347 347 l 868 347 l 868 868 l 694 868 l 694 1042 l 868 1042 l 868 1215 l 347 1215 l 347 694 l 521 694 l 521 521 l 347 521 l 347 347 m 521 694 l 521 868 l 694 868 l 694 694 l 521 694 z "},"Õ":{"ha":1389,"x_min":0,"x_max":1215,"o":"m 174 174 l 174 347 l 0 347 l 0 868 l 174 868 l 174 1215 l 347 1215 l 347 1389 l 694 1389 l 694 1215 l 868 1215 l 868 1389 l 1042 1389 l 1042 1215 l 868 1215 l 868 1042 l 1042 1042 l 1042 868 l 1215 868 l 1215 347 l 1042 347 l 1042 174 l 174 174 m 347 1042 l 521 1042 l 521 1215 l 347 1215 l 347 1042 m 347 347 l 868 347 l 868 868 l 347 868 l 347 347 z "},"Œ":{"ha":1389,"x_min":0,"x_max":1215,"o":"m 174 174 l 174 347 l 0 347 l 0 1215 l 174 1215 l 174 1389 l 1215 1389 l 1215 1215 l 868 1215 l 868 868 l 1215 868 l 1215 694 l 868 694 l 868 347 l 1215 347 l 1215 174 l 174 174 m 347 347 l 521 347 l 521 1215 l 347 1215 l 347 347 z "},"P":{"ha":1389,"x_min":0,"x_max":1215,"o":"m 0 174 l 0 1389 l 1042 1389 l 1042 1215 l 1215 1215 l 1215 694 l 1042 694 l 1042 521 l 347 521 l 347 174 l 0 174 m 347 694 l 868 694 l 868 1215 l 347 1215 l 347 694 z "},"Þ":{"ha":1389,"x_min":0,"x_max":1215,"o":"m 0 174 l 0 1389 l 347 1389 l 347 1215 l 1042 1215 l 1042 1042 l 1215 1042 l 1215 521 l 1042 521 l 1042 347 l 347 347 l 347 174 l 0 174 m 347 521 l 868 521 l 868 1042 l 347 1042 l 347 521 z "},"Q":{"ha":1389,"x_min":0,"x_max":1215,"o":"m 1215 1215 l 1215 521 l 1042 521 l 1042 347 l 868 347 l 868 174 l 174 174 l 174 347 l 0 347 l 0 1215 l 174 1215 l 174 1389 l 1042 1389 l 1042 1215 l 1215 1215 m 868 1215 l 347 1215 l 347 347 l 694 347 l 694 521 l 521 521 l 521 694 l 868 694 l 868 1215 m 1042 174 l 1042 347 l 1215 347 l 1215 174 l 1042 174 z "},"R":{"ha":1389,"x_min":0,"x_max":1215,"o":"m 0 174 l 0 1389 l 1042 1389 l 1042 1215 l 1215 1215 l 1215 694 l 868 694 l 868 521 l 1042 521 l 1042 347 l 1215 347 l 1215 174 l 694 174 l 694 347 l 521 347 l 521 521 l 347 521 l 347 174 l 0 174 m 347 694 l 694 694 l 694 868 l 868 868 l 868 1215 l 347 1215 l 347 694 z "},"Ŕ":{"ha":1389,"x_min":0,"x_max":1215,"o":"m 868 1215 l 694 1215 l 694 1389 l 868 1389 l 868 1215 m 1215 868 l 1215 694 l 868 694 l 868 521 l 1042 521 l 1042 347 l 1215 347 l 1215 174 l 694 174 l 694 347 l 521 347 l 521 521 l 347 521 l 347 174 l 0 174 l 0 1042 l 521 1042 l 521 1215 l 694 1215 l 694 1042 l 1042 1042 l 1042 868 l 1215 868 m 694 868 l 347 868 l 347 694 l 694 694 l 694 868 z "},"Ř":{"ha":1389,"x_min":0,"x_max":1215,"o":"m 521 1389 l 521 1215 l 347 1215 l 347 1389 l 521 1389 m 868 1215 l 694 1215 l 694 1389 l 868 1389 l 868 1215 m 1215 868 l 1215 694 l 868 694 l 868 521 l 1042 521 l 1042 347 l 1215 347 l 1215 174 l 694 174 l 694 347 l 521 347 l 521 521 l 347 521 l 347 174 l 0 174 l 0 1042 l 521 1042 l 521 1215 l 694 1215 l 694 1042 l 1042 1042 l 1042 868 l 1215 868 m 694 868 l 347 868 l 347 694 l 694 694 l 694 868 z "},"Ŗ":{"ha":1389,"x_min":0,"x_max":1215,"o":"m 347 0 l 347 174 l 521 174 l 521 347 l 694 347 l 694 521 l 521 521 l 521 694 l 347 694 l 347 347 l 0 347 l 0 1389 l 1042 1389 l 1042 1215 l 1215 1215 l 1215 868 l 868 868 l 868 694 l 1042 694 l 1042 521 l 1215 521 l 1215 347 l 868 347 l 868 174 l 694 174 l 694 0 l 347 0 m 347 868 l 694 868 l 694 1042 l 868 1042 l 868 1215 l 347 1215 l 347 868 z "},"S":{"ha":1389,"x_min":0,"x_max":1215,"o":"m 174 174 l 174 347 l 0 347 l 0 521 l 347 521 l 347 347 l 868 347 l 868 694 l 174 694 l 174 868 l 0 868 l 0 1215 l 174 1215 l 174 1389 l 1042 1389 l 1042 1215 l 1215 1215 l 1215 1042 l 868 1042 l 868 1215 l 347 1215 l 347 868 l 1042 868 l 1042 694 l 1215 694 l 1215 347 l 1042 347 l 1042 174 l 174 174 z "},"Ś":{"ha":1389,"x_min":0,"x_max":1215,"o":"m 868 1215 l 694 1215 l 694 1389 l 868 1389 l 868 1215 m 1215 521 l 1215 347 l 1042 347 l 1042 174 l 0 174 l 0 347 l 868 347 l 868 521 l 174 521 l 174 694 l 0 694 l 0 868 l 174 868 l 174 1042 l 521 1042 l 521 1215 l 694 1215 l 694 1042 l 1042 1042 l 1042 868 l 347 868 l 347 694 l 1042 694 l 1042 521 l 1215 521 z "},"Š":{"ha":1389,"x_min":0,"x_max":1215,"o":"m 0 174 l 0 347 l 868 347 l 868 521 l 174 521 l 174 694 l 0 694 l 0 868 l 174 868 l 174 1042 l 347 1042 l 347 1215 l 174 1215 l 174 1389 l 521 1389 l 521 1215 l 694 1215 l 694 1389 l 1042 1389 l 1042 1215 l 868 1215 l 868 1042 l 1042 1042 l 1042 868 l 347 868 l 347 694 l 1042 694 l 1042 521 l 1215 521 l 1215 347 l 1042 347 l 1042 174 l 0 174 z "},"Ş":{"ha":1389,"x_min":0,"x_max":1215,"o":"m 1215 868 l 1215 521 l 1042 521 l 1042 347 l 868 347 l 868 174 l 694 174 l 694 347 l 174 347 l 174 521 l 0 521 l 0 694 l 347 694 l 347 521 l 868 521 l 868 868 l 174 868 l 174 1042 l 0 1042 l 0 1215 l 174 1215 l 174 1389 l 1042 1389 l 1042 1215 l 347 1215 l 347 1042 l 1042 1042 l 1042 868 l 1215 868 m 347 174 l 694 174 l 694 0 l 347 0 l 347 174 z "},"Ŝ":{"ha":1389,"x_min":0,"x_max":1215,"o":"m 0 174 l 0 347 l 868 347 l 868 521 l 174 521 l 174 694 l 0 694 l 0 868 l 174 868 l 174 1215 l 347 1215 l 347 1389 l 868 1389 l 868 1215 l 1042 1215 l 1042 868 l 347 868 l 347 694 l 1042 694 l 1042 521 l 1215 521 l 1215 347 l 1042 347 l 1042 174 l 0 174 m 521 1042 l 694 1042 l 694 1215 l 521 1215 l 521 1042 z "},"T":{"ha":1389,"x_min":174,"x_max":1215,"o":"m 521 174 l 521 1215 l 174 1215 l 174 1389 l 1215 1389 l 1215 1215 l 868 1215 l 868 174 l 521 174 z "},"Ŧ":{"ha":1389,"x_min":174,"x_max":1215,"o":"m 521 174 l 521 521 l 347 521 l 347 694 l 521 694 l 521 1215 l 174 1215 l 174 1389 l 1215 1389 l 1215 1215 l 868 1215 l 868 868 l 1042 868 l 1042 694 l 868 694 l 868 174 l 521 174 z "},"Ť":{"ha":1389,"x_min":174,"x_max":1215,"o":"m 521 1389 l 521 1215 l 347 1215 l 347 1389 l 521 1389 m 1042 1215 l 868 1215 l 868 1389 l 1042 1389 l 1042 1215 m 1215 1042 l 1215 868 l 868 868 l 868 174 l 521 174 l 521 868 l 174 868 l 174 1042 l 521 1042 l 521 1215 l 868 1215 l 868 1042 l 1215 1042 z "},"Ț":{"ha":1389,"x_min":174,"x_max":1215,"o":"m 1215 1389 l 1215 1215 l 868 1215 l 868 174 l 694 174 l 694 347 l 521 347 l 521 1215 l 174 1215 l 174 1389 l 1215 1389 m 347 174 l 694 174 l 694 0 l 347 0 l 347 174 z "},"U":{"ha":1389,"x_min":0,"x_max":1215,"o":"m 174 174 l 174 347 l 0 347 l 0 1389 l 347 1389 l 347 347 l 868 347 l 868 1389 l 1215 1389 l 1215 347 l 1042 347 l 1042 174 l 174 174 z "},"Ú":{"ha":1389,"x_min":0,"x_max":1215,"o":"m 868 1215 l 694 1215 l 694 1389 l 868 1389 l 868 1215 m 694 1042 l 521 1042 l 521 1215 l 694 1215 l 694 1042 m 1215 1042 l 1215 347 l 1042 347 l 1042 174 l 174 174 l 174 347 l 0 347 l 0 1042 l 347 1042 l 347 347 l 868 347 l 868 1042 l 1215 1042 z "},"Ŭ":{"ha":1389,"x_min":0,"x_max":1215,"o":"m 347 1389 l 347 1215 l 174 1215 l 174 1389 l 347 1389 m 1042 1215 l 868 1215 l 868 1389 l 1042 1389 l 1042 1215 m 868 1042 l 347 1042 l 347 1215 l 868 1215 l 868 1042 m 1215 1042 l 1215 347 l 1042 347 l 1042 174 l 174 174 l 174 347 l 0 347 l 0 1042 l 347 1042 l 347 347 l 868 347 l 868 1042 l 1215 1042 z "},"Û":{"ha":1389,"x_min":0,"x_max":1215,"o":"m 174 1042 l 174 1215 l 347 1215 l 347 1389 l 868 1389 l 868 1215 l 1042 1215 l 1042 1042 l 694 1042 l 694 1215 l 521 1215 l 521 1042 l 174 1042 m 174 174 l 174 347 l 0 347 l 0 868 l 347 868 l 347 347 l 868 347 l 868 868 l 1215 868 l 1215 347 l 1042 347 l 1042 174 l 174 174 z "},"Ü":{"ha":1389,"x_min":0,"x_max":1215,"o":"m 174 1215 l 174 1389 l 521 1389 l 521 1215 l 174 1215 m 694 1215 l 694 1389 l 1042 1389 l 1042 1215 l 694 1215 m 174 174 l 174 347 l 0 347 l 0 1042 l 347 1042 l 347 347 l 868 347 l 868 1042 l 1215 1042 l 1215 347 l 1042 347 l 1042 174 l 174 174 z "},"Ù":{"ha":1389,"x_min":0,"x_max":1215,"o":"m 521 1215 l 347 1215 l 347 1389 l 521 1389 l 521 1215 m 521 1042 l 521 1215 l 694 1215 l 694 1042 l 521 1042 m 1215 1042 l 1215 347 l 1042 347 l 1042 174 l 174 174 l 174 347 l 0 347 l 0 1042 l 347 1042 l 347 347 l 868 347 l 868 1042 l 1215 1042 z "},"Ű":{"ha":1389,"x_min":0,"x_max":1215,"o":"m 521 1215 l 347 1215 l 347 1389 l 521 1389 l 521 1215 m 1042 1215 l 868 1215 l 868 1389 l 1042 1389 l 1042 1215 m 1215 1042 l 1215 347 l 1042 347 l 1042 174 l 174 174 l 174 347 l 0 347 l 0 1042 l 174 1042 l 174 1215 l 347 1215 l 347 347 l 868 347 l 868 1042 l 1215 1042 m 868 1215 l 868 1042 l 694 1042 l 694 1215 l 868 1215 z "},"Ū":{"ha":1389,"x_min":0,"x_max":1215,"o":"m 174 1215 l 174 1389 l 1042 1389 l 1042 1215 l 174 1215 m 174 174 l 174 347 l 0 347 l 0 1042 l 347 1042 l 347 347 l 868 347 l 868 1042 l 1215 1042 l 1215 347 l 1042 347 l 1042 174 l 174 174 z "},"Ų":{"ha":1389,"x_min":0,"x_max":1215,"o":"m 1215 1389 l 1215 694 l 1042 694 l 1042 521 l 694 521 l 694 347 l 521 347 l 521 521 l 174 521 l 174 694 l 0 694 l 0 1389 l 347 1389 l 347 694 l 868 694 l 868 1389 l 1215 1389 m 347 347 l 521 347 l 521 174 l 347 174 l 347 347 m 521 0 l 521 174 l 868 174 l 868 0 l 521 0 z "},"Ů":{"ha":1389,"x_min":0,"x_max":1215,"o":"m 174 174 l 174 347 l 0 347 l 0 1042 l 174 1042 l 174 1215 l 347 1215 l 347 1389 l 868 1389 l 868 1215 l 1042 1215 l 1042 1042 l 1215 1042 l 1215 347 l 1042 347 l 1042 174 l 174 174 m 521 1042 l 694 1042 l 694 1215 l 521 1215 l 521 1042 m 347 347 l 868 347 l 868 868 l 1042 868 l 1042 1042 l 868 1042 l 868 868 l 347 868 l 347 1042 l 174 1042 l 174 868 l 347 868 l 347 347 z "},"Ũ":{"ha":1389,"x_min":0,"x_max":1215,"o":"m 521 1215 l 347 1215 l 347 1389 l 694 1389 l 694 1215 l 868 1215 l 868 1042 l 521 1042 l 521 1215 m 1042 1215 l 868 1215 l 868 1389 l 1042 1389 l 1042 1215 m 1215 1042 l 1215 347 l 1042 347 l 1042 174 l 174 174 l 174 347 l 0 347 l 0 1042 l 174 1042 l 174 1215 l 347 1215 l 347 347 l 868 347 l 868 1042 l 1215 1042 z "},"V":{"ha":1389,"x_min":0,"x_max":1215,"o":"m 521 174 l 521 347 l 347 347 l 347 521 l 174 521 l 174 694 l 0 694 l 0 1389 l 347 1389 l 347 868 l 521 868 l 521 694 l 694 694 l 694 868 l 868 868 l 868 1389 l 1215 1389 l 1215 694 l 1042 694 l 1042 521 l 868 521 l 868 347 l 694 347 l 694 174 l 521 174 z "},"W":{"ha":1389,"x_min":0,"x_max":1215,"o":"m 174 174 l 174 347 l 0 347 l 0 1389 l 347 1389 l 347 694 l 521 694 l 521 1389 l 694 1389 l 694 694 l 868 694 l 868 1389 l 1215 1389 l 1215 347 l 1042 347 l 1042 174 l 868 174 l 868 347 l 694 347 l 694 521 l 521 521 l 521 347 l 347 347 l 347 174 l 174 174 z "},"Ŵ":{"ha":1389,"x_min":0,"x_max":1215,"o":"m 0 174 l 0 1042 l 174 1042 l 174 1215 l 347 1215 l 347 1389 l 868 1389 l 868 1215 l 1042 1215 l 1042 1042 l 1215 1042 l 1215 174 l 694 174 l 694 347 l 521 347 l 521 174 l 0 174 m 347 694 l 521 694 l 521 868 l 694 868 l 694 694 l 868 694 l 868 1042 l 694 1042 l 694 1215 l 521 1215 l 521 1042 l 347 1042 l 347 694 z "},"X":{"ha":1389,"x_min":0,"x_max":1215,"o":"m 0 174 l 0 521 l 174 521 l 174 694 l 347 694 l 347 868 l 174 868 l 174 1042 l 0 1042 l 0 1389 l 347 1389 l 347 1042 l 521 1042 l 521 868 l 694 868 l 694 1042 l 868 1042 l 868 1389 l 1215 1389 l 1215 1042 l 1042 1042 l 1042 868 l 868 868 l 868 694 l 1042 694 l 1042 521 l 1215 521 l 1215 174 l 868 174 l 868 521 l 694 521 l 694 694 l 521 694 l 521 521 l 347 521 l 347 174 l 0 174 z "},"Y":{"ha":1389,"x_min":174,"x_max":1215,"o":"m 521 174 l 521 694 l 347 694 l 347 868 l 174 868 l 174 1389 l 521 1389 l 521 868 l 868 868 l 868 1389 l 1215 1389 l 1215 868 l 1042 868 l 1042 694 l 868 694 l 868 174 l 521 174 z "},"Ý":{"ha":1389,"x_min":174,"x_max":1215,"o":"m 868 1215 l 694 1215 l 694 1389 l 868 1389 l 868 1215 m 694 1042 l 521 1042 l 521 1215 l 694 1215 l 694 1042 m 1215 1042 l 1215 694 l 1042 694 l 1042 521 l 868 521 l 868 174 l 521 174 l 521 521 l 347 521 l 347 694 l 174 694 l 174 1042 l 521 1042 l 521 694 l 868 694 l 868 1042 l 1215 1042 z "},"Ŷ":{"ha":1389,"x_min":174,"x_max":1215,"o":"m 521 174 l 521 521 l 347 521 l 347 694 l 174 694 l 174 1042 l 347 1042 l 347 1215 l 521 1215 l 521 1389 l 868 1389 l 868 1215 l 1042 1215 l 1042 1042 l 1215 1042 l 1215 694 l 1042 694 l 1042 521 l 868 521 l 868 174 l 521 174 m 521 694 l 868 694 l 868 1215 l 521 1215 l 521 694 z "},"Ÿ":{"ha":1389,"x_min":174,"x_max":1215,"o":"m 174 1215 l 174 1389 l 521 1389 l 521 1215 l 174 1215 m 868 1215 l 868 1389 l 1215 1389 l 1215 1215 l 868 1215 m 521 174 l 521 521 l 347 521 l 347 694 l 174 694 l 174 1042 l 521 1042 l 521 694 l 868 694 l 868 1042 l 1215 1042 l 1215 694 l 1042 694 l 1042 521 l 868 521 l 868 174 l 521 174 z "},"Z":{"ha":1389,"x_min":0,"x_max":1215,"o":"m 0 174 l 0 521 l 174 521 l 174 694 l 347 694 l 347 868 l 521 868 l 521 1042 l 694 1042 l 694 1215 l 0 1215 l 0 1389 l 1215 1389 l 1215 1042 l 1042 1042 l 1042 868 l 868 868 l 868 694 l 694 694 l 694 521 l 521 521 l 521 347 l 1215 347 l 1215 174 l 0 174 z "},"Ź":{"ha":1389,"x_min":0,"x_max":1215,"o":"m 868 1215 l 694 1215 l 694 1389 l 868 1389 l 868 1215 m 1215 1042 l 1215 868 l 1042 868 l 1042 694 l 868 694 l 868 521 l 694 521 l 694 347 l 1215 347 l 1215 174 l 0 174 l 0 347 l 174 347 l 174 521 l 347 521 l 347 694 l 521 694 l 521 868 l 0 868 l 0 1042 l 521 1042 l 521 1215 l 694 1215 l 694 1042 l 1215 1042 z "},"Ž":{"ha":1389,"x_min":0,"x_max":1215,"o":"m 0 174 l 0 347 l 174 347 l 174 521 l 347 521 l 347 694 l 521 694 l 521 868 l 0 868 l 0 1042 l 347 1042 l 347 1215 l 174 1215 l 174 1389 l 521 1389 l 521 1215 l 694 1215 l 694 1389 l 1042 1389 l 1042 1215 l 868 1215 l 868 1042 l 1215 1042 l 1215 868 l 1042 868 l 1042 694 l 868 694 l 868 521 l 694 521 l 694 347 l 1215 347 l 1215 174 l 0 174 z "},"Ż":{"ha":1389,"x_min":0,"x_max":1215,"o":"m 521 1215 l 521 1389 l 868 1389 l 868 1215 l 521 1215 m 0 174 l 0 347 l 174 347 l 174 521 l 347 521 l 347 694 l 521 694 l 521 868 l 0 868 l 0 1042 l 1215 1042 l 1215 868 l 1042 868 l 1042 694 l 868 694 l 868 521 l 694 521 l 694 347 l 1215 347 l 1215 174 l 0 174 z "},"a":{"ha":1389,"x_min":0,"x_max":1215,"o":"m 174 174 l 174 347 l 0 347 l 0 521 l 174 521 l 174 694 l 868 694 l 868 868 l 174 868 l 174 1042 l 1042 1042 l 1042 868 l 1215 868 l 1215 174 l 174 174 m 347 347 l 868 347 l 868 521 l 347 521 l 347 347 z "},"á":{"ha":1389,"x_min":0,"x_max":1215,"o":"m 868 1215 l 694 1215 l 694 1389 l 868 1389 l 868 1215 m 1215 868 l 1215 174 l 174 174 l 174 347 l 0 347 l 0 521 l 174 521 l 174 694 l 868 694 l 868 868 l 174 868 l 174 1042 l 521 1042 l 521 1215 l 694 1215 l 694 1042 l 1042 1042 l 1042 868 l 1215 868 m 868 521 l 347 521 l 347 347 l 868 347 l 868 521 z "},"ă":{"ha":1389,"x_min":0,"x_max":1215,"o":"m 347 1389 l 347 1215 l 174 1215 l 174 1389 l 347 1389 m 1042 1215 l 868 1215 l 868 1389 l 1042 1389 l 1042 1215 m 1215 868 l 1215 174 l 174 174 l 174 347 l 0 347 l 0 521 l 174 521 l 174 694 l 868 694 l 868 868 l 174 868 l 174 1042 l 347 1042 l 347 1215 l 868 1215 l 868 1042 l 1042 1042 l 1042 868 l 1215 868 m 868 521 l 347 521 l 347 347 l 868 347 l 868 521 z "},"â":{"ha":1389,"x_min":0,"x_max":1215,"o":"m 174 174 l 174 347 l 0 347 l 0 521 l 174 521 l 174 694 l 868 694 l 868 868 l 174 868 l 174 1215 l 347 1215 l 347 1389 l 868 1389 l 868 1215 l 1042 1215 l 1042 868 l 1215 868 l 1215 174 l 174 174 m 521 1042 l 694 1042 l 694 1215 l 521 1215 l 521 1042 m 347 347 l 868 347 l 868 521 l 347 521 l 347 347 z "},"ä":{"ha":1389,"x_min":0,"x_max":1215,"o":"m 174 1215 l 174 1389 l 521 1389 l 521 1215 l 174 1215 m 694 1215 l 694 1389 l 1042 1389 l 1042 1215 l 694 1215 m 174 174 l 174 347 l 0 347 l 0 521 l 174 521 l 174 694 l 868 694 l 868 868 l 174 868 l 174 1042 l 1042 1042 l 1042 868 l 1215 868 l 1215 174 l 174 174 m 347 347 l 868 347 l 868 521 l 347 521 l 347 347 z "},"à":{"ha":1389,"x_min":0,"x_max":1215,"o":"m 521 1389 l 521 1215 l 347 1215 l 347 1389 l 521 1389 m 1215 868 l 1215 174 l 174 174 l 174 347 l 0 347 l 0 521 l 174 521 l 174 694 l 868 694 l 868 868 l 174 868 l 174 1042 l 521 1042 l 521 1215 l 694 1215 l 694 1042 l 1042 1042 l 1042 868 l 1215 868 m 868 521 l 347 521 l 347 347 l 868 347 l 868 521 z "},"ā":{"ha":1389,"x_min":0,"x_max":1215,"o":"m 174 1215 l 174 1389 l 1042 1389 l 1042 1215 l 174 1215 m 174 174 l 174 347 l 0 347 l 0 521 l 174 521 l 174 694 l 868 694 l 868 868 l 174 868 l 174 1042 l 1042 1042 l 1042 868 l 1215 868 l 1215 174 l 174 174 m 347 347 l 868 347 l 868 521 l 347 521 l 347 347 z "},"ą":{"ha":1389,"x_min":0,"x_max":1215,"o":"m 1215 1215 l 1215 521 l 694 521 l 694 347 l 521 347 l 521 521 l 174 521 l 174 694 l 0 694 l 0 868 l 174 868 l 174 1042 l 868 1042 l 868 1215 l 174 1215 l 174 1389 l 1042 1389 l 1042 1215 l 1215 1215 m 868 868 l 347 868 l 347 694 l 868 694 l 868 868 m 347 347 l 521 347 l 521 174 l 347 174 l 347 347 m 521 0 l 521 174 l 868 174 l 868 0 l 521 0 z "},"å":{"ha":1389,"x_min":0,"x_max":1215,"o":"m 174 174 l 174 347 l 0 347 l 0 521 l 174 521 l 174 694 l 868 694 l 868 868 l 174 868 l 174 1042 l 347 1042 l 347 1215 l 521 1215 l 521 1389 l 694 1389 l 694 1215 l 868 1215 l 868 1042 l 1042 1042 l 1042 868 l 1215 868 l 1215 174 l 174 174 m 521 1042 l 694 1042 l 694 1215 l 521 1215 l 521 1042 m 347 347 l 868 347 l 868 521 l 347 521 l 347 347 z "},"ã":{"ha":1389,"x_min":0,"x_max":1215,"o":"m 174 174 l 174 347 l 0 347 l 0 521 l 174 521 l 174 694 l 868 694 l 868 868 l 174 868 l 174 1215 l 347 1215 l 347 1389 l 694 1389 l 694 1215 l 868 1215 l 868 1389 l 1042 1389 l 1042 1215 l 868 1215 l 868 1042 l 1042 1042 l 1042 868 l 1215 868 l 1215 174 l 174 174 m 347 1042 l 521 1042 l 521 1215 l 347 1215 l 347 1042 m 347 347 l 868 347 l 868 521 l 347 521 l 347 347 z "},"æ":{"ha":1389,"x_min":0,"x_max":1215,"o":"m 174 174 l 174 347 l 0 347 l 0 521 l 174 521 l 174 694 l 521 694 l 521 868 l 174 868 l 174 1042 l 1042 1042 l 1042 868 l 1215 868 l 1215 521 l 694 521 l 694 347 l 1042 347 l 1042 174 l 174 174 m 694 694 l 868 694 l 868 868 l 694 868 l 694 694 m 347 347 l 521 347 l 521 521 l 347 521 l 347 347 z "},"b":{"ha":1389,"x_min":0,"x_max":1215,"o":"m 174 174 l 174 347 l 0 347 l 0 1389 l 347 1389 l 347 1042 l 1042 1042 l 1042 868 l 1215 868 l 1215 347 l 1042 347 l 1042 174 l 174 174 m 347 347 l 868 347 l 868 868 l 347 868 l 347 347 z "},"c":{"ha":1389,"x_min":0,"x_max":1215,"o":"m 174 174 l 174 347 l 0 347 l 0 868 l 174 868 l 174 1042 l 1215 1042 l 1215 868 l 347 868 l 347 347 l 1215 347 l 1215 174 l 174 174 z "},"ć":{"ha":1389,"x_min":0,"x_max":1215,"o":"m 868 1215 l 694 1215 l 694 1389 l 868 1389 l 868 1215 m 1215 1042 l 1215 868 l 347 868 l 347 347 l 1215 347 l 1215 174 l 174 174 l 174 347 l 0 347 l 0 868 l 174 868 l 174 1042 l 521 1042 l 521 1215 l 694 1215 l 694 1042 l 1215 1042 z "},"č":{"ha":1389,"x_min":0,"x_max":1215,"o":"m 174 174 l 174 347 l 0 347 l 0 868 l 174 868 l 174 1042 l 347 1042 l 347 1215 l 174 1215 l 174 1389 l 521 1389 l 521 1215 l 694 1215 l 694 1389 l 1042 1389 l 1042 1215 l 868 1215 l 868 1042 l 1215 1042 l 1215 868 l 347 868 l 347 347 l 1215 347 l 1215 174 l 174 174 z "},"ç":{"ha":1389,"x_min":0,"x_max":1215,"o":"m 1215 1042 l 1215 868 l 347 868 l 347 521 l 1215 521 l 1215 347 l 868 347 l 868 174 l 694 174 l 694 347 l 174 347 l 174 521 l 0 521 l 0 868 l 174 868 l 174 1042 l 1215 1042 m 347 174 l 694 174 l 694 0 l 347 0 l 347 174 z "},"ĉ":{"ha":1389,"x_min":0,"x_max":1215,"o":"m 174 174 l 174 347 l 0 347 l 0 868 l 174 868 l 174 1215 l 347 1215 l 347 1389 l 868 1389 l 868 1215 l 1042 1215 l 1042 1042 l 1215 1042 l 1215 868 l 347 868 l 347 347 l 1215 347 l 1215 174 l 174 174 m 521 1042 l 694 1042 l 694 1215 l 521 1215 l 521 1042 z "},"ċ":{"ha":1389,"x_min":0,"x_max":1215,"o":"m 521 1215 l 521 1389 l 868 1389 l 868 1215 l 521 1215 m 174 174 l 174 347 l 0 347 l 0 868 l 174 868 l 174 1042 l 1215 1042 l 1215 868 l 347 868 l 347 347 l 1215 347 l 1215 174 l 174 174 z "},"d":{"ha":1389,"x_min":0,"x_max":1215,"o":"m 174 174 l 174 347 l 0 347 l 0 868 l 174 868 l 174 1042 l 868 1042 l 868 1389 l 1215 1389 l 1215 174 l 174 174 m 347 347 l 868 347 l 868 868 l 347 868 l 347 347 z "},"ð":{"ha":1389,"x_min":0,"x_max":1215,"o":"m 1215 694 l 1215 347 l 1042 347 l 1042 174 l 174 174 l 174 347 l 0 347 l 0 694 l 174 694 l 174 868 l 521 868 l 521 1042 l 174 1042 l 174 1389 l 521 1389 l 521 1215 l 868 1215 l 868 868 l 1042 868 l 1042 694 l 1215 694 m 1042 1215 l 868 1215 l 868 1389 l 1042 1389 l 1042 1215 m 174 1042 l 174 868 l 0 868 l 0 1042 l 174 1042 m 868 694 l 347 694 l 347 347 l 868 347 l 868 694 z "},"ď":{"ha":1389,"x_min":0,"x_max":1389,"o":"m 174 174 l 174 347 l 0 347 l 0 868 l 174 868 l 174 1042 l 521 1042 l 521 1389 l 868 1389 l 868 174 l 174 174 m 1042 868 l 1042 1389 l 1389 1389 l 1389 1042 l 1215 1042 l 1215 868 l 1042 868 m 347 347 l 521 347 l 521 868 l 347 868 l 347 347 z "},"đ":{"ha":1389,"x_min":0,"x_max":1215,"o":"m 174 174 l 174 347 l 0 347 l 0 868 l 174 868 l 174 1042 l 521 1042 l 521 1215 l 694 1215 l 694 1389 l 1042 1389 l 1042 1215 l 1215 1215 l 1215 1042 l 1042 1042 l 1042 174 l 174 174 m 347 347 l 694 347 l 694 868 l 347 868 l 347 347 z "},"e":{"ha":1389,"x_min":0,"x_max":1215,"o":"m 174 174 l 174 347 l 0 347 l 0 868 l 174 868 l 174 1042 l 1042 1042 l 1042 868 l 1215 868 l 1215 521 l 347 521 l 347 347 l 1042 347 l 1042 174 l 174 174 m 347 694 l 868 694 l 868 868 l 347 868 l 347 694 z "},"é":{"ha":1389,"x_min":0,"x_max":1215,"o":"m 868 1215 l 694 1215 l 694 1389 l 868 1389 l 868 1215 m 1215 868 l 1215 521 l 347 521 l 347 347 l 1042 347 l 1042 174 l 174 174 l 174 347 l 0 347 l 0 868 l 174 868 l 174 1042 l 521 1042 l 521 1215 l 694 1215 l 694 1042 l 1042 1042 l 1042 868 l 1215 868 m 868 868 l 347 868 l 347 694 l 868 694 l 868 868 z "},"ĕ":{"ha":1389,"x_min":0,"x_max":1215,"o":"m 347 1389 l 347 1215 l 174 1215 l 174 1389 l 347 1389 m 1042 1215 l 868 1215 l 868 1389 l 1042 1389 l 1042 1215 m 1215 868 l 1215 521 l 347 521 l 347 347 l 1042 347 l 1042 174 l 174 174 l 174 347 l 0 347 l 0 868 l 174 868 l 174 1042 l 347 1042 l 347 1215 l 868 1215 l 868 1042 l 1042 1042 l 1042 868 l 1215 868 m 868 868 l 347 868 l 347 694 l 868 694 l 868 868 z "},"ě":{"ha":1389,"x_min":0,"x_max":1215,"o":"m 174 174 l 174 347 l 0 347 l 0 868 l 174 868 l 174 1042 l 347 1042 l 347 1215 l 174 1215 l 174 1389 l 521 1389 l 521 1215 l 694 1215 l 694 1389 l 1042 1389 l 1042 1215 l 868 1215 l 868 1042 l 1042 1042 l 1042 868 l 1215 868 l 1215 521 l 347 521 l 347 347 l 1042 347 l 1042 174 l 174 174 m 347 694 l 868 694 l 868 868 l 347 868 l 347 694 z "},"ê":{"ha":1389,"x_min":0,"x_max":1215,"o":"m 174 174 l 174 347 l 0 347 l 0 868 l 174 868 l 174 1215 l 347 1215 l 347 1389 l 868 1389 l 868 1215 l 1042 1215 l 1042 868 l 1215 868 l 1215 521 l 347 521 l 347 347 l 1042 347 l 1042 174 l 174 174 m 521 1042 l 694 1042 l 694 1215 l 521 1215 l 521 1042 m 347 694 l 868 694 l 868 868 l 347 868 l 347 694 z "},"ë":{"ha":1389,"x_min":0,"x_max":1215,"o":"m 174 1215 l 174 1389 l 521 1389 l 521 1215 l 174 1215 m 694 1215 l 694 1389 l 1042 1389 l 1042 1215 l 694 1215 m 174 174 l 174 347 l 0 347 l 0 868 l 174 868 l 174 1042 l 1042 1042 l 1042 868 l 1215 868 l 1215 521 l 347 521 l 347 347 l 1042 347 l 1042 174 l 174 174 m 347 694 l 868 694 l 868 868 l 347 868 l 347 694 z "},"ė":{"ha":1389,"x_min":0,"x_max":1215,"o":"m 521 1215 l 521 1389 l 868 1389 l 868 1215 l 521 1215 m 174 174 l 174 347 l 0 347 l 0 868 l 174 868 l 174 1042 l 1042 1042 l 1042 868 l 1215 868 l 1215 521 l 347 521 l 347 347 l 1042 347 l 1042 174 l 174 174 m 347 694 l 868 694 l 868 868 l 347 868 l 347 694 z "},"è":{"ha":1389,"x_min":0,"x_max":1215,"o":"m 521 1389 l 521 1215 l 347 1215 l 347 1389 l 521 1389 m 1215 868 l 1215 521 l 347 521 l 347 347 l 1042 347 l 1042 174 l 174 174 l 174 347 l 0 347 l 0 868 l 174 868 l 174 1042 l 521 1042 l 521 1215 l 694 1215 l 694 1042 l 1042 1042 l 1042 868 l 1215 868 m 868 868 l 347 868 l 347 694 l 868 694 l 868 868 z "},"ē":{"ha":1389,"x_min":0,"x_max":1215,"o":"m 174 1215 l 174 1389 l 1042 1389 l 1042 1215 l 174 1215 m 174 174 l 174 347 l 0 347 l 0 868 l 174 868 l 174 1042 l 1042 1042 l 1042 868 l 1215 868 l 1215 521 l 347 521 l 347 347 l 1042 347 l 1042 174 l 174 174 m 347 694 l 868 694 l 868 868 l 347 868 l 347 694 z "},"ę":{"ha":1389,"x_min":0,"x_max":1215,"o":"m 1215 1215 l 1215 868 l 347 868 l 347 694 l 1042 694 l 1042 521 l 694 521 l 694 347 l 521 347 l 521 521 l 174 521 l 174 694 l 0 694 l 0 1215 l 174 1215 l 174 1389 l 1042 1389 l 1042 1215 l 1215 1215 m 868 1215 l 347 1215 l 347 1042 l 868 1042 l 868 1215 m 347 347 l 521 347 l 521 174 l 347 174 l 347 347 m 521 0 l 521 174 l 868 174 l 868 0 l 521 0 z "},"f":{"ha":1389,"x_min":174,"x_max":1215,"o":"m 521 174 l 521 868 l 174 868 l 174 1042 l 521 1042 l 521 1215 l 694 1215 l 694 1389 l 1215 1389 l 1215 1215 l 868 1215 l 868 1042 l 1215 1042 l 1215 868 l 868 868 l 868 174 l 521 174 z "},"g":{"ha":1389,"x_min":0,"x_max":1215,"o":"m 174 0 l 174 174 l 868 174 l 868 347 l 174 347 l 174 521 l 0 521 l 0 868 l 174 868 l 174 1042 l 1215 1042 l 1215 174 l 1042 174 l 1042 0 l 174 0 m 347 521 l 868 521 l 868 868 l 347 868 l 347 521 z "},"ğ":{"ha":1389,"x_min":0,"x_max":1215,"o":"m 347 1389 l 347 1215 l 174 1215 l 174 1389 l 347 1389 m 1042 1215 l 868 1215 l 868 1389 l 1042 1389 l 1042 1215 m 1215 1042 l 1215 174 l 1042 174 l 1042 0 l 174 0 l 174 174 l 868 174 l 868 347 l 174 347 l 174 521 l 0 521 l 0 868 l 174 868 l 174 1042 l 347 1042 l 347 1215 l 868 1215 l 868 1042 l 1215 1042 m 868 868 l 347 868 l 347 521 l 868 521 l 868 868 z "},"ĝ":{"ha":1389,"x_min":0,"x_max":1215,"o":"m 174 0 l 174 174 l 868 174 l 868 347 l 174 347 l 174 521 l 0 521 l 0 868 l 174 868 l 174 1215 l 347 1215 l 347 1389 l 868 1389 l 868 1215 l 1042 1215 l 1042 1042 l 1215 1042 l 1215 174 l 1042 174 l 1042 0 l 174 0 m 521 1042 l 694 1042 l 694 1215 l 521 1215 l 521 1042 m 347 521 l 868 521 l 868 868 l 347 868 l 347 521 z "},"ģ":{"ha":1389,"x_min":0,"x_max":1215,"o":"m 174 0 l 174 174 l 868 174 l 868 347 l 174 347 l 174 521 l 0 521 l 0 868 l 174 868 l 174 1042 l 347 1042 l 347 1215 l 521 1215 l 521 1389 l 868 1389 l 868 1215 l 694 1215 l 694 1042 l 1215 1042 l 1215 174 l 1042 174 l 1042 0 l 174 0 m 347 521 l 868 521 l 868 868 l 347 868 l 347 521 z "},"ġ":{"ha":1389,"x_min":0,"x_max":1215,"o":"m 521 1215 l 521 1389 l 868 1389 l 868 1215 l 521 1215 m 174 0 l 174 174 l 868 174 l 868 347 l 174 347 l 174 521 l 0 521 l 0 868 l 174 868 l 174 1042 l 1215 1042 l 1215 174 l 1042 174 l 1042 0 l 174 0 m 347 521 l 868 521 l 868 868 l 347 868 l 347 521 z "},"h":{"ha":1389,"x_min":0,"x_max":1215,"o":"m 0 174 l 0 1389 l 347 1389 l 347 1042 l 1042 1042 l 1042 868 l 1215 868 l 1215 174 l 868 174 l 868 868 l 347 868 l 347 174 l 0 174 z "},"ħ":{"ha":1389,"x_min":0,"x_max":1215,"o":"m 174 174 l 174 1042 l 0 1042 l 0 1215 l 174 1215 l 174 1389 l 521 1389 l 521 1215 l 868 1215 l 868 1042 l 521 1042 l 521 868 l 1042 868 l 1042 694 l 1215 694 l 1215 174 l 868 174 l 868 694 l 521 694 l 521 174 l 174 174 z "},"ĥ":{"ha":1389,"x_min":0,"x_max":1215,"o":"m 0 174 l 0 1215 l 347 1215 l 347 1389 l 868 1389 l 868 1215 l 1042 1215 l 1042 1042 l 694 1042 l 694 1215 l 521 1215 l 521 1042 l 347 1042 l 347 868 l 1042 868 l 1042 694 l 1215 694 l 1215 174 l 868 174 l 868 694 l 347 694 l 347 174 l 0 174 z "},"i":{"ha":1389,"x_min":174,"x_max":1215,"o":"m 521 1215 l 521 1389 l 868 1389 l 868 1215 l 521 1215 m 174 174 l 174 347 l 521 347 l 521 868 l 347 868 l 347 1042 l 868 1042 l 868 347 l 1215 347 l 1215 174 l 174 174 z "},"ı":{"ha":1389,"x_min":174,"x_max":1215,"o":"m 174 174 l 174 347 l 521 347 l 521 868 l 347 868 l 347 1042 l 868 1042 l 868 347 l 1215 347 l 1215 174 l 174 174 z "},"í":{"ha":1389,"x_min":174,"x_max":1215,"o":"m 868 1215 l 694 1215 l 694 1389 l 868 1389 l 868 1215 m 694 1042 l 521 1042 l 521 1215 l 694 1215 l 694 1042 m 1215 347 l 1215 174 l 174 174 l 174 347 l 521 347 l 521 694 l 347 694 l 347 868 l 868 868 l 868 347 l 1215 347 z "},"ĭ":{"ha":1389,"x_min":174,"x_max":1215,"o":"m 347 1215 l 174 1215 l 174 1389 l 347 1389 l 347 1215 m 1042 1215 l 868 1215 l 868 1389 l 1042 1389 l 1042 1215 m 347 1042 l 347 1215 l 868 1215 l 868 1042 l 347 1042 m 1215 347 l 1215 174 l 174 174 l 174 347 l 521 347 l 521 694 l 347 694 l 347 868 l 868 868 l 868 347 l 1215 347 z "},"î":{"ha":1389,"x_min":174,"x_max":1215,"o":"m 174 1042 l 174 1215 l 347 1215 l 347 1389 l 868 1389 l 868 1215 l 1042 1215 l 1042 1042 l 694 1042 l 694 1215 l 521 1215 l 521 1042 l 174 1042 m 174 174 l 174 347 l 521 347 l 521 694 l 347 694 l 347 868 l 868 868 l 868 347 l 1215 347 l 1215 174 l 174 174 z "},"ï":{"ha":1389,"x_min":174,"x_max":1215,"o":"m 174 1215 l 174 1389 l 521 1389 l 521 1215 l 174 1215 m 694 1215 l 694 1389 l 1042 1389 l 1042 1215 l 694 1215 m 174 174 l 174 347 l 521 347 l 521 868 l 347 868 l 347 1042 l 868 1042 l 868 347 l 1215 347 l 1215 174 l 174 174 z "},"ì":{"ha":1389,"x_min":174,"x_max":1215,"o":"m 521 1215 l 347 1215 l 347 1389 l 521 1389 l 521 1215 m 521 1042 l 521 1215 l 694 1215 l 694 1042 l 521 1042 m 1215 347 l 1215 174 l 174 174 l 174 347 l 521 347 l 521 694 l 347 694 l 347 868 l 868 868 l 868 347 l 1215 347 z "},"ĳ":{"ha":1389,"x_min":0,"x_max":1215,"o":"m 174 1215 l 174 1389 l 521 1389 l 521 1215 l 174 1215 m 868 1215 l 868 1389 l 1215 1389 l 1215 1215 l 868 1215 m 174 347 l 174 868 l 0 868 l 0 1042 l 521 1042 l 521 347 l 174 347 m 347 0 l 347 174 l 868 174 l 868 868 l 694 868 l 694 1042 l 1215 1042 l 1215 174 l 1042 174 l 1042 0 l 347 0 z "},"ī":{"ha":1389,"x_min":174,"x_max":1215,"o":"m 174 1215 l 174 1389 l 1042 1389 l 1042 1215 l 174 1215 m 174 174 l 174 347 l 521 347 l 521 868 l 347 868 l 347 1042 l 868 1042 l 868 347 l 1215 347 l 1215 174 l 174 174 z "},"į":{"ha":1389,"x_min":174,"x_max":1215,"o":"m 868 1215 l 521 1215 l 521 1389 l 868 1389 l 868 1215 m 1215 694 l 1215 521 l 694 521 l 694 347 l 521 347 l 521 521 l 174 521 l 174 694 l 521 694 l 521 868 l 347 868 l 347 1042 l 868 1042 l 868 694 l 1215 694 m 347 347 l 521 347 l 521 174 l 347 174 l 347 347 m 521 0 l 521 174 l 868 174 l 868 0 l 521 0 z "},"ĩ":{"ha":1389,"x_min":174,"x_max":1215,"o":"m 694 1389 l 694 1215 l 347 1215 l 347 1389 l 694 1389 m 1215 1389 l 1215 1215 l 1042 1215 l 1042 1389 l 1215 1389 m 174 1215 l 347 1215 l 347 1042 l 174 1042 l 174 1215 m 694 1215 l 1042 1215 l 1042 1042 l 694 1042 l 694 1215 m 868 347 l 1215 347 l 1215 174 l 174 174 l 174 347 l 521 347 l 521 694 l 347 694 l 347 868 l 868 868 l 868 347 z "},"j":{"ha":1389,"x_min":174,"x_max":1042,"o":"m 694 1215 l 694 1389 l 1042 1389 l 1042 1215 l 694 1215 m 174 0 l 174 174 l 694 174 l 694 868 l 521 868 l 521 1042 l 1042 1042 l 1042 174 l 868 174 l 868 0 l 174 0 z "},"ĵ":{"ha":1389,"x_min":174,"x_max":1215,"o":"m 347 1042 l 347 1215 l 521 1215 l 521 1389 l 1042 1389 l 1042 1215 l 1215 1215 l 1215 1042 l 868 1042 l 868 1215 l 694 1215 l 694 1042 l 347 1042 m 174 0 l 174 174 l 694 174 l 694 694 l 521 694 l 521 868 l 1042 868 l 1042 174 l 868 174 l 868 0 l 174 0 z "},"k":{"ha":1389,"x_min":0,"x_max":1215,"o":"m 0 174 l 0 1389 l 347 1389 l 347 694 l 694 694 l 694 868 l 868 868 l 868 1042 l 1215 1042 l 1215 868 l 1042 868 l 1042 694 l 868 694 l 868 521 l 1042 521 l 1042 347 l 1215 347 l 1215 174 l 868 174 l 868 347 l 694 347 l 694 521 l 347 521 l 347 174 l 0 174 z "},"ķ":{"ha":1389,"x_min":0,"x_max":1215,"o":"m 0 347 l 0 1389 l 347 1389 l 347 868 l 694 868 l 694 1042 l 868 1042 l 868 1215 l 1215 1215 l 1215 1042 l 1042 1042 l 1042 868 l 868 868 l 868 694 l 1042 694 l 1042 521 l 1215 521 l 1215 347 l 868 347 l 868 521 l 694 521 l 694 694 l 347 694 l 347 347 l 0 347 m 174 0 l 174 174 l 347 174 l 347 347 l 694 347 l 694 174 l 521 174 l 521 0 l 174 0 z "},"ĸ":{"ha":1389,"x_min":0,"x_max":1215,"o":"m 0 174 l 0 1042 l 347 1042 l 347 694 l 694 694 l 694 868 l 868 868 l 868 1042 l 1215 1042 l 1215 868 l 1042 868 l 1042 694 l 868 694 l 868 521 l 1042 521 l 1042 347 l 1215 347 l 1215 174 l 868 174 l 868 347 l 694 347 l 694 521 l 347 521 l 347 174 l 0 174 z "},"l":{"ha":1389,"x_min":174,"x_max":1215,"o":"m 174 174 l 174 347 l 521 347 l 521 1215 l 347 1215 l 347 1389 l 868 1389 l 868 347 l 1215 347 l 1215 174 l 174 174 z "},"ĺ":{"ha":1389,"x_min":0,"x_max":1042,"o":"m 694 1215 l 521 1215 l 521 1389 l 694 1389 l 694 1215 m 1042 347 l 1042 174 l 0 174 l 0 347 l 347 347 l 347 868 l 174 868 l 174 1042 l 347 1042 l 347 1215 l 521 1215 l 521 1042 l 694 1042 l 694 347 l 1042 347 z "},"ľ":{"ha":1389,"x_min":0,"x_max":1215,"o":"m 0 174 l 0 347 l 347 347 l 347 1215 l 174 1215 l 174 1389 l 694 1389 l 694 347 l 1042 347 l 1042 174 l 0 174 m 868 868 l 868 1389 l 1215 1389 l 1215 1042 l 1042 1042 l 1042 868 l 868 868 z "},"ļ":{"ha":1389,"x_min":174,"x_max":1215,"o":"m 347 0 l 347 174 l 521 174 l 521 347 l 174 347 l 174 521 l 521 521 l 521 1215 l 347 1215 l 347 1389 l 868 1389 l 868 521 l 1215 521 l 1215 347 l 868 347 l 868 174 l 694 174 l 694 0 l 347 0 z "},"ŀ":{"ha":1389,"x_min":0,"x_max":1215,"o":"m 0 174 l 0 347 l 347 347 l 347 1215 l 174 1215 l 174 1389 l 694 1389 l 694 347 l 1042 347 l 1042 174 l 0 174 m 868 694 l 868 1042 l 1215 1042 l 1215 694 l 868 694 z "},"ł":{"ha":1389,"x_min":174,"x_max":1215,"o":"m 174 174 l 174 347 l 521 347 l 521 694 l 347 694 l 347 868 l 521 868 l 521 1215 l 347 1215 l 347 1389 l 868 1389 l 868 1042 l 1042 1042 l 1042 868 l 868 868 l 868 347 l 1215 347 l 1215 174 l 174 174 z "},"m":{"ha":1389,"x_min":0,"x_max":1215,"o":"m 0 174 l 0 1042 l 1042 1042 l 1042 868 l 1215 868 l 1215 174 l 868 174 l 868 868 l 694 868 l 694 174 l 347 174 l 347 868 l 174 868 l 174 174 l 0 174 z "},"n":{"ha":1389,"x_min":0,"x_max":1215,"o":"m 0 174 l 0 1042 l 1042 1042 l 1042 868 l 1215 868 l 1215 174 l 868 174 l 868 868 l 347 868 l 347 174 l 0 174 z "},"ń":{"ha":1389,"x_min":0,"x_max":1215,"o":"m 868 1215 l 694 1215 l 694 1389 l 868 1389 l 868 1215 m 1215 868 l 1215 174 l 868 174 l 868 868 l 347 868 l 347 174 l 0 174 l 0 1042 l 521 1042 l 521 1215 l 694 1215 l 694 1042 l 1042 1042 l 1042 868 l 1215 868 z "},"ň":{"ha":1389,"x_min":0,"x_max":1215,"o":"m 0 174 l 0 1042 l 347 1042 l 347 1215 l 174 1215 l 174 1389 l 521 1389 l 521 1215 l 694 1215 l 694 1389 l 1042 1389 l 1042 1215 l 868 1215 l 868 1042 l 1042 1042 l 1042 868 l 1215 868 l 1215 174 l 868 174 l 868 868 l 347 868 l 347 174 l 0 174 z "},"ņ":{"ha":1389,"x_min":0,"x_max":1215,"o":"m 1215 1042 l 1215 347 l 868 347 l 868 1042 l 347 1042 l 347 347 l 0 347 l 0 1215 l 1042 1215 l 1042 1042 l 1215 1042 m 521 347 l 868 347 l 868 174 l 694 174 l 694 0 l 347 0 l 347 174 l 521 174 l 521 347 z "},"ŋ":{"ha":1389,"x_min":0,"x_max":1215,"o":"m 347 0 l 347 174 l 868 174 l 868 1042 l 347 1042 l 347 347 l 0 347 l 0 1215 l 1042 1215 l 1042 1042 l 1215 1042 l 1215 174 l 1042 174 l 1042 0 l 347 0 z "},"ñ":{"ha":1389,"x_min":0,"x_max":1215,"o":"m 0 174 l 0 1042 l 174 1042 l 174 1215 l 347 1215 l 347 1389 l 694 1389 l 694 1215 l 868 1215 l 868 1389 l 1042 1389 l 1042 1215 l 868 1215 l 868 1042 l 1042 1042 l 1042 868 l 1215 868 l 1215 174 l 868 174 l 868 868 l 347 868 l 347 174 l 0 174 m 347 1042 l 521 1042 l 521 1215 l 347 1215 l 347 1042 z "},"o":{"ha":1389,"x_min":0,"x_max":1215,"o":"m 174 174 l 174 347 l 0 347 l 0 868 l 174 868 l 174 1042 l 1042 1042 l 1042 868 l 1215 868 l 1215 347 l 1042 347 l 1042 174 l 174 174 m 347 347 l 868 347 l 868 868 l 347 868 l 347 347 z "},"ó":{"ha":1389,"x_min":0,"x_max":1215,"o":"m 868 1215 l 694 1215 l 694 1389 l 868 1389 l 868 1215 m 1215 868 l 1215 347 l 1042 347 l 1042 174 l 174 174 l 174 347 l 0 347 l 0 868 l 174 868 l 174 1042 l 521 1042 l 521 1215 l 694 1215 l 694 1042 l 1042 1042 l 1042 868 l 1215 868 m 868 868 l 347 868 l 347 347 l 868 347 l 868 868 z "},"ŏ":{"ha":1389,"x_min":0,"x_max":1215,"o":"m 347 1389 l 347 1215 l 174 1215 l 174 1389 l 347 1389 m 1042 1215 l 868 1215 l 868 1389 l 1042 1389 l 1042 1215 m 1215 868 l 1215 347 l 1042 347 l 1042 174 l 174 174 l 174 347 l 0 347 l 0 868 l 174 868 l 174 1042 l 347 1042 l 347 1215 l 868 1215 l 868 1042 l 1042 1042 l 1042 868 l 1215 868 m 868 868 l 347 868 l 347 347 l 868 347 l 868 868 z "},"ô":{"ha":1389,"x_min":0,"x_max":1215,"o":"m 174 174 l 174 347 l 0 347 l 0 868 l 174 868 l 174 1215 l 347 1215 l 347 1389 l 868 1389 l 868 1215 l 1042 1215 l 1042 868 l 1215 868 l 1215 347 l 1042 347 l 1042 174 l 174 174 m 521 1042 l 694 1042 l 694 1215 l 521 1215 l 521 1042 m 347 347 l 868 347 l 868 868 l 347 868 l 347 347 z "},"ö":{"ha":1389,"x_min":0,"x_max":1215,"o":"m 174 1215 l 174 1389 l 521 1389 l 521 1215 l 174 1215 m 694 1215 l 694 1389 l 1042 1389 l 1042 1215 l 694 1215 m 174 174 l 174 347 l 0 347 l 0 868 l 174 868 l 174 1042 l 1042 1042 l 1042 868 l 1215 868 l 1215 347 l 1042 347 l 1042 174 l 174 174 m 347 347 l 868 347 l 868 868 l 347 868 l 347 347 z "},"ò":{"ha":1389,"x_min":0,"x_max":1215,"o":"m 521 1389 l 521 1215 l 347 1215 l 347 1389 l 521 1389 m 1215 868 l 1215 347 l 1042 347 l 1042 174 l 174 174 l 174 347 l 0 347 l 0 868 l 174 868 l 174 1042 l 521 1042 l 521 1215 l 694 1215 l 694 1042 l 1042 1042 l 1042 868 l 1215 868 m 868 868 l 347 868 l 347 347 l 868 347 l 868 868 z "},"ő":{"ha":1389,"x_min":0,"x_max":1215,"o":"m 521 1215 l 347 1215 l 347 1389 l 521 1389 l 521 1215 m 1042 1215 l 868 1215 l 868 1389 l 1042 1389 l 1042 1215 m 1215 868 l 1215 347 l 1042 347 l 1042 174 l 174 174 l 174 347 l 0 347 l 0 868 l 174 868 l 174 1215 l 347 1215 l 347 1042 l 694 1042 l 694 1215 l 868 1215 l 868 1042 l 1042 1042 l 1042 868 l 1215 868 m 868 868 l 347 868 l 347 347 l 868 347 l 868 868 z "},"ō":{"ha":1389,"x_min":0,"x_max":1215,"o":"m 174 1215 l 174 1389 l 1042 1389 l 1042 1215 l 174 1215 m 174 174 l 174 347 l 0 347 l 0 868 l 174 868 l 174 1042 l 1042 1042 l 1042 868 l 1215 868 l 1215 347 l 1042 347 l 1042 174 l 174 174 m 347 347 l 868 347 l 868 868 l 347 868 l 347 347 z "},"ø":{"ha":1389,"x_min":0,"x_max":1215,"o":"m 174 174 l 174 347 l 0 347 l 0 868 l 174 868 l 174 1042 l 1042 1042 l 1042 868 l 1215 868 l 1215 347 l 1042 347 l 1042 174 l 174 174 m 521 347 l 868 347 l 868 694 l 694 694 l 694 868 l 347 868 l 347 521 l 521 521 l 521 347 m 521 521 l 521 694 l 694 694 l 694 521 l 521 521 z "},"õ":{"ha":1389,"x_min":0,"x_max":1215,"o":"m 174 174 l 174 347 l 0 347 l 0 868 l 174 868 l 174 1215 l 347 1215 l 347 1389 l 694 1389 l 694 1215 l 868 1215 l 868 1389 l 1042 1389 l 1042 1215 l 868 1215 l 868 1042 l 1042 1042 l 1042 868 l 1215 868 l 1215 347 l 1042 347 l 1042 174 l 174 174 m 347 1042 l 521 1042 l 521 1215 l 347 1215 l 347 1042 m 347 347 l 868 347 l 868 868 l 347 868 l 347 347 z "},"œ":{"ha":1389,"x_min":0,"x_max":1215,"o":"m 174 174 l 174 347 l 0 347 l 0 868 l 174 868 l 174 1042 l 1042 1042 l 1042 868 l 1215 868 l 1215 521 l 694 521 l 694 347 l 1042 347 l 1042 174 l 174 174 m 347 347 l 521 347 l 521 868 l 347 868 l 347 347 m 694 694 l 868 694 l 868 868 l 694 868 l 694 694 z "},"p":{"ha":1389,"x_min":0,"x_max":1215,"o":"m 0 0 l 0 1042 l 1042 1042 l 1042 868 l 1215 868 l 1215 521 l 1042 521 l 1042 347 l 347 347 l 347 0 l 0 0 m 347 521 l 868 521 l 868 868 l 347 868 l 347 521 z "},"þ":{"ha":1389,"x_min":0,"x_max":1215,"o":"m 0 0 l 0 1389 l 347 1389 l 347 1042 l 1042 1042 l 1042 868 l 1215 868 l 1215 521 l 1042 521 l 1042 347 l 347 347 l 347 0 l 0 0 m 347 521 l 868 521 l 868 868 l 347 868 l 347 521 z "},"q":{"ha":1389,"x_min":0,"x_max":1215,"o":"m 868 0 l 868 347 l 174 347 l 174 521 l 0 521 l 0 868 l 174 868 l 174 1042 l 1215 1042 l 1215 0 l 868 0 m 347 521 l 868 521 l 868 868 l 347 868 l 347 521 z "},"r":{"ha":1389,"x_min":174,"x_max":1215,"o":"m 521 868 l 694 868 l 694 694 l 521 694 l 521 174 l 174 174 l 174 1042 l 521 1042 l 521 868 m 1215 1042 l 1215 868 l 694 868 l 694 1042 l 1215 1042 z "},"ŕ":{"ha":1389,"x_min":174,"x_max":1215,"o":"m 868 1215 l 694 1215 l 694 1389 l 868 1389 l 868 1215 m 694 1042 l 521 1042 l 521 1215 l 694 1215 l 694 1042 m 521 868 l 694 868 l 694 694 l 521 694 l 521 174 l 174 174 l 174 1042 l 521 1042 l 521 868 m 1215 1042 l 1215 868 l 694 868 l 694 1042 l 1215 1042 z "},"ř":{"ha":1389,"x_min":174,"x_max":1215,"o":"m 174 174 l 174 1042 l 521 1042 l 521 1215 l 347 1215 l 347 1389 l 694 1389 l 694 1215 l 868 1215 l 868 1389 l 1215 1389 l 1215 1215 l 1042 1215 l 1042 1042 l 1215 1042 l 1215 868 l 694 868 l 694 694 l 521 694 l 521 174 l 174 174 m 521 868 l 694 868 l 694 1042 l 521 1042 l 521 868 z "},"ŗ":{"ha":1389,"x_min":174,"x_max":1215,"o":"m 521 1042 l 694 1042 l 694 868 l 521 868 l 521 347 l 694 347 l 694 174 l 521 174 l 521 0 l 174 0 l 174 174 l 347 174 l 347 347 l 174 347 l 174 1215 l 521 1215 l 521 1042 m 1215 1215 l 1215 1042 l 694 1042 l 694 1215 l 1215 1215 z "},"s":{"ha":1389,"x_min":0,"x_max":1215,"o":"m 0 174 l 0 347 l 868 347 l 868 521 l 174 521 l 174 694 l 0 694 l 0 868 l 174 868 l 174 1042 l 1042 1042 l 1042 868 l 347 868 l 347 694 l 1042 694 l 1042 521 l 1215 521 l 1215 347 l 1042 347 l 1042 174 l 0 174 z "},"ś":{"ha":1389,"x_min":0,"x_max":1215,"o":"m 868 1215 l 694 1215 l 694 1389 l 868 1389 l 868 1215 m 1215 521 l 1215 347 l 1042 347 l 1042 174 l 0 174 l 0 347 l 868 347 l 868 521 l 174 521 l 174 694 l 0 694 l 0 868 l 174 868 l 174 1042 l 521 1042 l 521 1215 l 694 1215 l 694 1042 l 1042 1042 l 1042 868 l 347 868 l 347 694 l 1042 694 l 1042 521 l 1215 521 z "},"š":{"ha":1389,"x_min":0,"x_max":1215,"o":"m 0 174 l 0 347 l 868 347 l 868 521 l 174 521 l 174 694 l 0 694 l 0 868 l 174 868 l 174 1042 l 347 1042 l 347 1215 l 174 1215 l 174 1389 l 521 1389 l 521 1215 l 694 1215 l 694 1389 l 1042 1389 l 1042 1215 l 868 1215 l 868 1042 l 1042 1042 l 1042 868 l 347 868 l 347 694 l 1042 694 l 1042 521 l 1215 521 l 1215 347 l 1042 347 l 1042 174 l 0 174 z "},"ş":{"ha":1389,"x_min":0,"x_max":1215,"o":"m 1215 694 l 1215 521 l 1042 521 l 1042 347 l 868 347 l 868 174 l 694 174 l 694 347 l 0 347 l 0 521 l 868 521 l 868 694 l 174 694 l 174 868 l 0 868 l 0 1042 l 174 1042 l 174 1215 l 1042 1215 l 1042 1042 l 347 1042 l 347 868 l 1042 868 l 1042 694 l 1215 694 m 347 174 l 694 174 l 694 0 l 347 0 l 347 174 z "},"ŝ":{"ha":1389,"x_min":0,"x_max":1215,"o":"m 0 174 l 0 347 l 868 347 l 868 521 l 174 521 l 174 694 l 0 694 l 0 868 l 174 868 l 174 1215 l 347 1215 l 347 1389 l 868 1389 l 868 1215 l 1042 1215 l 1042 868 l 347 868 l 347 694 l 1042 694 l 1042 521 l 1215 521 l 1215 347 l 1042 347 l 1042 174 l 0 174 m 521 1042 l 694 1042 l 694 1215 l 521 1215 l 521 1042 z "},"ß":{"ha":1389,"x_min":174,"x_max":1215,"o":"m 1215 1215 l 1215 868 l 1042 868 l 1042 694 l 1215 694 l 1215 347 l 1042 347 l 1042 174 l 694 174 l 694 347 l 868 347 l 868 694 l 694 694 l 694 868 l 868 868 l 868 1215 l 521 1215 l 521 521 l 694 521 l 694 347 l 521 347 l 521 174 l 174 174 l 174 1215 l 347 1215 l 347 1389 l 1042 1389 l 1042 1215 l 1215 1215 z "},"ſ":{"ha":1389,"x_min":521,"x_max":1215,"o":"m 521 174 l 521 1215 l 694 1215 l 694 1389 l 1215 1389 l 1215 1215 l 868 1215 l 868 174 l 521 174 z "},"t":{"ha":1389,"x_min":174,"x_max":1215,"o":"m 521 174 l 521 868 l 174 868 l 174 1042 l 521 1042 l 521 1389 l 868 1389 l 868 1042 l 1215 1042 l 1215 868 l 868 868 l 868 174 l 521 174 z "},"ŧ":{"ha":1389,"x_min":174,"x_max":1215,"o":"m 521 174 l 521 347 l 347 347 l 347 521 l 521 521 l 521 868 l 174 868 l 174 1042 l 521 1042 l 521 1389 l 868 1389 l 868 1042 l 1215 1042 l 1215 868 l 868 868 l 868 694 l 1042 694 l 1042 521 l 868 521 l 868 174 l 521 174 z "},"ť":{"ha":1389,"x_min":174,"x_max":1215,"o":"m 521 1389 l 521 1215 l 347 1215 l 347 1389 l 521 1389 m 1042 1215 l 868 1215 l 868 1389 l 1042 1389 l 1042 1215 m 1215 868 l 1215 694 l 868 694 l 868 174 l 521 174 l 521 694 l 174 694 l 174 868 l 521 868 l 521 1215 l 868 1215 l 868 868 l 1215 868 z "},"ț":{"ha":1389,"x_min":174,"x_max":1215,"o":"m 1215 1042 l 1215 868 l 868 868 l 868 174 l 694 174 l 694 347 l 521 347 l 521 868 l 174 868 l 174 1042 l 521 1042 l 521 1389 l 868 1389 l 868 1042 l 1215 1042 m 347 174 l 694 174 l 694 0 l 347 0 l 347 174 z "},"u":{"ha":1389,"x_min":0,"x_max":1215,"o":"m 174 174 l 174 347 l 0 347 l 0 1042 l 347 1042 l 347 347 l 868 347 l 868 1042 l 1215 1042 l 1215 174 l 174 174 z "},"ú":{"ha":1389,"x_min":0,"x_max":1215,"o":"m 868 1215 l 694 1215 l 694 1389 l 868 1389 l 868 1215 m 694 1042 l 521 1042 l 521 1215 l 694 1215 l 694 1042 m 1215 1042 l 1215 174 l 174 174 l 174 347 l 0 347 l 0 1042 l 347 1042 l 347 347 l 868 347 l 868 1042 l 1215 1042 z "},"ŭ":{"ha":1389,"x_min":0,"x_max":1215,"o":"m 347 1389 l 347 1215 l 174 1215 l 174 1389 l 347 1389 m 1042 1215 l 868 1215 l 868 1389 l 1042 1389 l 1042 1215 m 868 1042 l 347 1042 l 347 1215 l 868 1215 l 868 1042 m 1215 1042 l 1215 174 l 174 174 l 174 347 l 0 347 l 0 1042 l 347 1042 l 347 347 l 868 347 l 868 1042 l 1215 1042 z "},"û":{"ha":1389,"x_min":0,"x_max":1215,"o":"m 174 1042 l 174 1215 l 347 1215 l 347 1389 l 868 1389 l 868 1215 l 1042 1215 l 1042 1042 l 694 1042 l 694 1215 l 521 1215 l 521 1042 l 174 1042 m 174 174 l 174 347 l 0 347 l 0 868 l 347 868 l 347 347 l 868 347 l 868 868 l 1215 868 l 1215 174 l 174 174 z "},"ü":{"ha":1389,"x_min":0,"x_max":1215,"o":"m 174 1215 l 174 1389 l 521 1389 l 521 1215 l 174 1215 m 694 1215 l 694 1389 l 1042 1389 l 1042 1215 l 694 1215 m 174 174 l 174 347 l 0 347 l 0 1042 l 347 1042 l 347 347 l 868 347 l 868 1042 l 1215 1042 l 1215 174 l 174 174 z "},"ù":{"ha":1389,"x_min":0,"x_max":1215,"o":"m 521 1215 l 347 1215 l 347 1389 l 521 1389 l 521 1215 m 521 1042 l 521 1215 l 694 1215 l 694 1042 l 521 1042 m 1215 1042 l 1215 174 l 174 174 l 174 347 l 0 347 l 0 1042 l 347 1042 l 347 347 l 868 347 l 868 1042 l 1215 1042 z "},"ű":{"ha":1389,"x_min":0,"x_max":1215,"o":"m 521 1215 l 347 1215 l 347 1389 l 521 1389 l 521 1215 m 1042 1215 l 868 1215 l 868 1389 l 1042 1389 l 1042 1215 m 1215 1042 l 1215 174 l 174 174 l 174 347 l 0 347 l 0 1042 l 174 1042 l 174 1215 l 347 1215 l 347 347 l 868 347 l 868 1042 l 1215 1042 m 868 1215 l 868 1042 l 694 1042 l 694 1215 l 868 1215 z "},"ū":{"ha":1389,"x_min":0,"x_max":1215,"o":"m 174 1215 l 174 1389 l 1042 1389 l 1042 1215 l 174 1215 m 174 174 l 174 347 l 0 347 l 0 1042 l 347 1042 l 347 347 l 868 347 l 868 1042 l 1215 1042 l 1215 174 l 174 174 z "},"ų":{"ha":1389,"x_min":0,"x_max":1215,"o":"m 1215 1389 l 1215 521 l 694 521 l 694 347 l 521 347 l 521 521 l 174 521 l 174 694 l 0 694 l 0 1389 l 347 1389 l 347 694 l 868 694 l 868 1389 l 1215 1389 m 347 347 l 521 347 l 521 174 l 347 174 l 347 347 m 521 0 l 521 174 l 868 174 l 868 0 l 521 0 z "},"ů":{"ha":1389,"x_min":0,"x_max":1215,"o":"m 174 174 l 174 347 l 0 347 l 0 1042 l 174 1042 l 174 1215 l 347 1215 l 347 1389 l 868 1389 l 868 1215 l 1042 1215 l 1042 1042 l 1215 1042 l 1215 174 l 174 174 m 521 1042 l 694 1042 l 694 1215 l 521 1215 l 521 1042 m 347 347 l 868 347 l 868 868 l 1042 868 l 1042 1042 l 868 1042 l 868 868 l 347 868 l 347 1042 l 174 1042 l 174 868 l 347 868 l 347 347 z "},"ũ":{"ha":1389,"x_min":0,"x_max":1215,"o":"m 521 1215 l 347 1215 l 347 1389 l 694 1389 l 694 1215 l 868 1215 l 868 1042 l 521 1042 l 521 1215 m 1042 1215 l 868 1215 l 868 1389 l 1042 1389 l 1042 1215 m 1215 1042 l 1215 174 l 174 174 l 174 347 l 0 347 l 0 1042 l 174 1042 l 174 1215 l 347 1215 l 347 347 l 868 347 l 868 1042 l 1215 1042 z "},"v":{"ha":1389,"x_min":174,"x_max":1215,"o":"m 521 174 l 521 347 l 347 347 l 347 521 l 174 521 l 174 1042 l 521 1042 l 521 521 l 868 521 l 868 1042 l 1215 1042 l 1215 521 l 1042 521 l 1042 347 l 868 347 l 868 174 l 521 174 z "},"w":{"ha":1389,"x_min":0,"x_max":1215,"o":"m 347 347 l 521 347 l 521 174 l 174 174 l 174 347 l 0 347 l 0 1042 l 347 1042 l 347 347 m 694 1042 l 694 347 l 521 347 l 521 1042 l 694 1042 m 1215 1042 l 1215 347 l 1042 347 l 1042 174 l 694 174 l 694 347 l 868 347 l 868 1042 l 1215 1042 z "},"ŵ":{"ha":1389,"x_min":0,"x_max":1215,"o":"m 521 1042 l 174 1042 l 174 1215 l 347 1215 l 347 1389 l 868 1389 l 868 1215 l 1042 1215 l 1042 1042 l 694 1042 l 694 1215 l 521 1215 l 521 1042 m 347 347 l 521 347 l 521 174 l 174 174 l 174 347 l 0 347 l 0 868 l 347 868 l 347 347 m 694 868 l 694 347 l 521 347 l 521 868 l 694 868 m 1215 868 l 1215 347 l 1042 347 l 1042 174 l 694 174 l 694 347 l 868 347 l 868 868 l 1215 868 z "},"x":{"ha":1389,"x_min":0,"x_max":1215,"o":"m 0 174 l 0 347 l 174 347 l 174 521 l 347 521 l 347 694 l 174 694 l 174 868 l 0 868 l 0 1042 l 347 1042 l 347 868 l 521 868 l 521 694 l 694 694 l 694 868 l 868 868 l 868 1042 l 1215 1042 l 1215 868 l 1042 868 l 1042 694 l 868 694 l 868 521 l 1042 521 l 1042 347 l 1215 347 l 1215 174 l 868 174 l 868 347 l 694 347 l 694 521 l 521 521 l 521 347 l 347 347 l 347 174 l 0 174 z "},"y":{"ha":1389,"x_min":0,"x_max":1215,"o":"m 174 0 l 174 174 l 868 174 l 868 347 l 174 347 l 174 521 l 0 521 l 0 1042 l 347 1042 l 347 521 l 868 521 l 868 1042 l 1215 1042 l 1215 174 l 1042 174 l 1042 0 l 174 0 z "},"ý":{"ha":1389,"x_min":0,"x_max":1215,"o":"m 868 1215 l 694 1215 l 694 1389 l 868 1389 l 868 1215 m 694 1042 l 521 1042 l 521 1215 l 694 1215 l 694 1042 m 1215 1042 l 1215 174 l 1042 174 l 1042 0 l 174 0 l 174 174 l 868 174 l 868 347 l 174 347 l 174 521 l 0 521 l 0 1042 l 347 1042 l 347 521 l 868 521 l 868 1042 l 1215 1042 z "},"ŷ":{"ha":1389,"x_min":0,"x_max":1215,"o":"m 174 1042 l 174 1215 l 347 1215 l 347 1389 l 868 1389 l 868 1215 l 1042 1215 l 1042 1042 l 694 1042 l 694 1215 l 521 1215 l 521 1042 l 174 1042 m 174 0 l 174 174 l 868 174 l 868 347 l 174 347 l 174 521 l 0 521 l 0 868 l 347 868 l 347 521 l 868 521 l 868 868 l 1215 868 l 1215 174 l 1042 174 l 1042 0 l 174 0 z "},"ÿ":{"ha":1389,"x_min":0,"x_max":1215,"o":"m 174 1215 l 174 1389 l 521 1389 l 521 1215 l 174 1215 m 694 1215 l 694 1389 l 1042 1389 l 1042 1215 l 694 1215 m 174 0 l 174 174 l 868 174 l 868 347 l 174 347 l 174 521 l 0 521 l 0 1042 l 347 1042 l 347 521 l 868 521 l 868 1042 l 1215 1042 l 1215 174 l 1042 174 l 1042 0 l 174 0 z "},"z":{"ha":1389,"x_min":0,"x_max":1215,"o":"m 0 174 l 0 347 l 174 347 l 174 521 l 347 521 l 347 694 l 521 694 l 521 868 l 0 868 l 0 1042 l 1215 1042 l 1215 868 l 1042 868 l 1042 694 l 868 694 l 868 521 l 694 521 l 694 347 l 1215 347 l 1215 174 l 0 174 z "},"ź":{"ha":1389,"x_min":0,"x_max":1215,"o":"m 868 1215 l 694 1215 l 694 1389 l 868 1389 l 868 1215 m 1215 1042 l 1215 868 l 1042 868 l 1042 694 l 868 694 l 868 521 l 694 521 l 694 347 l 1215 347 l 1215 174 l 0 174 l 0 347 l 174 347 l 174 521 l 347 521 l 347 694 l 521 694 l 521 868 l 0 868 l 0 1042 l 521 1042 l 521 1215 l 694 1215 l 694 1042 l 1215 1042 z "},"ž":{"ha":1389,"x_min":0,"x_max":1215,"o":"m 0 174 l 0 347 l 174 347 l 174 521 l 347 521 l 347 694 l 521 694 l 521 868 l 0 868 l 0 1042 l 347 1042 l 347 1215 l 174 1215 l 174 1389 l 521 1389 l 521 1215 l 694 1215 l 694 1389 l 1042 1389 l 1042 1215 l 868 1215 l 868 1042 l 1215 1042 l 1215 868 l 1042 868 l 1042 694 l 868 694 l 868 521 l 694 521 l 694 347 l 1215 347 l 1215 174 l 0 174 z "},"ż":{"ha":1389,"x_min":0,"x_max":1215,"o":"m 521 1215 l 521 1389 l 868 1389 l 868 1215 l 521 1215 m 0 174 l 0 347 l 174 347 l 174 521 l 347 521 l 347 694 l 521 694 l 521 868 l 0 868 l 0 1042 l 1215 1042 l 1215 868 l 1042 868 l 1042 694 l 868 694 l 868 521 l 694 521 l 694 347 l 1215 347 l 1215 174 l 0 174 z "},"ﬁ":{"ha":1389,"x_min":0,"x_max":1215,"o":"m 174 174 l 174 868 l 0 868 l 0 1042 l 174 1042 l 174 1215 l 347 1215 l 347 1389 l 868 1389 l 868 1215 l 521 1215 l 521 1042 l 1215 1042 l 1215 174 l 868 174 l 868 868 l 521 868 l 521 174 l 174 174 z "},"ﬂ":{"ha":1389,"x_min":0,"x_max":1215,"o":"m 174 174 l 174 868 l 0 868 l 0 1042 l 174 1042 l 174 1215 l 347 1215 l 347 1389 l 1215 1389 l 1215 174 l 868 174 l 868 868 l 521 868 l 521 174 l 174 174 m 521 1042 l 868 1042 l 868 1215 l 521 1215 l 521 1042 z "},"ª":{"ha":1389,"x_min":174,"x_max":1042,"o":"m 347 694 l 347 868 l 174 868 l 174 1042 l 347 1042 l 347 1215 l 174 1215 l 174 1389 l 868 1389 l 868 1215 l 1042 1215 l 1042 694 l 347 694 m 521 868 l 694 868 l 694 1042 l 521 1042 l 521 868 z "},"º":{"ha":1389,"x_min":174,"x_max":1042,"o":"m 347 694 l 347 868 l 174 868 l 174 1215 l 347 1215 l 347 1389 l 868 1389 l 868 1215 l 1042 1215 l 1042 868 l 868 868 l 868 694 l 347 694 m 521 868 l 694 868 l 694 1215 l 521 1215 l 521 868 z "},"А":{"ha":1389,"x_min":0,"x_max":1215,"o":"m 0 174 l 0 1042 l 174 1042 l 174 1215 l 347 1215 l 347 1389 l 868 1389 l 868 1215 l 1042 1215 l 1042 1042 l 1215 1042 l 1215 174 l 868 174 l 868 521 l 347 521 l 347 174 l 0 174 m 347 694 l 868 694 l 868 1042 l 694 1042 l 694 1215 l 521 1215 l 521 1042 l 347 1042 l 347 694 z "},"Б":{"ha":1389,"x_min":0,"x_max":1215,"o":"m 0 174 l 0 1389 l 1042 1389 l 1042 1215 l 347 1215 l 347 868 l 1042 868 l 1042 694 l 1215 694 l 1215 347 l 1042 347 l 1042 174 l 0 174 m 347 347 l 868 347 l 868 694 l 347 694 l 347 347 z "},"В":{"ha":1389,"x_min":0,"x_max":1215,"o":"m 0 174 l 0 1389 l 1042 1389 l 1042 1215 l 1215 1215 l 1215 868 l 1042 868 l 1042 694 l 1215 694 l 1215 347 l 1042 347 l 1042 174 l 0 174 m 347 868 l 868 868 l 868 1215 l 347 1215 l 347 868 m 347 347 l 868 347 l 868 694 l 347 694 l 347 347 z "},"Г":{"ha":1389,"x_min":174,"x_max":1215,"o":"m 174 174 l 174 1389 l 1215 1389 l 1215 1042 l 1042 1042 l 1042 1215 l 521 1215 l 521 174 l 174 174 z "},"Ѓ":{"ha":1389,"x_min":174,"x_max":1215,"o":"m 868 1215 l 694 1215 l 694 1389 l 868 1389 l 868 1215 m 1215 1042 l 1215 694 l 1042 694 l 1042 868 l 521 868 l 521 174 l 174 174 l 174 1042 l 521 1042 l 521 1215 l 694 1215 l 694 1042 l 1215 1042 z "},"Ґ":{"ha":1389,"x_min":174,"x_max":1215,"o":"m 868 1389 l 1215 1389 l 1215 1042 l 521 1042 l 521 174 l 174 174 l 174 1215 l 868 1215 l 868 1389 z "},"Д":{"ha":1389,"x_min":0,"x_max":1389,"o":"m 0 0 l 0 347 l 174 347 l 174 694 l 347 694 l 347 1389 l 1215 1389 l 1215 347 l 1389 347 l 1389 0 l 1042 0 l 1042 174 l 347 174 l 347 0 l 0 0 m 521 347 l 868 347 l 868 1215 l 521 1215 l 521 347 z "},"Е":{"ha":1389,"x_min":0,"x_max":1215,"o":"m 0 174 l 0 1389 l 1215 1389 l 1215 1215 l 347 1215 l 347 868 l 1042 868 l 1042 694 l 347 694 l 347 347 l 1215 347 l 1215 174 l 0 174 z "},"Ѐ":{"ha":1389,"x_min":0,"x_max":1215,"o":"m 521 1389 l 521 1215 l 347 1215 l 347 1389 l 521 1389 m 1215 1042 l 1215 868 l 347 868 l 347 694 l 1042 694 l 1042 521 l 347 521 l 347 347 l 1215 347 l 1215 174 l 0 174 l 0 1042 l 521 1042 l 521 1215 l 694 1215 l 694 1042 l 1215 1042 z "},"Ё":{"ha":1389,"x_min":0,"x_max":1215,"o":"m 174 1215 l 174 1389 l 521 1389 l 521 1215 l 174 1215 m 694 1215 l 694 1389 l 1042 1389 l 1042 1215 l 694 1215 m 0 174 l 0 1042 l 1215 1042 l 1215 868 l 347 868 l 347 694 l 1042 694 l 1042 521 l 347 521 l 347 347 l 1215 347 l 1215 174 l 0 174 z "},"Ж":{"ha":1389,"x_min":0,"x_max":1215,"o":"m 347 1389 l 347 868 l 174 868 l 174 1042 l 0 1042 l 0 1389 l 347 1389 m 694 868 l 868 868 l 868 694 l 694 694 l 694 174 l 521 174 l 521 694 l 347 694 l 347 868 l 521 868 l 521 1389 l 694 1389 l 694 868 m 1215 1389 l 1215 1042 l 1042 1042 l 1042 868 l 868 868 l 868 1389 l 1215 1389 m 174 694 l 347 694 l 347 174 l 0 174 l 0 521 l 174 521 l 174 694 m 868 174 l 868 694 l 1042 694 l 1042 521 l 1215 521 l 1215 174 l 868 174 z "},"З":{"ha":1389,"x_min":0,"x_max":1215,"o":"m 174 174 l 174 347 l 0 347 l 0 521 l 347 521 l 347 347 l 868 347 l 868 694 l 347 694 l 347 868 l 868 868 l 868 1215 l 347 1215 l 347 1042 l 0 1042 l 0 1215 l 174 1215 l 174 1389 l 1042 1389 l 1042 1215 l 1215 1215 l 1215 868 l 1042 868 l 1042 694 l 1215 694 l 1215 347 l 1042 347 l 1042 174 l 174 174 z "},"И":{"ha":1389,"x_min":0,"x_max":1215,"o":"m 0 174 l 0 1389 l 347 1389 l 347 694 l 521 694 l 521 868 l 694 868 l 694 1042 l 868 1042 l 868 1389 l 1215 1389 l 1215 174 l 868 174 l 868 694 l 694 694 l 694 521 l 521 521 l 521 347 l 347 347 l 347 174 l 0 174 z "},"Й":{"ha":1389,"x_min":0,"x_max":1215,"o":"m 174 1215 l 174 1389 l 1042 1389 l 1042 1215 l 174 1215 m 0 174 l 0 1042 l 347 1042 l 347 521 l 521 521 l 521 694 l 694 694 l 694 868 l 868 868 l 868 1042 l 1215 1042 l 1215 174 l 868 174 l 868 521 l 694 521 l 694 347 l 521 347 l 521 174 l 0 174 z "},"Ѝ":{"ha":1389,"x_min":0,"x_max":1215,"o":"m 521 1215 l 347 1215 l 347 1389 l 521 1389 l 521 1215 m 521 1042 l 521 1215 l 694 1215 l 694 1042 l 521 1042 m 1215 1042 l 1215 174 l 868 174 l 868 521 l 694 521 l 694 347 l 521 347 l 521 174 l 0 174 l 0 1042 l 347 1042 l 347 521 l 521 521 l 521 694 l 694 694 l 694 868 l 868 868 l 868 1042 l 1215 1042 z "},"К":{"ha":1389,"x_min":0,"x_max":1215,"o":"m 521 1042 l 694 1042 l 694 868 l 868 868 l 868 694 l 1042 694 l 1042 347 l 1215 347 l 1215 174 l 868 174 l 868 347 l 694 347 l 694 694 l 347 694 l 347 174 l 0 174 l 0 1389 l 347 1389 l 347 868 l 521 868 l 521 1042 m 1215 1389 l 1215 1215 l 1042 1215 l 1042 1042 l 694 1042 l 694 1215 l 868 1215 l 868 1389 l 1215 1389 z "},"Ќ":{"ha":1389,"x_min":0,"x_max":1215,"o":"m 868 1215 l 694 1215 l 694 1389 l 868 1389 l 868 1215 m 694 1042 l 521 1042 l 521 1215 l 694 1215 l 694 1042 m 694 868 l 868 868 l 868 694 l 1042 694 l 1042 521 l 1215 521 l 1215 174 l 868 174 l 868 521 l 347 521 l 347 174 l 0 174 l 0 1042 l 347 1042 l 347 694 l 694 694 l 694 868 m 1215 1042 l 1215 868 l 868 868 l 868 1042 l 1215 1042 z "},"Л":{"ha":1389,"x_min":0,"x_max":1215,"o":"m 0 174 l 0 521 l 174 521 l 174 694 l 347 694 l 347 1389 l 1215 1389 l 1215 174 l 868 174 l 868 1215 l 521 1215 l 521 347 l 347 347 l 347 174 l 0 174 z "},"М":{"ha":1389,"x_min":0,"x_max":1215,"o":"m 0 174 l 0 1389 l 347 1389 l 347 1215 l 521 1215 l 521 1042 l 694 1042 l 694 1215 l 868 1215 l 868 1389 l 1215 1389 l 1215 174 l 868 174 l 868 868 l 694 868 l 694 521 l 521 521 l 521 868 l 347 868 l 347 174 l 0 174 z "},"Н":{"ha":1389,"x_min":0,"x_max":1215,"o":"m 0 174 l 0 1389 l 347 1389 l 347 868 l 868 868 l 868 1389 l 1215 1389 l 1215 174 l 868 174 l 868 694 l 347 694 l 347 174 l 0 174 z "},"О":{"ha":1389,"x_min":0,"x_max":1215,"o":"m 174 174 l 174 347 l 0 347 l 0 1215 l 174 1215 l 174 1389 l 1042 1389 l 1042 1215 l 1215 1215 l 1215 347 l 1042 347 l 1042 174 l 174 174 m 347 347 l 868 347 l 868 1215 l 347 1215 l 347 347 z "},"П":{"ha":1389,"x_min":0,"x_max":1215,"o":"m 0 174 l 0 1389 l 1215 1389 l 1215 174 l 868 174 l 868 1215 l 347 1215 l 347 174 l 0 174 z "},"Р":{"ha":1389,"x_min":0,"x_max":1215,"o":"m 0 174 l 0 1389 l 1042 1389 l 1042 1215 l 1215 1215 l 1215 694 l 1042 694 l 1042 521 l 347 521 l 347 174 l 0 174 m 347 694 l 868 694 l 868 1215 l 347 1215 l 347 694 z "},"С":{"ha":1389,"x_min":0,"x_max":1215,"o":"m 347 174 l 347 347 l 174 347 l 174 521 l 0 521 l 0 1042 l 174 1042 l 174 1215 l 347 1215 l 347 1389 l 1042 1389 l 1042 1215 l 1215 1215 l 1215 1042 l 868 1042 l 868 1215 l 521 1215 l 521 1042 l 347 1042 l 347 521 l 521 521 l 521 347 l 868 347 l 868 521 l 1215 521 l 1215 347 l 1042 347 l 1042 174 l 347 174 z "},"Т":{"ha":1389,"x_min":174,"x_max":1215,"o":"m 521 174 l 521 1215 l 174 1215 l 174 1389 l 1215 1389 l 1215 1215 l 868 1215 l 868 174 l 521 174 z "},"У":{"ha":1389,"x_min":0,"x_max":1215,"o":"m 174 174 l 174 347 l 0 347 l 0 521 l 347 521 l 347 347 l 868 347 l 868 694 l 174 694 l 174 868 l 0 868 l 0 1389 l 347 1389 l 347 868 l 868 868 l 868 1389 l 1215 1389 l 1215 347 l 1042 347 l 1042 174 l 174 174 z "},"Ў":{"ha":1389,"x_min":0,"x_max":1215,"o":"m 174 1215 l 174 1389 l 1042 1389 l 1042 1215 l 174 1215 m 174 0 l 174 174 l 868 174 l 868 347 l 174 347 l 174 521 l 0 521 l 0 1042 l 347 1042 l 347 521 l 868 521 l 868 1042 l 1215 1042 l 1215 174 l 1042 174 l 1042 0 l 174 0 z "},"Ф":{"ha":1389,"x_min":0,"x_max":1215,"o":"m 521 174 l 521 347 l 174 347 l 174 521 l 0 521 l 0 1042 l 174 1042 l 174 1215 l 521 1215 l 521 1389 l 694 1389 l 694 1215 l 1042 1215 l 1042 1042 l 1215 1042 l 1215 521 l 1042 521 l 1042 347 l 694 347 l 694 174 l 521 174 m 347 521 l 521 521 l 521 1042 l 347 1042 l 347 521 m 694 521 l 868 521 l 868 1042 l 694 1042 l 694 521 z "},"Х":{"ha":1389,"x_min":0,"x_max":1215,"o":"m 0 174 l 0 521 l 174 521 l 174 694 l 347 694 l 347 868 l 174 868 l 174 1042 l 0 1042 l 0 1389 l 347 1389 l 347 1042 l 521 1042 l 521 868 l 694 868 l 694 1042 l 868 1042 l 868 1389 l 1215 1389 l 1215 1042 l 1042 1042 l 1042 868 l 868 868 l 868 694 l 1042 694 l 1042 521 l 1215 521 l 1215 174 l 868 174 l 868 521 l 694 521 l 694 694 l 521 694 l 521 521 l 347 521 l 347 174 l 0 174 z "},"Ч":{"ha":1389,"x_min":0,"x_max":1215,"o":"m 868 174 l 868 694 l 174 694 l 174 868 l 0 868 l 0 1389 l 347 1389 l 347 868 l 868 868 l 868 1389 l 1215 1389 l 1215 174 l 868 174 z "},"Ц":{"ha":1389,"x_min":0,"x_max":1215,"o":"m 868 0 l 868 174 l 0 174 l 0 1389 l 347 1389 l 347 347 l 694 347 l 694 1389 l 1042 1389 l 1042 347 l 1215 347 l 1215 0 l 868 0 z "},"Ш":{"ha":1389,"x_min":0,"x_max":1215,"o":"m 0 174 l 0 1389 l 347 1389 l 347 347 l 521 347 l 521 1389 l 694 1389 l 694 347 l 868 347 l 868 1389 l 1215 1389 l 1215 174 l 0 174 z "},"Щ":{"ha":1389,"x_min":0,"x_max":1389,"o":"m 1042 0 l 1042 174 l 0 174 l 0 1389 l 347 1389 l 347 347 l 521 347 l 521 1389 l 694 1389 l 694 347 l 868 347 l 868 1389 l 1215 1389 l 1215 347 l 1389 347 l 1389 0 l 1042 0 z "},"Џ":{"ha":1389,"x_min":0,"x_max":1215,"o":"m 521 0 l 521 174 l 0 174 l 0 1389 l 347 1389 l 347 347 l 868 347 l 868 1389 l 1215 1389 l 1215 174 l 694 174 l 694 0 l 521 0 z "},"Ь":{"ha":1389,"x_min":0,"x_max":1215,"o":"m 0 174 l 0 1389 l 347 1389 l 347 1042 l 1042 1042 l 1042 868 l 1215 868 l 1215 347 l 1042 347 l 1042 174 l 0 174 m 347 347 l 868 347 l 868 868 l 347 868 l 347 347 z "},"Ъ":{"ha":1389,"x_min":0,"x_max":1215,"o":"m 174 174 l 174 1215 l 0 1215 l 0 1389 l 521 1389 l 521 1042 l 1042 1042 l 1042 868 l 1215 868 l 1215 347 l 1042 347 l 1042 174 l 174 174 m 521 347 l 868 347 l 868 868 l 521 868 l 521 347 z "},"Ы":{"ha":1389,"x_min":0,"x_max":1215,"o":"m 0 174 l 0 1389 l 347 1389 l 347 1042 l 694 1042 l 694 174 l 0 174 m 868 174 l 868 1389 l 1215 1389 l 1215 174 l 868 174 m 347 347 l 521 347 l 521 868 l 347 868 l 347 347 z "},"Љ":{"ha":1389,"x_min":0,"x_max":1215,"o":"m 0 174 l 0 521 l 174 521 l 174 1389 l 868 1389 l 868 1042 l 1215 1042 l 1215 174 l 521 174 l 521 1215 l 347 1215 l 347 174 l 0 174 m 868 347 l 1042 347 l 1042 868 l 868 868 l 868 347 z "},"Њ":{"ha":1389,"x_min":0,"x_max":1215,"o":"m 0 174 l 0 1389 l 347 1389 l 347 868 l 521 868 l 521 1389 l 868 1389 l 868 1042 l 1215 1042 l 1215 174 l 521 174 l 521 694 l 347 694 l 347 174 l 0 174 m 868 347 l 1042 347 l 1042 868 l 868 868 l 868 347 z "},"Ѕ":{"ha":1389,"x_min":0,"x_max":1215,"o":"m 174 174 l 174 347 l 0 347 l 0 521 l 347 521 l 347 347 l 868 347 l 868 694 l 174 694 l 174 868 l 0 868 l 0 1215 l 174 1215 l 174 1389 l 1042 1389 l 1042 1215 l 1215 1215 l 1215 1042 l 868 1042 l 868 1215 l 347 1215 l 347 868 l 1042 868 l 1042 694 l 1215 694 l 1215 347 l 1042 347 l 1042 174 l 174 174 z "},"Є":{"ha":1389,"x_min":0,"x_max":1215,"o":"m 347 174 l 347 347 l 174 347 l 174 521 l 0 521 l 0 1042 l 174 1042 l 174 1215 l 347 1215 l 347 1389 l 1042 1389 l 1042 1215 l 1215 1215 l 1215 1042 l 868 1042 l 868 1215 l 521 1215 l 521 1042 l 347 1042 l 347 868 l 1042 868 l 1042 694 l 347 694 l 347 521 l 521 521 l 521 347 l 868 347 l 868 521 l 1215 521 l 1215 347 l 1042 347 l 1042 174 l 347 174 z "},"Э":{"ha":1389,"x_min":0,"x_max":1215,"o":"m 174 174 l 174 347 l 0 347 l 0 521 l 347 521 l 347 347 l 694 347 l 694 521 l 868 521 l 868 694 l 174 694 l 174 868 l 868 868 l 868 1042 l 694 1042 l 694 1215 l 347 1215 l 347 1042 l 0 1042 l 0 1215 l 174 1215 l 174 1389 l 868 1389 l 868 1215 l 1042 1215 l 1042 1042 l 1215 1042 l 1215 521 l 1042 521 l 1042 347 l 868 347 l 868 174 l 174 174 z "},"І":{"ha":1389,"x_min":174,"x_max":1215,"o":"m 174 174 l 174 347 l 521 347 l 521 1215 l 174 1215 l 174 1389 l 1215 1389 l 1215 1215 l 868 1215 l 868 347 l 1215 347 l 1215 174 l 174 174 z "},"Ї":{"ha":1389,"x_min":174,"x_max":1215,"o":"m 174 1215 l 174 1389 l 521 1389 l 521 1215 l 174 1215 m 868 1215 l 868 1389 l 1215 1389 l 1215 1215 l 868 1215 m 174 174 l 174 347 l 521 347 l 521 868 l 174 868 l 174 1042 l 1215 1042 l 1215 868 l 868 868 l 868 347 l 1215 347 l 1215 174 l 174 174 z "},"Ј":{"ha":1389,"x_min":0,"x_max":1215,"o":"m 174 174 l 174 347 l 0 347 l 0 521 l 347 521 l 347 347 l 868 347 l 868 1389 l 1215 1389 l 1215 347 l 1042 347 l 1042 174 l 174 174 z "},"Ћ":{"ha":1389,"x_min":0,"x_max":1215,"o":"m 174 174 l 174 1215 l 0 1215 l 0 1389 l 868 1389 l 868 1215 l 521 1215 l 521 1042 l 1042 1042 l 1042 868 l 1215 868 l 1215 174 l 868 174 l 868 868 l 521 868 l 521 174 l 174 174 z "},"Ю":{"ha":1389,"x_min":0,"x_max":1215,"o":"m 0 174 l 0 1389 l 174 1389 l 174 868 l 347 868 l 347 1215 l 521 1215 l 521 1389 l 1042 1389 l 1042 1215 l 1215 1215 l 1215 347 l 1042 347 l 1042 174 l 521 174 l 521 347 l 347 347 l 347 694 l 174 694 l 174 174 l 0 174 m 694 347 l 868 347 l 868 1215 l 694 1215 l 694 347 z "},"Я":{"ha":1389,"x_min":0,"x_max":1215,"o":"m 0 174 l 0 347 l 174 347 l 174 521 l 347 521 l 347 694 l 0 694 l 0 1215 l 174 1215 l 174 1389 l 1215 1389 l 1215 174 l 868 174 l 868 521 l 521 521 l 521 174 l 0 174 m 521 694 l 868 694 l 868 1215 l 347 1215 l 347 868 l 521 868 l 521 694 z "},"Ђ":{"ha":1389,"x_min":0,"x_max":1215,"o":"m 694 0 l 694 174 l 868 174 l 868 868 l 521 868 l 521 174 l 174 174 l 174 1215 l 0 1215 l 0 1389 l 868 1389 l 868 1215 l 521 1215 l 521 1042 l 1042 1042 l 1042 868 l 1215 868 l 1215 174 l 1042 174 l 1042 0 l 694 0 z "},"Ѣ":{"ha":1389,"x_min":0,"x_max":1215,"o":"m 1215 694 l 1215 347 l 1042 347 l 1042 174 l 174 174 l 174 1042 l 0 1042 l 0 1215 l 174 1215 l 174 1389 l 521 1389 l 521 1215 l 868 1215 l 868 1042 l 521 1042 l 521 868 l 1042 868 l 1042 694 l 1215 694 m 868 694 l 521 694 l 521 347 l 868 347 l 868 694 z "},"Ѫ":{"ha":1389,"x_min":0,"x_max":1215,"o":"m 1215 1389 l 1215 1042 l 1042 1042 l 1042 1215 l 174 1215 l 174 1042 l 0 1042 l 0 1389 l 1215 1389 m 174 1042 l 347 1042 l 347 868 l 174 868 l 174 1042 m 868 868 l 868 1042 l 1042 1042 l 1042 868 l 868 868 m 347 868 l 868 868 l 868 694 l 694 694 l 694 174 l 521 174 l 521 694 l 347 694 l 347 868 m 174 694 l 347 694 l 347 174 l 0 174 l 0 521 l 174 521 l 174 694 m 868 174 l 868 694 l 1042 694 l 1042 521 l 1215 521 l 1215 174 l 868 174 z "},"Ѳ":{"ha":1389,"x_min":0,"x_max":1215,"o":"m 174 174 l 174 347 l 0 347 l 0 1215 l 174 1215 l 174 1389 l 1042 1389 l 1042 1215 l 1215 1215 l 1215 347 l 1042 347 l 1042 174 l 174 174 m 347 347 l 868 347 l 868 1215 l 347 1215 l 347 347 m 174 694 l 1042 694 l 1042 868 l 174 868 l 174 694 z "},"Ѵ":{"ha":1389,"x_min":0,"x_max":1215,"o":"m 521 174 l 521 347 l 347 347 l 347 521 l 174 521 l 174 694 l 0 694 l 0 1389 l 347 1389 l 347 694 l 521 694 l 521 521 l 694 521 l 694 694 l 868 694 l 868 1389 l 1215 1389 l 1215 1042 l 1042 1042 l 1042 521 l 868 521 l 868 347 l 694 347 l 694 174 l 521 174 z "},"Ғ":{"ha":1389,"x_min":0,"x_max":1215,"o":"m 1215 1389 l 1215 1042 l 1042 1042 l 1042 1215 l 521 1215 l 521 868 l 868 868 l 868 694 l 521 694 l 521 174 l 174 174 l 174 694 l 0 694 l 0 868 l 174 868 l 174 1389 l 1215 1389 z "},"Ҕ":{"ha":1389,"x_min":174,"x_max":1215,"o":"m 1215 1389 l 1215 1042 l 1042 1042 l 1042 1215 l 521 1215 l 521 868 l 1042 868 l 1042 694 l 1215 694 l 1215 174 l 1042 174 l 1042 0 l 694 0 l 694 174 l 868 174 l 868 694 l 521 694 l 521 174 l 174 174 l 174 1389 l 1215 1389 z "},"Җ":{"ha":1389,"x_min":0,"x_max":1389,"o":"m 347 1389 l 347 868 l 174 868 l 174 1042 l 0 1042 l 0 1389 l 347 1389 m 868 868 l 868 694 l 694 694 l 694 174 l 521 174 l 521 694 l 347 694 l 347 868 l 521 868 l 521 1389 l 694 1389 l 694 868 l 868 868 m 1042 868 l 868 868 l 868 1389 l 1215 1389 l 1215 1042 l 1042 1042 l 1042 868 m 174 694 l 347 694 l 347 174 l 0 174 l 0 521 l 174 521 l 174 694 m 1215 347 l 1389 347 l 1389 0 l 1042 0 l 1042 174 l 868 174 l 868 694 l 1042 694 l 1042 521 l 1215 521 l 1215 347 z "},"Ҙ":{"ha":1389,"x_min":0,"x_max":1215,"o":"m 1215 1215 l 1215 868 l 1042 868 l 1042 694 l 1215 694 l 1215 347 l 1042 347 l 1042 174 l 694 174 l 694 0 l 521 0 l 521 174 l 174 174 l 174 347 l 0 347 l 0 521 l 347 521 l 347 347 l 868 347 l 868 694 l 347 694 l 347 868 l 868 868 l 868 1215 l 347 1215 l 347 1042 l 0 1042 l 0 1215 l 174 1215 l 174 1389 l 1042 1389 l 1042 1215 l 1215 1215 z "},"Қ":{"ha":1389,"x_min":0,"x_max":1215,"o":"m 521 1042 l 694 1042 l 694 868 l 868 868 l 868 694 l 1042 694 l 1042 347 l 1215 347 l 1215 0 l 868 0 l 868 347 l 694 347 l 694 694 l 347 694 l 347 174 l 0 174 l 0 1389 l 347 1389 l 347 868 l 521 868 l 521 1042 m 1215 1389 l 1215 1215 l 1042 1215 l 1042 1042 l 694 1042 l 694 1215 l 868 1215 l 868 1389 l 1215 1389 z "},"Ҝ":{"ha":1389,"x_min":0,"x_max":1215,"o":"m 694 868 l 868 868 l 868 694 l 694 694 l 694 521 l 521 521 l 521 694 l 347 694 l 347 174 l 0 174 l 0 1389 l 347 1389 l 347 868 l 521 868 l 521 1042 l 694 1042 l 694 868 m 1042 1215 l 1042 868 l 868 868 l 868 1389 l 1215 1389 l 1215 1215 l 1042 1215 m 1215 174 l 868 174 l 868 694 l 1042 694 l 1042 521 l 1215 521 l 1215 174 z "},"Ҡ":{"ha":1389,"x_min":0,"x_max":1215,"o":"m 868 1042 l 868 694 l 1042 694 l 1042 347 l 1215 347 l 1215 174 l 868 174 l 868 347 l 694 347 l 694 694 l 521 694 l 521 174 l 174 174 l 174 1215 l 0 1215 l 0 1389 l 521 1389 l 521 868 l 694 868 l 694 1042 l 868 1042 m 1042 1215 l 1042 1042 l 868 1042 l 868 1389 l 1215 1389 l 1215 1215 l 1042 1215 z "},"Ң":{"ha":1389,"x_min":0,"x_max":1389,"o":"m 1215 347 l 1389 347 l 1389 0 l 1042 0 l 1042 174 l 868 174 l 868 694 l 347 694 l 347 174 l 0 174 l 0 1389 l 347 1389 l 347 868 l 868 868 l 868 1389 l 1215 1389 l 1215 347 z "},"Ԥ":{"ha":1389,"x_min":0,"x_max":1389,"o":"m 1215 347 l 1389 347 l 1389 0 l 1042 0 l 1042 174 l 868 174 l 868 1215 l 347 1215 l 347 174 l 0 174 l 0 1389 l 1215 1389 l 1215 347 z "},"Ҫ":{"ha":1389,"x_min":0,"x_max":1215,"o":"m 1215 1215 l 1215 1042 l 868 1042 l 868 1215 l 521 1215 l 521 1042 l 347 1042 l 347 521 l 521 521 l 521 347 l 868 347 l 868 521 l 1215 521 l 1215 347 l 1042 347 l 1042 174 l 868 174 l 868 0 l 521 0 l 521 174 l 347 174 l 347 347 l 174 347 l 174 521 l 0 521 l 0 1042 l 174 1042 l 174 1215 l 347 1215 l 347 1389 l 1042 1389 l 1042 1215 l 1215 1215 z "},"Ҭ":{"ha":1389,"x_min":174,"x_max":1215,"o":"m 1215 1389 l 1215 1215 l 868 1215 l 868 347 l 1042 347 l 1042 0 l 694 0 l 694 174 l 521 174 l 521 1215 l 174 1215 l 174 1389 l 1215 1389 z "},"Ү":{"ha":1389,"x_min":174,"x_max":1215,"o":"m 521 174 l 521 694 l 347 694 l 347 868 l 174 868 l 174 1389 l 521 1389 l 521 868 l 868 868 l 868 1389 l 1215 1389 l 1215 868 l 1042 868 l 1042 694 l 868 694 l 868 174 l 521 174 z "},"Ұ":{"ha":1389,"x_min":174,"x_max":1215,"o":"m 1215 1389 l 1215 868 l 1042 868 l 1042 694 l 868 694 l 868 521 l 1042 521 l 1042 347 l 868 347 l 868 174 l 521 174 l 521 347 l 347 347 l 347 521 l 521 521 l 521 694 l 347 694 l 347 868 l 174 868 l 174 1389 l 521 1389 l 521 868 l 868 868 l 868 1389 l 1215 1389 z "},"Ҷ":{"ha":1389,"x_min":0,"x_max":1389,"o":"m 1215 347 l 1389 347 l 1389 0 l 1042 0 l 1042 174 l 868 174 l 868 694 l 174 694 l 174 868 l 0 868 l 0 1389 l 347 1389 l 347 868 l 868 868 l 868 1389 l 1215 1389 l 1215 347 z "},"Ҹ":{"ha":1389,"x_min":0,"x_max":1215,"o":"m 1215 1389 l 1215 174 l 868 174 l 868 694 l 694 694 l 694 521 l 521 521 l 521 694 l 174 694 l 174 868 l 0 868 l 0 1389 l 347 1389 l 347 868 l 521 868 l 521 1042 l 694 1042 l 694 868 l 868 868 l 868 1389 l 1215 1389 z "},"Һ":{"ha":1389,"x_min":174,"x_max":1389,"o":"m 174 174 l 174 1389 l 521 1389 l 521 868 l 1215 868 l 1215 694 l 1389 694 l 1389 174 l 1042 174 l 1042 694 l 521 694 l 521 174 l 174 174 z "},"Ӏ":{"ha":1389,"x_min":174,"x_max":1215,"o":"m 174 174 l 174 347 l 521 347 l 521 1215 l 174 1215 l 174 1389 l 1215 1389 l 1215 1215 l 868 1215 l 868 347 l 1215 347 l 1215 174 l 174 174 z "},"Ӂ":{"ha":1389,"x_min":0,"x_max":1215,"o":"m 174 1215 l 174 1389 l 1042 1389 l 1042 1215 l 174 1215 m 0 174 l 0 521 l 174 521 l 174 694 l 0 694 l 0 1042 l 347 1042 l 347 694 l 521 694 l 521 1042 l 694 1042 l 694 694 l 868 694 l 868 1042 l 1215 1042 l 1215 694 l 1042 694 l 1042 521 l 1215 521 l 1215 174 l 868 174 l 868 521 l 694 521 l 694 174 l 521 174 l 521 521 l 347 521 l 347 174 l 0 174 z "},"Ӌ":{"ha":1389,"x_min":0,"x_max":1389,"o":"m 1215 347 l 1389 347 l 1389 0 l 1042 0 l 1042 174 l 868 174 l 868 694 l 174 694 l 174 868 l 0 868 l 0 1389 l 347 1389 l 347 868 l 868 868 l 868 1389 l 1215 1389 l 1215 347 z "},"Ӑ":{"ha":1389,"x_min":0,"x_max":1215,"o":"m 174 1215 l 174 1389 l 1042 1389 l 1042 1215 l 174 1215 m 0 174 l 0 694 l 174 694 l 174 868 l 347 868 l 347 1042 l 868 1042 l 868 868 l 1042 868 l 1042 694 l 1215 694 l 1215 174 l 868 174 l 868 347 l 347 347 l 347 174 l 0 174 m 347 521 l 868 521 l 868 694 l 694 694 l 694 868 l 521 868 l 521 694 l 347 694 l 347 521 z "},"Ӓ":{"ha":1389,"x_min":0,"x_max":1215,"o":"m 174 1215 l 174 1389 l 521 1389 l 521 1215 l 174 1215 m 694 1215 l 694 1389 l 1042 1389 l 1042 1215 l 694 1215 m 0 174 l 0 694 l 174 694 l 174 868 l 347 868 l 347 1042 l 868 1042 l 868 868 l 1042 868 l 1042 694 l 1215 694 l 1215 174 l 868 174 l 868 347 l 347 347 l 347 174 l 0 174 m 347 521 l 868 521 l 868 694 l 694 694 l 694 868 l 521 868 l 521 694 l 347 694 l 347 521 z "},"Ӗ":{"ha":1389,"x_min":0,"x_max":1215,"o":"m 174 1215 l 174 1389 l 1042 1389 l 1042 1215 l 174 1215 m 0 174 l 0 1042 l 1215 1042 l 1215 868 l 347 868 l 347 694 l 1042 694 l 1042 521 l 347 521 l 347 347 l 1215 347 l 1215 174 l 0 174 z "},"Ә":{"ha":1389,"x_min":0,"x_max":1215,"o":"m 1215 1215 l 1215 347 l 1042 347 l 1042 174 l 174 174 l 174 347 l 0 347 l 0 868 l 868 868 l 868 1215 l 347 1215 l 347 1042 l 0 1042 l 0 1215 l 174 1215 l 174 1389 l 1042 1389 l 1042 1215 l 1215 1215 m 868 347 l 868 694 l 347 694 l 347 347 l 868 347 z "},"Ӝ":{"ha":1389,"x_min":0,"x_max":1215,"o":"m 174 1215 l 174 1389 l 521 1389 l 521 1215 l 174 1215 m 694 1215 l 694 1389 l 1042 1389 l 1042 1215 l 694 1215 m 0 174 l 0 521 l 174 521 l 174 694 l 0 694 l 0 1042 l 347 1042 l 347 694 l 521 694 l 521 1042 l 694 1042 l 694 694 l 868 694 l 868 1042 l 1215 1042 l 1215 694 l 1042 694 l 1042 521 l 1215 521 l 1215 174 l 868 174 l 868 521 l 694 521 l 694 174 l 521 174 l 521 521 l 347 521 l 347 174 l 0 174 z "},"Ӟ":{"ha":1389,"x_min":0,"x_max":1215,"o":"m 174 1215 l 174 1389 l 521 1389 l 521 1215 l 174 1215 m 694 1215 l 694 1389 l 1042 1389 l 1042 1215 l 694 1215 m 174 174 l 174 347 l 0 347 l 0 521 l 347 521 l 347 347 l 868 347 l 868 521 l 521 521 l 521 694 l 868 694 l 868 868 l 347 868 l 347 694 l 0 694 l 0 868 l 174 868 l 174 1042 l 1042 1042 l 1042 868 l 1215 868 l 1215 694 l 1042 694 l 1042 521 l 1215 521 l 1215 347 l 1042 347 l 1042 174 l 174 174 z "},"Ӣ":{"ha":1389,"x_min":0,"x_max":1215,"o":"m 174 1215 l 174 1389 l 1042 1389 l 1042 1215 l 174 1215 m 0 174 l 0 1042 l 347 1042 l 347 521 l 521 521 l 521 694 l 694 694 l 694 868 l 868 868 l 868 1042 l 1215 1042 l 1215 174 l 868 174 l 868 521 l 694 521 l 694 347 l 521 347 l 521 174 l 0 174 z "},"Ӥ":{"ha":1389,"x_min":0,"x_max":1215,"o":"m 174 1215 l 174 1389 l 521 1389 l 521 1215 l 174 1215 m 694 1215 l 694 1389 l 1042 1389 l 1042 1215 l 694 1215 m 0 174 l 0 1042 l 347 1042 l 347 521 l 521 521 l 521 694 l 694 694 l 694 868 l 868 868 l 868 1042 l 1215 1042 l 1215 174 l 868 174 l 868 521 l 694 521 l 694 347 l 521 347 l 521 174 l 0 174 z "},"Ӧ":{"ha":1389,"x_min":0,"x_max":1215,"o":"m 174 1215 l 174 1389 l 521 1389 l 521 1215 l 174 1215 m 694 1215 l 694 1389 l 1042 1389 l 1042 1215 l 694 1215 m 174 174 l 174 347 l 0 347 l 0 868 l 174 868 l 174 1042 l 1042 1042 l 1042 868 l 1215 868 l 1215 347 l 1042 347 l 1042 174 l 174 174 m 347 347 l 868 347 l 868 868 l 347 868 l 347 347 z "},"Ө":{"ha":1389,"x_min":0,"x_max":1215,"o":"m 174 174 l 174 347 l 0 347 l 0 1215 l 174 1215 l 174 1389 l 1042 1389 l 1042 1215 l 1215 1215 l 1215 347 l 1042 347 l 1042 174 l 174 174 m 347 347 l 868 347 l 868 1215 l 347 1215 l 347 347 m 174 694 l 1042 694 l 1042 868 l 174 868 l 174 694 z "},"Ӯ":{"ha":1389,"x_min":0,"x_max":1215,"o":"m 174 1215 l 174 1389 l 1042 1389 l 1042 1215 l 174 1215 m 174 174 l 174 347 l 868 347 l 868 521 l 174 521 l 174 694 l 0 694 l 0 1042 l 347 1042 l 347 694 l 868 694 l 868 1042 l 1215 1042 l 1215 347 l 1042 347 l 1042 174 l 174 174 z "},"Ӱ":{"ha":1389,"x_min":0,"x_max":1215,"o":"m 174 1215 l 174 1389 l 521 1389 l 521 1215 l 174 1215 m 694 1215 l 694 1389 l 1042 1389 l 1042 1215 l 694 1215 m 174 174 l 174 347 l 868 347 l 868 521 l 174 521 l 174 694 l 0 694 l 0 1042 l 347 1042 l 347 694 l 868 694 l 868 1042 l 1215 1042 l 1215 347 l 1042 347 l 1042 174 l 174 174 z "},"Ӳ":{"ha":1389,"x_min":0,"x_max":1215,"o":"m 521 1215 l 347 1215 l 347 1389 l 521 1389 l 521 1215 m 1042 1215 l 868 1215 l 868 1389 l 1042 1389 l 1042 1215 m 868 1042 l 1215 1042 l 1215 347 l 1042 347 l 1042 174 l 174 174 l 174 347 l 868 347 l 868 521 l 174 521 l 174 694 l 0 694 l 0 1042 l 174 1042 l 174 1215 l 347 1215 l 347 694 l 868 694 l 868 1042 m 868 1215 l 868 1042 l 694 1042 l 694 1215 l 868 1215 z "},"Ӵ":{"ha":1389,"x_min":0,"x_max":1215,"o":"m 174 1215 l 174 1389 l 521 1389 l 521 1215 l 174 1215 m 694 1215 l 694 1389 l 1042 1389 l 1042 1215 l 694 1215 m 868 174 l 868 521 l 174 521 l 174 694 l 0 694 l 0 1042 l 347 1042 l 347 694 l 868 694 l 868 1042 l 1215 1042 l 1215 174 l 868 174 z "},"Ӷ":{"ha":1389,"x_min":174,"x_max":1215,"o":"m 1215 1389 l 1215 1042 l 1042 1042 l 1042 1215 l 521 1215 l 521 347 l 694 347 l 694 0 l 347 0 l 347 174 l 174 174 l 174 1389 l 1215 1389 z "},"Ӹ":{"ha":1389,"x_min":0,"x_max":1215,"o":"m 174 1215 l 174 1389 l 521 1389 l 521 1215 l 174 1215 m 694 1215 l 694 1389 l 1042 1389 l 1042 1215 l 694 1215 m 0 174 l 0 1042 l 347 1042 l 347 868 l 694 868 l 694 174 l 0 174 m 868 174 l 868 1042 l 1215 1042 l 1215 174 l 868 174 m 347 347 l 521 347 l 521 694 l 347 694 l 347 347 z "},"Ԛ":{"ha":1389,"x_min":0,"x_max":1215,"o":"m 1215 1215 l 1215 521 l 1042 521 l 1042 347 l 868 347 l 868 174 l 174 174 l 174 347 l 0 347 l 0 1215 l 174 1215 l 174 1389 l 1042 1389 l 1042 1215 l 1215 1215 m 868 1215 l 347 1215 l 347 347 l 694 347 l 694 521 l 521 521 l 521 694 l 868 694 l 868 1215 m 1042 174 l 1042 347 l 1215 347 l 1215 174 l 1042 174 z "},"Ԝ":{"ha":1389,"x_min":0,"x_max":1215,"o":"m 174 174 l 174 347 l 0 347 l 0 1389 l 347 1389 l 347 694 l 521 694 l 521 1389 l 694 1389 l 694 694 l 868 694 l 868 1389 l 1215 1389 l 1215 347 l 1042 347 l 1042 174 l 868 174 l 868 347 l 694 347 l 694 521 l 521 521 l 521 347 l 347 347 l 347 174 l 174 174 z "},"а":{"ha":1389,"x_min":0,"x_max":1215,"o":"m 174 174 l 174 347 l 0 347 l 0 521 l 174 521 l 174 694 l 868 694 l 868 868 l 174 868 l 174 1042 l 1042 1042 l 1042 868 l 1215 868 l 1215 174 l 174 174 m 347 347 l 868 347 l 868 521 l 347 521 l 347 347 z "},"б":{"ha":1389,"x_min":0,"x_max":1215,"o":"m 1215 1389 l 1215 1215 l 347 1215 l 347 868 l 521 868 l 521 694 l 347 694 l 347 347 l 868 347 l 868 868 l 521 868 l 521 1042 l 1042 1042 l 1042 868 l 1215 868 l 1215 347 l 1042 347 l 1042 174 l 174 174 l 174 347 l 0 347 l 0 1215 l 174 1215 l 174 1389 l 1215 1389 z "},"в":{"ha":1389,"x_min":0,"x_max":1215,"o":"m 0 174 l 0 1042 l 1042 1042 l 1042 868 l 1215 868 l 1215 694 l 1042 694 l 1042 521 l 1215 521 l 1215 347 l 1042 347 l 1042 174 l 0 174 m 347 694 l 868 694 l 868 868 l 347 868 l 347 694 m 347 347 l 868 347 l 868 521 l 347 521 l 347 347 z "},"г":{"ha":1389,"x_min":174,"x_max":1215,"o":"m 174 174 l 174 1042 l 1215 1042 l 1215 694 l 1042 694 l 1042 868 l 521 868 l 521 174 l 174 174 z "},"ѓ":{"ha":1389,"x_min":174,"x_max":1215,"o":"m 1042 1215 l 868 1215 l 868 1389 l 1042 1389 l 1042 1215 m 1215 1042 l 1215 694 l 1042 694 l 1042 868 l 521 868 l 521 174 l 174 174 l 174 1042 l 694 1042 l 694 1215 l 868 1215 l 868 1042 l 1215 1042 z "},"ґ":{"ha":1389,"x_min":174,"x_max":1215,"o":"m 868 1215 l 1215 1215 l 1215 868 l 521 868 l 521 174 l 174 174 l 174 1042 l 868 1042 l 868 1215 z "},"д":{"ha":1389,"x_min":0,"x_max":1389,"o":"m 1215 347 l 1389 347 l 1389 0 l 1042 0 l 1042 174 l 347 174 l 347 0 l 0 0 l 0 347 l 174 347 l 174 521 l 347 521 l 347 1042 l 1215 1042 l 1215 347 m 521 347 l 868 347 l 868 868 l 521 868 l 521 347 z "},"е":{"ha":1389,"x_min":0,"x_max":1215,"o":"m 174 174 l 174 347 l 0 347 l 0 868 l 174 868 l 174 1042 l 1042 1042 l 1042 868 l 1215 868 l 1215 521 l 347 521 l 347 347 l 1042 347 l 1042 174 l 174 174 m 347 694 l 868 694 l 868 868 l 347 868 l 347 694 z "},"ѐ":{"ha":1389,"x_min":0,"x_max":1215,"o":"m 521 1389 l 521 1215 l 347 1215 l 347 1389 l 521 1389 m 1215 868 l 1215 521 l 347 521 l 347 347 l 1042 347 l 1042 174 l 174 174 l 174 347 l 0 347 l 0 868 l 174 868 l 174 1042 l 521 1042 l 521 1215 l 694 1215 l 694 1042 l 1042 1042 l 1042 868 l 1215 868 m 868 868 l 347 868 l 347 694 l 868 694 l 868 868 z "},"ё":{"ha":1389,"x_min":0,"x_max":1215,"o":"m 174 1215 l 174 1389 l 521 1389 l 521 1215 l 174 1215 m 694 1215 l 694 1389 l 1042 1389 l 1042 1215 l 694 1215 m 174 174 l 174 347 l 0 347 l 0 868 l 174 868 l 174 1042 l 1042 1042 l 1042 868 l 1215 868 l 1215 521 l 347 521 l 347 347 l 1042 347 l 1042 174 l 174 174 m 347 694 l 868 694 l 868 868 l 347 868 l 347 694 z "},"ж":{"ha":1389,"x_min":0,"x_max":1215,"o":"m 0 174 l 0 521 l 174 521 l 174 694 l 0 694 l 0 1042 l 347 1042 l 347 694 l 521 694 l 521 1042 l 694 1042 l 694 694 l 868 694 l 868 1042 l 1215 1042 l 1215 694 l 1042 694 l 1042 521 l 1215 521 l 1215 174 l 868 174 l 868 521 l 694 521 l 694 174 l 521 174 l 521 521 l 347 521 l 347 174 l 0 174 z "},"з":{"ha":1389,"x_min":0,"x_max":1215,"o":"m 174 174 l 174 347 l 0 347 l 0 521 l 347 521 l 347 347 l 868 347 l 868 521 l 521 521 l 521 694 l 868 694 l 868 868 l 347 868 l 347 694 l 0 694 l 0 868 l 174 868 l 174 1042 l 1042 1042 l 1042 868 l 1215 868 l 1215 694 l 1042 694 l 1042 521 l 1215 521 l 1215 347 l 1042 347 l 1042 174 l 174 174 z "},"и":{"ha":1389,"x_min":0,"x_max":1215,"o":"m 347 521 l 521 521 l 521 347 l 347 347 l 347 174 l 0 174 l 0 1042 l 347 1042 l 347 521 m 1215 1042 l 1215 174 l 868 174 l 868 694 l 694 694 l 694 868 l 868 868 l 868 1042 l 1215 1042 m 521 694 l 694 694 l 694 521 l 521 521 l 521 694 z "},"й":{"ha":1389,"x_min":0,"x_max":1215,"o":"m 1042 1389 l 1042 1215 l 174 1215 l 174 1389 l 1042 1389 m 347 521 l 521 521 l 521 347 l 347 347 l 347 174 l 0 174 l 0 1042 l 347 1042 l 347 521 m 1215 1042 l 1215 174 l 868 174 l 868 694 l 694 694 l 694 868 l 868 868 l 868 1042 l 1215 1042 m 521 694 l 694 694 l 694 521 l 521 521 l 521 694 z "},"ѝ":{"ha":1389,"x_min":0,"x_max":1215,"o":"m 521 1215 l 347 1215 l 347 1389 l 521 1389 l 521 1215 m 521 1042 l 521 1215 l 694 1215 l 694 1042 l 521 1042 m 347 521 l 521 521 l 521 347 l 347 347 l 347 174 l 0 174 l 0 1042 l 347 1042 l 347 521 m 1215 1042 l 1215 174 l 868 174 l 868 694 l 694 694 l 694 868 l 868 868 l 868 1042 l 1215 1042 m 521 694 l 694 694 l 694 521 l 521 521 l 521 694 z "},"к":{"ha":1389,"x_min":0,"x_max":1215,"o":"m 694 868 l 868 868 l 868 694 l 1042 694 l 1042 521 l 1215 521 l 1215 174 l 868 174 l 868 521 l 347 521 l 347 174 l 0 174 l 0 1042 l 347 1042 l 347 694 l 694 694 l 694 868 m 1215 1042 l 1215 868 l 868 868 l 868 1042 l 1215 1042 z "},"ќ":{"ha":1389,"x_min":0,"x_max":1215,"o":"m 868 1215 l 694 1215 l 694 1389 l 868 1389 l 868 1215 m 694 1042 l 521 1042 l 521 1215 l 694 1215 l 694 1042 m 694 868 l 868 868 l 868 694 l 1042 694 l 1042 521 l 1215 521 l 1215 174 l 868 174 l 868 521 l 347 521 l 347 174 l 0 174 l 0 1042 l 347 1042 l 347 694 l 694 694 l 694 868 m 1215 1042 l 1215 868 l 868 868 l 868 1042 l 1215 1042 z "},"л":{"ha":1389,"x_min":0,"x_max":1215,"o":"m 1215 1042 l 1215 174 l 868 174 l 868 868 l 521 868 l 521 347 l 347 347 l 347 174 l 0 174 l 0 521 l 174 521 l 174 694 l 347 694 l 347 1042 l 1215 1042 z "},"м":{"ha":1389,"x_min":0,"x_max":1215,"o":"m 521 868 l 521 694 l 347 694 l 347 174 l 0 174 l 0 1042 l 347 1042 l 347 868 l 521 868 m 1215 1042 l 1215 174 l 868 174 l 868 694 l 694 694 l 694 868 l 868 868 l 868 1042 l 1215 1042 m 521 694 l 694 694 l 694 347 l 521 347 l 521 694 z "},"н":{"ha":1389,"x_min":0,"x_max":1215,"o":"m 0 174 l 0 1042 l 347 1042 l 347 694 l 868 694 l 868 1042 l 1215 1042 l 1215 174 l 868 174 l 868 521 l 347 521 l 347 174 l 0 174 z "},"о":{"ha":1389,"x_min":0,"x_max":1215,"o":"m 174 174 l 174 347 l 0 347 l 0 868 l 174 868 l 174 1042 l 1042 1042 l 1042 868 l 1215 868 l 1215 347 l 1042 347 l 1042 174 l 174 174 m 347 347 l 868 347 l 868 868 l 347 868 l 347 347 z "},"п":{"ha":1389,"x_min":0,"x_max":1215,"o":"m 0 174 l 0 1042 l 1215 1042 l 1215 174 l 868 174 l 868 868 l 347 868 l 347 174 l 0 174 z "},"р":{"ha":1389,"x_min":0,"x_max":1215,"o":"m 1215 868 l 1215 347 l 1042 347 l 1042 174 l 347 174 l 347 0 l 0 0 l 0 1042 l 347 1042 l 347 868 l 521 868 l 521 694 l 347 694 l 347 347 l 868 347 l 868 868 l 521 868 l 521 1042 l 1042 1042 l 1042 868 l 1215 868 z "},"с":{"ha":1389,"x_min":0,"x_max":1215,"o":"m 174 174 l 174 347 l 0 347 l 0 868 l 174 868 l 174 1042 l 1042 1042 l 1042 868 l 1215 868 l 1215 694 l 868 694 l 868 868 l 347 868 l 347 347 l 868 347 l 868 521 l 1215 521 l 1215 347 l 1042 347 l 1042 174 l 174 174 z "},"т":{"ha":1389,"x_min":174,"x_max":1215,"o":"m 521 174 l 521 868 l 174 868 l 174 1042 l 1215 1042 l 1215 868 l 868 868 l 868 174 l 521 174 z "},"у":{"ha":1389,"x_min":0,"x_max":1215,"o":"m 174 0 l 174 174 l 868 174 l 868 347 l 174 347 l 174 521 l 0 521 l 0 1042 l 347 1042 l 347 521 l 868 521 l 868 1042 l 1215 1042 l 1215 174 l 1042 174 l 1042 0 l 174 0 z "},"ў":{"ha":1389,"x_min":0,"x_max":1215,"o":"m 174 1215 l 174 1389 l 1042 1389 l 1042 1215 l 174 1215 m 174 0 l 174 174 l 868 174 l 868 347 l 174 347 l 174 521 l 0 521 l 0 1042 l 347 1042 l 347 521 l 868 521 l 868 1042 l 1215 1042 l 1215 174 l 1042 174 l 1042 0 l 174 0 z "},"ф":{"ha":1389,"x_min":0,"x_max":1215,"o":"m 521 0 l 521 174 l 174 174 l 174 347 l 0 347 l 0 868 l 174 868 l 174 1042 l 521 1042 l 521 1215 l 694 1215 l 694 1042 l 1042 1042 l 1042 868 l 1215 868 l 1215 347 l 1042 347 l 1042 174 l 694 174 l 694 0 l 521 0 m 347 347 l 521 347 l 521 868 l 347 868 l 347 347 m 694 347 l 868 347 l 868 868 l 694 868 l 694 347 z "},"х":{"ha":1389,"x_min":0,"x_max":1215,"o":"m 0 174 l 0 347 l 174 347 l 174 521 l 347 521 l 347 694 l 174 694 l 174 868 l 0 868 l 0 1042 l 347 1042 l 347 868 l 521 868 l 521 694 l 694 694 l 694 868 l 868 868 l 868 1042 l 1215 1042 l 1215 868 l 1042 868 l 1042 694 l 868 694 l 868 521 l 1042 521 l 1042 347 l 1215 347 l 1215 174 l 868 174 l 868 347 l 694 347 l 694 521 l 521 521 l 521 347 l 347 347 l 347 174 l 0 174 z "},"ч":{"ha":1389,"x_min":0,"x_max":1215,"o":"m 868 174 l 868 521 l 174 521 l 174 694 l 0 694 l 0 1042 l 347 1042 l 347 694 l 868 694 l 868 1042 l 1215 1042 l 1215 174 l 868 174 z "},"ц":{"ha":1389,"x_min":0,"x_max":1215,"o":"m 868 0 l 868 174 l 0 174 l 0 1042 l 347 1042 l 347 347 l 694 347 l 694 1042 l 1042 1042 l 1042 347 l 1215 347 l 1215 0 l 868 0 z "},"ш":{"ha":1389,"x_min":0,"x_max":1215,"o":"m 0 174 l 0 1042 l 347 1042 l 347 347 l 521 347 l 521 1042 l 694 1042 l 694 347 l 868 347 l 868 1042 l 1215 1042 l 1215 174 l 0 174 z "},"щ":{"ha":1389,"x_min":0,"x_max":1389,"o":"m 1042 0 l 1042 174 l 0 174 l 0 1042 l 347 1042 l 347 347 l 521 347 l 521 1042 l 694 1042 l 694 347 l 868 347 l 868 1042 l 1215 1042 l 1215 347 l 1389 347 l 1389 0 l 1042 0 z "},"џ":{"ha":1389,"x_min":0,"x_max":1215,"o":"m 521 0 l 521 174 l 0 174 l 0 1042 l 347 1042 l 347 347 l 868 347 l 868 1042 l 1215 1042 l 1215 174 l 694 174 l 694 0 l 521 0 z "},"ь":{"ha":1389,"x_min":0,"x_max":1215,"o":"m 0 174 l 0 1042 l 347 1042 l 347 694 l 1042 694 l 1042 521 l 1215 521 l 1215 347 l 1042 347 l 1042 174 l 0 174 m 347 347 l 868 347 l 868 521 l 347 521 l 347 347 z "},"ъ":{"ha":1389,"x_min":0,"x_max":1215,"o":"m 174 174 l 174 868 l 0 868 l 0 1042 l 521 1042 l 521 694 l 1042 694 l 1042 521 l 1215 521 l 1215 347 l 1042 347 l 1042 174 l 174 174 m 521 347 l 868 347 l 868 521 l 521 521 l 521 347 z "},"ы":{"ha":1389,"x_min":0,"x_max":1215,"o":"m 0 174 l 0 1042 l 347 1042 l 347 694 l 694 694 l 694 174 l 0 174 m 868 174 l 868 1042 l 1215 1042 l 1215 174 l 868 174 m 347 347 l 521 347 l 521 521 l 347 521 l 347 347 z "},"љ":{"ha":1389,"x_min":0,"x_max":1215,"o":"m 0 174 l 0 521 l 174 521 l 174 1042 l 868 1042 l 868 868 l 1215 868 l 1215 174 l 521 174 l 521 868 l 347 868 l 347 174 l 0 174 m 868 347 l 1042 347 l 1042 694 l 868 694 l 868 347 z "},"њ":{"ha":1389,"x_min":0,"x_max":1215,"o":"m 0 174 l 0 1042 l 347 1042 l 347 694 l 521 694 l 521 1042 l 868 1042 l 868 868 l 1215 868 l 1215 174 l 521 174 l 521 521 l 347 521 l 347 174 l 0 174 m 868 347 l 1042 347 l 1042 694 l 868 694 l 868 347 z "},"ѕ":{"ha":1389,"x_min":0,"x_max":1215,"o":"m 0 174 l 0 347 l 868 347 l 868 521 l 174 521 l 174 694 l 0 694 l 0 868 l 174 868 l 174 1042 l 1042 1042 l 1042 868 l 347 868 l 347 694 l 1042 694 l 1042 521 l 1215 521 l 1215 347 l 1042 347 l 1042 174 l 0 174 z "},"є":{"ha":1389,"x_min":0,"x_max":1215,"o":"m 174 174 l 174 347 l 0 347 l 0 868 l 174 868 l 174 1042 l 1042 1042 l 1042 868 l 1215 868 l 1215 694 l 868 694 l 868 868 l 347 868 l 347 694 l 694 694 l 694 521 l 347 521 l 347 347 l 868 347 l 868 521 l 1215 521 l 1215 347 l 1042 347 l 1042 174 l 174 174 z "},"э":{"ha":1389,"x_min":0,"x_max":1215,"o":"m 174 174 l 174 347 l 0 347 l 0 521 l 347 521 l 347 347 l 868 347 l 868 521 l 521 521 l 521 694 l 868 694 l 868 868 l 347 868 l 347 694 l 0 694 l 0 868 l 174 868 l 174 1042 l 1042 1042 l 1042 868 l 1215 868 l 1215 347 l 1042 347 l 1042 174 l 174 174 z "},"і":{"ha":1389,"x_min":174,"x_max":1215,"o":"m 521 1215 l 521 1389 l 868 1389 l 868 1215 l 521 1215 m 174 174 l 174 347 l 521 347 l 521 868 l 347 868 l 347 1042 l 868 1042 l 868 347 l 1215 347 l 1215 174 l 174 174 z "},"ї":{"ha":1389,"x_min":174,"x_max":1215,"o":"m 174 1215 l 174 1389 l 521 1389 l 521 1215 l 174 1215 m 694 1215 l 694 1389 l 1042 1389 l 1042 1215 l 694 1215 m 174 174 l 174 347 l 521 347 l 521 868 l 347 868 l 347 1042 l 868 1042 l 868 347 l 1215 347 l 1215 174 l 174 174 z "},"ј":{"ha":1389,"x_min":174,"x_max":1042,"o":"m 694 1215 l 694 1389 l 1042 1389 l 1042 1215 l 694 1215 m 174 0 l 174 174 l 694 174 l 694 868 l 521 868 l 521 1042 l 1042 1042 l 1042 174 l 868 174 l 868 0 l 174 0 z "},"ћ":{"ha":1389,"x_min":0,"x_max":1215,"o":"m 174 174 l 174 1042 l 0 1042 l 0 1215 l 174 1215 l 174 1389 l 521 1389 l 521 1215 l 868 1215 l 868 1042 l 521 1042 l 521 868 l 1042 868 l 1042 694 l 1215 694 l 1215 174 l 868 174 l 868 694 l 521 694 l 521 174 l 174 174 z "},"ю":{"ha":1389,"x_min":0,"x_max":1215,"o":"m 0 174 l 0 1042 l 174 1042 l 174 694 l 347 694 l 347 868 l 521 868 l 521 1042 l 1042 1042 l 1042 868 l 1215 868 l 1215 347 l 1042 347 l 1042 174 l 521 174 l 521 347 l 347 347 l 347 521 l 174 521 l 174 174 l 0 174 m 694 347 l 868 347 l 868 868 l 694 868 l 694 347 z "},"я":{"ha":1389,"x_min":0,"x_max":1215,"o":"m 0 174 l 0 521 l 174 521 l 174 694 l 0 694 l 0 868 l 174 868 l 174 1042 l 1215 1042 l 1215 174 l 868 174 l 868 521 l 347 521 l 347 174 l 0 174 m 347 694 l 868 694 l 868 868 l 347 868 l 347 694 z "},"ђ":{"ha":1389,"x_min":0,"x_max":1215,"o":"m 694 0 l 694 174 l 868 174 l 868 694 l 521 694 l 521 174 l 174 174 l 174 1042 l 0 1042 l 0 1215 l 174 1215 l 174 1389 l 521 1389 l 521 1215 l 868 1215 l 868 1042 l 521 1042 l 521 868 l 1042 868 l 1042 694 l 1215 694 l 1215 174 l 1042 174 l 1042 0 l 694 0 z "},"ѣ":{"ha":1389,"x_min":0,"x_max":1215,"o":"m 1215 521 l 1215 347 l 1042 347 l 1042 174 l 174 174 l 174 868 l 0 868 l 0 1042 l 174 1042 l 174 1389 l 521 1389 l 521 1042 l 868 1042 l 868 868 l 521 868 l 521 694 l 1042 694 l 1042 521 l 1215 521 m 868 521 l 521 521 l 521 347 l 868 347 l 868 521 z "},"ѫ":{"ha":1389,"x_min":0,"x_max":1215,"o":"m 868 868 l 347 868 l 347 694 l 174 694 l 174 868 l 0 868 l 0 1042 l 1215 1042 l 1215 868 l 1042 868 l 1042 694 l 868 694 l 868 868 m 347 694 l 868 694 l 868 521 l 694 521 l 694 174 l 521 174 l 521 521 l 347 521 l 347 694 m 0 174 l 0 521 l 347 521 l 347 174 l 0 174 m 1215 174 l 868 174 l 868 521 l 1215 521 l 1215 174 z "},"ѳ":{"ha":1389,"x_min":0,"x_max":1215,"o":"m 174 174 l 174 347 l 0 347 l 0 868 l 174 868 l 174 1042 l 1042 1042 l 1042 868 l 1215 868 l 1215 347 l 1042 347 l 1042 174 l 174 174 m 347 347 l 868 347 l 868 868 l 347 868 l 347 347 m 174 521 l 1042 521 l 1042 694 l 174 694 l 174 521 z "},"ѵ":{"ha":1389,"x_min":174,"x_max":1215,"o":"m 521 174 l 521 347 l 347 347 l 347 521 l 174 521 l 174 1042 l 521 1042 l 521 521 l 868 521 l 868 1042 l 1215 1042 l 1215 868 l 1042 868 l 1042 347 l 868 347 l 868 174 l 521 174 z "},"ғ":{"ha":1389,"x_min":0,"x_max":1215,"o":"m 1215 1042 l 1215 694 l 1042 694 l 1042 868 l 521 868 l 521 694 l 868 694 l 868 521 l 521 521 l 521 174 l 174 174 l 174 521 l 0 521 l 0 694 l 174 694 l 174 1042 l 1215 1042 z "},"ҕ":{"ha":1389,"x_min":174,"x_max":1215,"o":"m 521 868 l 521 694 l 1042 694 l 1042 521 l 1215 521 l 1215 174 l 1042 174 l 1042 0 l 694 0 l 694 174 l 868 174 l 868 521 l 521 521 l 521 174 l 174 174 l 174 1042 l 1215 1042 l 1215 868 l 521 868 z "},"җ":{"ha":1389,"x_min":0,"x_max":1389,"o":"m 1215 347 l 1389 347 l 1389 0 l 1042 0 l 1042 174 l 868 174 l 868 521 l 694 521 l 694 174 l 521 174 l 521 521 l 347 521 l 347 174 l 0 174 l 0 521 l 174 521 l 174 694 l 0 694 l 0 1042 l 347 1042 l 347 694 l 521 694 l 521 1042 l 694 1042 l 694 694 l 868 694 l 868 1042 l 1215 1042 l 1215 694 l 1042 694 l 1042 521 l 1215 521 l 1215 347 z "},"ҙ":{"ha":1389,"x_min":0,"x_max":1215,"o":"m 1215 694 l 1042 694 l 1042 521 l 1215 521 l 1215 347 l 1042 347 l 1042 174 l 694 174 l 694 0 l 521 0 l 521 174 l 174 174 l 174 347 l 0 347 l 0 521 l 347 521 l 347 347 l 868 347 l 868 521 l 521 521 l 521 694 l 868 694 l 868 868 l 347 868 l 347 694 l 0 694 l 0 868 l 174 868 l 174 1042 l 1042 1042 l 1042 868 l 1215 868 l 1215 694 z "},"қ":{"ha":1389,"x_min":0,"x_max":1389,"o":"m 1215 347 l 1389 347 l 1389 0 l 1042 0 l 1042 174 l 868 174 l 868 521 l 347 521 l 347 174 l 0 174 l 0 1042 l 347 1042 l 347 694 l 694 694 l 694 868 l 868 868 l 868 694 l 1042 694 l 1042 521 l 1215 521 l 1215 347 m 1215 1042 l 1215 868 l 868 868 l 868 1042 l 1215 1042 z "},"ҝ":{"ha":1389,"x_min":0,"x_max":1215,"o":"m 694 694 l 868 694 l 868 521 l 694 521 l 694 347 l 521 347 l 521 521 l 347 521 l 347 174 l 0 174 l 0 1042 l 347 1042 l 347 694 l 521 694 l 521 868 l 694 868 l 694 694 m 1042 868 l 1042 694 l 868 694 l 868 1042 l 1215 1042 l 1215 868 l 1042 868 m 1215 174 l 868 174 l 868 521 l 1215 521 l 1215 174 z "},"ҡ":{"ha":1389,"x_min":0,"x_max":1215,"o":"m 694 868 l 868 868 l 868 694 l 1042 694 l 1042 521 l 1215 521 l 1215 174 l 868 174 l 868 521 l 521 521 l 521 174 l 174 174 l 174 868 l 0 868 l 0 1042 l 521 1042 l 521 694 l 694 694 l 694 868 m 1215 1042 l 1215 868 l 868 868 l 868 1042 l 1215 1042 z "},"ң":{"ha":1389,"x_min":0,"x_max":1389,"o":"m 1215 347 l 1389 347 l 1389 0 l 1042 0 l 1042 174 l 868 174 l 868 521 l 347 521 l 347 174 l 0 174 l 0 1042 l 347 1042 l 347 694 l 868 694 l 868 1042 l 1215 1042 l 1215 347 z "},"ԥ":{"ha":1389,"x_min":0,"x_max":1389,"o":"m 1215 347 l 1389 347 l 1389 0 l 1042 0 l 1042 174 l 868 174 l 868 868 l 347 868 l 347 174 l 0 174 l 0 1042 l 1215 1042 l 1215 347 z "},"ҫ":{"ha":1389,"x_min":0,"x_max":1215,"o":"m 1215 694 l 868 694 l 868 868 l 347 868 l 347 347 l 868 347 l 868 521 l 1215 521 l 1215 347 l 1042 347 l 1042 174 l 694 174 l 694 0 l 521 0 l 521 174 l 174 174 l 174 347 l 0 347 l 0 868 l 174 868 l 174 1042 l 1042 1042 l 1042 868 l 1215 868 l 1215 694 z "},"ҭ":{"ha":1389,"x_min":174,"x_max":1215,"o":"m 1215 1042 l 1215 868 l 868 868 l 868 347 l 1042 347 l 1042 0 l 694 0 l 694 174 l 521 174 l 521 868 l 174 868 l 174 1042 l 1215 1042 z "},"ү":{"ha":1389,"x_min":174,"x_max":1215,"o":"m 1215 1042 l 1215 521 l 1042 521 l 1042 347 l 868 347 l 868 0 l 521 0 l 521 347 l 347 347 l 347 521 l 174 521 l 174 1042 l 521 1042 l 521 521 l 868 521 l 868 1042 l 1215 1042 z "},"ұ":{"ha":1389,"x_min":174,"x_max":1215,"o":"m 1215 1042 l 1215 694 l 1042 694 l 1042 521 l 868 521 l 868 347 l 1042 347 l 1042 174 l 868 174 l 868 0 l 521 0 l 521 174 l 347 174 l 347 347 l 521 347 l 521 521 l 347 521 l 347 694 l 174 694 l 174 1042 l 521 1042 l 521 694 l 868 694 l 868 1042 l 1215 1042 z "},"ҷ":{"ha":1389,"x_min":0,"x_max":1389,"o":"m 1215 347 l 1389 347 l 1389 0 l 1042 0 l 1042 174 l 868 174 l 868 521 l 174 521 l 174 694 l 0 694 l 0 1042 l 347 1042 l 347 694 l 868 694 l 868 1042 l 1215 1042 l 1215 347 z "},"ҹ":{"ha":1389,"x_min":0,"x_max":1215,"o":"m 1215 1042 l 1215 174 l 868 174 l 868 521 l 694 521 l 694 347 l 521 347 l 521 521 l 174 521 l 174 694 l 0 694 l 0 1042 l 347 1042 l 347 694 l 521 694 l 521 868 l 694 868 l 694 694 l 868 694 l 868 1042 l 1215 1042 z "},"һ":{"ha":1389,"x_min":0,"x_max":1215,"o":"m 347 868 l 521 868 l 521 694 l 347 694 l 347 174 l 0 174 l 0 1389 l 347 1389 l 347 868 m 1215 868 l 1215 174 l 868 174 l 868 868 l 521 868 l 521 1042 l 1042 1042 l 1042 868 l 1215 868 z "},"ӏ":{"ha":1389,"x_min":174,"x_max":1215,"o":"m 174 174 l 174 347 l 521 347 l 521 1215 l 347 1215 l 347 1389 l 868 1389 l 868 347 l 1215 347 l 1215 174 l 174 174 z "},"ӂ":{"ha":1389,"x_min":0,"x_max":1215,"o":"m 174 1215 l 174 1389 l 1042 1389 l 1042 1215 l 174 1215 m 0 174 l 0 521 l 174 521 l 174 694 l 0 694 l 0 1042 l 347 1042 l 347 694 l 521 694 l 521 1042 l 694 1042 l 694 694 l 868 694 l 868 1042 l 1215 1042 l 1215 694 l 1042 694 l 1042 521 l 1215 521 l 1215 174 l 868 174 l 868 521 l 694 521 l 694 174 l 521 174 l 521 521 l 347 521 l 347 174 l 0 174 z "},"ӌ":{"ha":1389,"x_min":0,"x_max":1389,"o":"m 1215 347 l 1389 347 l 1389 0 l 1042 0 l 1042 174 l 868 174 l 868 521 l 174 521 l 174 694 l 0 694 l 0 1042 l 347 1042 l 347 694 l 868 694 l 868 1042 l 1215 1042 l 1215 347 z "},"ӑ":{"ha":1389,"x_min":0,"x_max":1215,"o":"m 174 1215 l 174 1389 l 1042 1389 l 1042 1215 l 174 1215 m 174 174 l 174 347 l 0 347 l 0 521 l 174 521 l 174 694 l 868 694 l 868 868 l 174 868 l 174 1042 l 1042 1042 l 1042 868 l 1215 868 l 1215 174 l 174 174 m 347 347 l 868 347 l 868 521 l 347 521 l 347 347 z "},"ӓ":{"ha":1389,"x_min":0,"x_max":1215,"o":"m 174 1215 l 174 1389 l 521 1389 l 521 1215 l 174 1215 m 694 1215 l 694 1389 l 1042 1389 l 1042 1215 l 694 1215 m 174 174 l 174 347 l 0 347 l 0 521 l 174 521 l 174 694 l 868 694 l 868 868 l 174 868 l 174 1042 l 1042 1042 l 1042 868 l 1215 868 l 1215 174 l 174 174 m 347 347 l 868 347 l 868 521 l 347 521 l 347 347 z "},"ӗ":{"ha":1389,"x_min":0,"x_max":1215,"o":"m 174 1215 l 174 1389 l 1042 1389 l 1042 1215 l 174 1215 m 174 174 l 174 347 l 0 347 l 0 868 l 174 868 l 174 1042 l 1042 1042 l 1042 868 l 1215 868 l 1215 521 l 347 521 l 347 347 l 1042 347 l 1042 174 l 174 174 m 347 694 l 868 694 l 868 868 l 347 868 l 347 694 z "},"ә":{"ha":1389,"x_min":0,"x_max":1215,"o":"m 174 174 l 174 347 l 0 347 l 0 694 l 868 694 l 868 868 l 174 868 l 174 1042 l 1042 1042 l 1042 868 l 1215 868 l 1215 347 l 1042 347 l 1042 174 l 174 174 m 347 347 l 868 347 l 868 521 l 347 521 l 347 347 z "},"ӝ":{"ha":1389,"x_min":0,"x_max":1215,"o":"m 174 1215 l 174 1389 l 521 1389 l 521 1215 l 174 1215 m 694 1215 l 694 1389 l 1042 1389 l 1042 1215 l 694 1215 m 0 174 l 0 521 l 174 521 l 174 694 l 0 694 l 0 1042 l 347 1042 l 347 694 l 521 694 l 521 1042 l 694 1042 l 694 694 l 868 694 l 868 1042 l 1215 1042 l 1215 694 l 1042 694 l 1042 521 l 1215 521 l 1215 174 l 868 174 l 868 521 l 694 521 l 694 174 l 521 174 l 521 521 l 347 521 l 347 174 l 0 174 z "},"ӟ":{"ha":1389,"x_min":0,"x_max":1215,"o":"m 174 1215 l 174 1389 l 521 1389 l 521 1215 l 174 1215 m 694 1215 l 694 1389 l 1042 1389 l 1042 1215 l 694 1215 m 174 174 l 174 347 l 0 347 l 0 521 l 347 521 l 347 347 l 868 347 l 868 521 l 521 521 l 521 694 l 868 694 l 868 868 l 347 868 l 347 694 l 0 694 l 0 868 l 174 868 l 174 1042 l 1042 1042 l 1042 868 l 1215 868 l 1215 694 l 1042 694 l 1042 521 l 1215 521 l 1215 347 l 1042 347 l 1042 174 l 174 174 z "},"ӣ":{"ha":1389,"x_min":0,"x_max":1215,"o":"m 1042 1215 l 174 1215 l 174 1389 l 1042 1389 l 1042 1215 m 347 521 l 521 521 l 521 347 l 347 347 l 347 174 l 0 174 l 0 1042 l 347 1042 l 347 521 m 1215 1042 l 1215 174 l 868 174 l 868 694 l 694 694 l 694 868 l 868 868 l 868 1042 l 1215 1042 m 521 694 l 694 694 l 694 521 l 521 521 l 521 694 z "},"ӥ":{"ha":1389,"x_min":0,"x_max":1215,"o":"m 521 1215 l 174 1215 l 174 1389 l 521 1389 l 521 1215 m 1042 1215 l 694 1215 l 694 1389 l 1042 1389 l 1042 1215 m 347 521 l 521 521 l 521 347 l 347 347 l 347 174 l 0 174 l 0 1042 l 347 1042 l 347 521 m 1215 1042 l 1215 174 l 868 174 l 868 694 l 694 694 l 694 868 l 868 868 l 868 1042 l 1215 1042 m 521 694 l 694 694 l 694 521 l 521 521 l 521 694 z "},"ӧ":{"ha":1389,"x_min":0,"x_max":1215,"o":"m 174 1215 l 174 1389 l 521 1389 l 521 1215 l 174 1215 m 694 1215 l 694 1389 l 1042 1389 l 1042 1215 l 694 1215 m 174 174 l 174 347 l 0 347 l 0 868 l 174 868 l 174 1042 l 1042 1042 l 1042 868 l 1215 868 l 1215 347 l 1042 347 l 1042 174 l 174 174 m 347 347 l 868 347 l 868 868 l 347 868 l 347 347 z "},"ө":{"ha":1389,"x_min":0,"x_max":1215,"o":"m 174 174 l 174 347 l 0 347 l 0 868 l 174 868 l 174 1042 l 1042 1042 l 1042 868 l 1215 868 l 1215 347 l 1042 347 l 1042 174 l 174 174 m 347 347 l 868 347 l 868 868 l 347 868 l 347 347 m 174 521 l 1042 521 l 1042 694 l 174 694 l 174 521 z "},"ӯ":{"ha":1389,"x_min":0,"x_max":1215,"o":"m 174 1215 l 174 1389 l 1042 1389 l 1042 1215 l 174 1215 m 174 0 l 174 174 l 868 174 l 868 347 l 174 347 l 174 521 l 0 521 l 0 1042 l 347 1042 l 347 521 l 868 521 l 868 1042 l 1215 1042 l 1215 174 l 1042 174 l 1042 0 l 174 0 z "},"ӱ":{"ha":1389,"x_min":0,"x_max":1215,"o":"m 174 1215 l 174 1389 l 521 1389 l 521 1215 l 174 1215 m 694 1215 l 694 1389 l 1042 1389 l 1042 1215 l 694 1215 m 174 0 l 174 174 l 868 174 l 868 347 l 174 347 l 174 521 l 0 521 l 0 1042 l 347 1042 l 347 521 l 868 521 l 868 1042 l 1215 1042 l 1215 174 l 1042 174 l 1042 0 l 174 0 z "},"ӳ":{"ha":1389,"x_min":0,"x_max":1215,"o":"m 521 1215 l 347 1215 l 347 1389 l 521 1389 l 521 1215 m 1042 1215 l 868 1215 l 868 1389 l 1042 1389 l 1042 1215 m 1215 1042 l 1215 174 l 1042 174 l 1042 0 l 174 0 l 174 174 l 868 174 l 868 347 l 174 347 l 174 521 l 0 521 l 0 1042 l 174 1042 l 174 1215 l 347 1215 l 347 521 l 868 521 l 868 1042 l 1215 1042 m 868 1215 l 868 1042 l 694 1042 l 694 1215 l 868 1215 z "},"ӵ":{"ha":1389,"x_min":0,"x_max":1215,"o":"m 174 1215 l 174 1389 l 521 1389 l 521 1215 l 174 1215 m 694 1215 l 694 1389 l 1042 1389 l 1042 1215 l 694 1215 m 868 174 l 868 521 l 174 521 l 174 694 l 0 694 l 0 1042 l 347 1042 l 347 694 l 868 694 l 868 1042 l 1215 1042 l 1215 174 l 868 174 z "},"ӷ":{"ha":1389,"x_min":174,"x_max":1215,"o":"m 1215 1042 l 1215 694 l 1042 694 l 1042 868 l 521 868 l 521 347 l 694 347 l 694 0 l 347 0 l 347 174 l 174 174 l 174 1042 l 1215 1042 z "},"ӹ":{"ha":1389,"x_min":0,"x_max":1215,"o":"m 174 1215 l 174 1389 l 521 1389 l 521 1215 l 174 1215 m 694 1215 l 694 1389 l 1042 1389 l 1042 1215 l 694 1215 m 0 174 l 0 1042 l 347 1042 l 347 694 l 694 694 l 694 174 l 0 174 m 868 174 l 868 1042 l 1215 1042 l 1215 174 l 868 174 m 347 347 l 521 347 l 521 521 l 347 521 l 347 347 z "},"ԛ":{"ha":1389,"x_min":0,"x_max":1215,"o":"m 868 0 l 868 347 l 174 347 l 174 521 l 0 521 l 0 868 l 174 868 l 174 1042 l 1215 1042 l 1215 0 l 868 0 m 347 521 l 868 521 l 868 868 l 347 868 l 347 521 z "},"ԝ":{"ha":1389,"x_min":0,"x_max":1215,"o":"m 347 347 l 521 347 l 521 174 l 174 174 l 174 347 l 0 347 l 0 1042 l 347 1042 l 347 347 m 694 1042 l 694 347 l 521 347 l 521 1042 l 694 1042 m 1215 1042 l 1215 347 l 1042 347 l 1042 174 l 694 174 l 694 347 l 868 347 l 868 1042 l 1215 1042 z "},"Ҥ":{"ha":1389,"x_min":0,"x_max":1215,"o":"m 521 1389 l 1215 1389 l 1215 1042 l 1042 1042 l 1042 1215 l 868 1215 l 868 174 l 521 174 l 521 694 l 347 694 l 347 174 l 0 174 l 0 1389 l 347 1389 l 347 868 l 521 868 l 521 1389 z "},"ҥ":{"ha":1389,"x_min":0,"x_max":1215,"o":"m 521 1042 l 1215 1042 l 1215 694 l 1042 694 l 1042 868 l 868 868 l 868 174 l 521 174 l 521 521 l 347 521 l 347 174 l 0 174 l 0 1042 l 347 1042 l 347 694 l 521 694 l 521 1042 z "},"Ӕ":{"ha":1389,"x_min":0,"x_max":1215,"o":"m 0 174 l 0 1042 l 174 1042 l 174 1215 l 347 1215 l 347 1389 l 1215 1389 l 1215 1215 l 868 1215 l 868 868 l 1215 868 l 1215 694 l 868 694 l 868 347 l 1215 347 l 1215 174 l 521 174 l 521 521 l 347 521 l 347 174 l 0 174 m 347 694 l 521 694 l 521 1042 l 347 1042 l 347 694 z "},"ӕ":{"ha":1389,"x_min":0,"x_max":1215,"o":"m 174 174 l 174 347 l 0 347 l 0 521 l 174 521 l 174 694 l 521 694 l 521 868 l 174 868 l 174 1042 l 1042 1042 l 1042 868 l 1215 868 l 1215 694 l 1042 694 l 1042 521 l 694 521 l 694 347 l 1042 347 l 1042 174 l 174 174 m 694 694 l 868 694 l 868 868 l 694 868 l 694 694 m 347 347 l 521 347 l 521 521 l 347 521 l 347 347 z "},"Α":{"ha":1389,"x_min":0,"x_max":1215,"o":"m 0 174 l 0 1042 l 174 1042 l 174 1215 l 347 1215 l 347 1389 l 868 1389 l 868 1215 l 1042 1215 l 1042 1042 l 1215 1042 l 1215 174 l 868 174 l 868 521 l 347 521 l 347 174 l 0 174 m 347 694 l 868 694 l 868 1042 l 694 1042 l 694 1215 l 521 1215 l 521 1042 l 347 1042 l 347 694 z "},"Β":{"ha":1389,"x_min":0,"x_max":1215,"o":"m 0 174 l 0 1389 l 1042 1389 l 1042 1215 l 1215 1215 l 1215 868 l 1042 868 l 1042 694 l 1215 694 l 1215 347 l 1042 347 l 1042 174 l 0 174 m 347 868 l 868 868 l 868 1215 l 347 1215 l 347 868 m 347 347 l 868 347 l 868 694 l 347 694 l 347 347 z "},"Γ":{"ha":1389,"x_min":174,"x_max":1215,"o":"m 174 174 l 174 1389 l 1215 1389 l 1215 1215 l 521 1215 l 521 174 l 174 174 z "},"Δ":{"ha":1389,"x_min":0,"x_max":1215,"o":"m 0 174 l 0 1042 l 174 1042 l 174 1215 l 347 1215 l 347 1389 l 868 1389 l 868 1215 l 1042 1215 l 1042 1042 l 1215 1042 l 1215 174 l 0 174 m 347 347 l 868 347 l 868 1042 l 694 1042 l 694 1215 l 521 1215 l 521 1042 l 347 1042 l 347 347 z "},"Ε":{"ha":1389,"x_min":0,"x_max":1215,"o":"m 0 174 l 0 1389 l 1215 1389 l 1215 1215 l 347 1215 l 347 868 l 1042 868 l 1042 694 l 347 694 l 347 347 l 1215 347 l 1215 174 l 0 174 z "},"Ζ":{"ha":1389,"x_min":0,"x_max":1215,"o":"m 0 174 l 0 521 l 174 521 l 174 694 l 347 694 l 347 868 l 521 868 l 521 1042 l 694 1042 l 694 1215 l 0 1215 l 0 1389 l 1215 1389 l 1215 1042 l 1042 1042 l 1042 868 l 868 868 l 868 694 l 694 694 l 694 521 l 521 521 l 521 347 l 1215 347 l 1215 174 l 0 174 z "},"Η":{"ha":1389,"x_min":0,"x_max":1215,"o":"m 0 174 l 0 1389 l 347 1389 l 347 868 l 868 868 l 868 1389 l 1215 1389 l 1215 174 l 868 174 l 868 694 l 347 694 l 347 174 l 0 174 z "},"Θ":{"ha":1389,"x_min":0,"x_max":1215,"o":"m 174 174 l 174 347 l 0 347 l 0 1215 l 174 1215 l 174 1389 l 1042 1389 l 1042 1215 l 1215 1215 l 1215 347 l 1042 347 l 1042 174 l 174 174 m 347 868 l 868 868 l 868 1215 l 347 1215 l 347 868 m 347 347 l 868 347 l 868 694 l 347 694 l 347 347 z "},"Ι":{"ha":1389,"x_min":174,"x_max":1215,"o":"m 174 174 l 174 347 l 521 347 l 521 1215 l 174 1215 l 174 1389 l 1215 1389 l 1215 1215 l 868 1215 l 868 347 l 1215 347 l 1215 174 l 174 174 z "},"Κ":{"ha":1389,"x_min":0,"x_max":1215,"o":"m 0 174 l 0 1389 l 347 1389 l 347 868 l 521 868 l 521 1042 l 694 1042 l 694 1215 l 868 1215 l 868 1389 l 1215 1389 l 1215 1215 l 1042 1215 l 1042 1042 l 868 1042 l 868 868 l 694 868 l 694 694 l 868 694 l 868 521 l 1042 521 l 1042 347 l 1215 347 l 1215 174 l 694 174 l 694 347 l 521 347 l 521 521 l 347 521 l 347 174 l 0 174 z "},"Λ":{"ha":1389,"x_min":0,"x_max":1215,"o":"m 0 174 l 0 1042 l 174 1042 l 174 1215 l 347 1215 l 347 1389 l 868 1389 l 868 1215 l 1042 1215 l 1042 1042 l 1215 1042 l 1215 174 l 868 174 l 868 1042 l 694 1042 l 694 1215 l 521 1215 l 521 1042 l 347 1042 l 347 174 l 0 174 z "},"Μ":{"ha":1389,"x_min":0,"x_max":1215,"o":"m 0 174 l 0 1389 l 347 1389 l 347 1215 l 521 1215 l 521 1042 l 694 1042 l 694 1215 l 868 1215 l 868 1389 l 1215 1389 l 1215 174 l 868 174 l 868 868 l 694 868 l 694 521 l 521 521 l 521 868 l 347 868 l 347 174 l 0 174 z "},"Ν":{"ha":1389,"x_min":0,"x_max":1215,"o":"m 0 174 l 0 1389 l 347 1389 l 347 1215 l 521 1215 l 521 1042 l 694 1042 l 694 868 l 868 868 l 868 1389 l 1215 1389 l 1215 174 l 868 174 l 868 521 l 694 521 l 694 694 l 521 694 l 521 868 l 347 868 l 347 174 l 0 174 z "},"Ξ":{"ha":1389,"x_min":0,"x_max":1215,"o":"m 0 1215 l 0 1389 l 1215 1389 l 1215 1215 l 0 1215 m 174 694 l 174 868 l 1042 868 l 1042 694 l 174 694 m 0 174 l 0 347 l 1215 347 l 1215 174 l 0 174 z "},"Ο":{"ha":1389,"x_min":0,"x_max":1215,"o":"m 174 174 l 174 347 l 0 347 l 0 1215 l 174 1215 l 174 1389 l 1042 1389 l 1042 1215 l 1215 1215 l 1215 347 l 1042 347 l 1042 174 l 174 174 m 347 347 l 868 347 l 868 1215 l 347 1215 l 347 347 z "},"Π":{"ha":1389,"x_min":0,"x_max":1215,"o":"m 0 174 l 0 1389 l 1215 1389 l 1215 174 l 868 174 l 868 1215 l 347 1215 l 347 174 l 0 174 z "},"Ρ":{"ha":1389,"x_min":0,"x_max":1215,"o":"m 0 174 l 0 1389 l 1042 1389 l 1042 1215 l 1215 1215 l 1215 694 l 1042 694 l 1042 521 l 347 521 l 347 174 l 0 174 m 347 694 l 868 694 l 868 1215 l 347 1215 l 347 694 z "},"Σ":{"ha":1389,"x_min":0,"x_max":1215,"o":"m 0 174 l 0 347 l 174 347 l 174 521 l 347 521 l 347 694 l 521 694 l 521 868 l 347 868 l 347 1042 l 174 1042 l 174 1215 l 0 1215 l 0 1389 l 1215 1389 l 1215 1042 l 868 1042 l 868 1215 l 521 1215 l 521 1042 l 694 1042 l 694 868 l 1042 868 l 1042 694 l 694 694 l 694 521 l 521 521 l 521 347 l 868 347 l 868 521 l 1215 521 l 1215 174 l 0 174 z "},"Τ":{"ha":1389,"x_min":174,"x_max":1215,"o":"m 521 174 l 521 1215 l 174 1215 l 174 1389 l 1215 1389 l 1215 1215 l 868 1215 l 868 174 l 521 174 z "},"Υ":{"ha":1389,"x_min":174,"x_max":1215,"o":"m 521 174 l 521 694 l 347 694 l 347 868 l 174 868 l 174 1389 l 521 1389 l 521 868 l 868 868 l 868 1389 l 1215 1389 l 1215 868 l 1042 868 l 1042 694 l 868 694 l 868 174 l 521 174 z "},"Φ":{"ha":1389,"x_min":0,"x_max":1215,"o":"m 521 174 l 521 347 l 174 347 l 174 521 l 0 521 l 0 1042 l 174 1042 l 174 1215 l 521 1215 l 521 1389 l 694 1389 l 694 1215 l 1042 1215 l 1042 1042 l 1215 1042 l 1215 521 l 1042 521 l 1042 347 l 694 347 l 694 174 l 521 174 m 347 521 l 521 521 l 521 1042 l 347 1042 l 347 521 m 694 521 l 868 521 l 868 1042 l 694 1042 l 694 521 z "},"Χ":{"ha":1389,"x_min":0,"x_max":1215,"o":"m 0 174 l 0 521 l 174 521 l 174 694 l 347 694 l 347 868 l 174 868 l 174 1042 l 0 1042 l 0 1389 l 347 1389 l 347 1042 l 521 1042 l 521 868 l 694 868 l 694 1042 l 868 1042 l 868 1389 l 1215 1389 l 1215 1042 l 1042 1042 l 1042 868 l 868 868 l 868 694 l 1042 694 l 1042 521 l 1215 521 l 1215 174 l 868 174 l 868 521 l 694 521 l 694 694 l 521 694 l 521 521 l 347 521 l 347 174 l 0 174 z "},"Ψ":{"ha":1389,"x_min":0,"x_max":1389,"o":"m 347 174 l 347 347 l 521 347 l 521 694 l 174 694 l 174 868 l 0 868 l 0 1389 l 347 1389 l 347 868 l 521 868 l 521 1389 l 868 1389 l 868 868 l 1042 868 l 1042 1389 l 1389 1389 l 1389 868 l 1215 868 l 1215 694 l 868 694 l 868 347 l 1042 347 l 1042 174 l 347 174 z "},"Ω":{"ha":1389,"x_min":0,"x_max":1215,"o":"m 0 174 l 0 347 l 174 347 l 174 521 l 0 521 l 0 1042 l 174 1042 l 174 1215 l 347 1215 l 347 1389 l 868 1389 l 868 1215 l 1042 1215 l 1042 1042 l 1215 1042 l 1215 521 l 1042 521 l 1042 347 l 1215 347 l 1215 174 l 694 174 l 694 521 l 868 521 l 868 1042 l 694 1042 l 694 1215 l 521 1215 l 521 1042 l 347 1042 l 347 521 l 521 521 l 521 174 l 0 174 z "},"Ά":{"ha":1389,"x_min":0,"x_max":1215,"o":"m 1215 1042 l 1215 174 l 868 174 l 868 521 l 521 521 l 521 174 l 174 174 l 174 1042 l 347 1042 l 347 1215 l 521 1215 l 521 1389 l 868 1389 l 868 1215 l 1042 1215 l 1042 1042 l 1215 1042 m 347 1215 l 174 1215 l 174 1389 l 347 1389 l 347 1215 m 174 1215 l 174 1042 l 0 1042 l 0 1215 l 174 1215 m 868 1042 l 521 1042 l 521 694 l 868 694 l 868 1042 z "},"Έ":{"ha":1389,"x_min":0,"x_max":1389,"o":"m 1389 1389 l 1389 1215 l 694 1215 l 694 868 l 1042 868 l 1042 694 l 694 694 l 694 347 l 1389 347 l 1389 174 l 347 174 l 347 1215 l 174 1215 l 174 1389 l 1389 1389 m 0 1215 l 174 1215 l 174 1042 l 0 1042 l 0 1215 z "},"Ή":{"ha":1389,"x_min":0,"x_max":1389,"o":"m 1389 1389 l 1389 174 l 1042 174 l 1042 694 l 694 694 l 694 174 l 347 174 l 347 1215 l 174 1215 l 174 1389 l 694 1389 l 694 868 l 1042 868 l 1042 1389 l 1389 1389 m 0 1215 l 174 1215 l 174 1042 l 0 1042 l 0 1215 z "},"Ί":{"ha":1389,"x_min":0,"x_max":1215,"o":"m 174 1389 l 347 1389 l 347 1215 l 174 1215 l 174 1389 m 1215 1389 l 1215 1215 l 1042 1215 l 1042 347 l 1215 347 l 1215 174 l 521 174 l 521 347 l 694 347 l 694 1215 l 521 1215 l 521 1389 l 1215 1389 m 0 1215 l 174 1215 l 174 1042 l 0 1042 l 0 1215 z "},"Ό":{"ha":1389,"x_min":0,"x_max":1389,"o":"m 347 1389 l 347 1215 l 174 1215 l 174 1389 l 347 1389 m 1389 1215 l 1389 347 l 1215 347 l 1215 174 l 521 174 l 521 347 l 347 347 l 347 1215 l 521 1215 l 521 1389 l 1215 1389 l 1215 1215 l 1389 1215 m 0 1215 l 174 1215 l 174 1042 l 0 1042 l 0 1215 m 1042 1215 l 694 1215 l 694 347 l 1042 347 l 1042 1215 z "},"Ύ":{"ha":1389,"x_min":0,"x_max":1389,"o":"m 1389 1389 l 1389 868 l 1215 868 l 1215 694 l 1042 694 l 1042 174 l 694 174 l 694 694 l 521 694 l 521 868 l 347 868 l 347 1215 l 174 1215 l 174 1389 l 694 1389 l 694 868 l 1042 868 l 1042 1389 l 1389 1389 m 0 1215 l 174 1215 l 174 1042 l 0 1042 l 0 1215 z "},"Ώ":{"ha":1389,"x_min":0,"x_max":1389,"o":"m 1389 1042 l 1389 521 l 1215 521 l 1215 347 l 1389 347 l 1389 174 l 868 174 l 868 521 l 1042 521 l 1042 1042 l 868 1042 l 868 1215 l 694 1215 l 694 1042 l 521 1042 l 521 521 l 694 521 l 694 174 l 174 174 l 174 347 l 347 347 l 347 521 l 174 521 l 174 1042 l 347 1042 l 347 1215 l 521 1215 l 521 1389 l 1042 1389 l 1042 1215 l 1215 1215 l 1215 1042 l 1389 1042 m 347 1215 l 174 1215 l 174 1389 l 347 1389 l 347 1215 m 174 1215 l 174 1042 l 0 1042 l 0 1215 l 174 1215 z "},"Ϊ":{"ha":1389,"x_min":174,"x_max":1215,"o":"m 174 1215 l 174 1389 l 521 1389 l 521 1215 l 174 1215 m 868 1215 l 868 1389 l 1215 1389 l 1215 1215 l 868 1215 m 174 174 l 174 347 l 521 347 l 521 868 l 174 868 l 174 1042 l 1215 1042 l 1215 868 l 868 868 l 868 347 l 1215 347 l 1215 174 l 174 174 z "},"Ϋ":{"ha":1389,"x_min":174,"x_max":1215,"o":"m 174 1215 l 174 1389 l 521 1389 l 521 1215 l 174 1215 m 868 1215 l 868 1389 l 1215 1389 l 1215 1215 l 868 1215 m 521 174 l 521 521 l 347 521 l 347 694 l 174 694 l 174 1042 l 521 1042 l 521 694 l 868 694 l 868 1042 l 1215 1042 l 1215 694 l 1042 694 l 1042 521 l 868 521 l 868 174 l 521 174 z "},"α":{"ha":1389,"x_min":0,"x_max":1215,"o":"m 174 174 l 174 347 l 0 347 l 0 868 l 174 868 l 174 1042 l 1215 1042 l 1215 174 l 174 174 m 347 347 l 868 347 l 868 868 l 347 868 l 347 347 z "},"β":{"ha":1389,"x_min":0,"x_max":1215,"o":"m 0 0 l 0 1215 l 174 1215 l 174 1389 l 1042 1389 l 1042 1215 l 1215 1215 l 1215 868 l 1042 868 l 1042 694 l 1215 694 l 1215 347 l 1042 347 l 1042 174 l 347 174 l 347 0 l 0 0 m 347 868 l 868 868 l 868 1215 l 347 1215 l 347 868 m 347 347 l 868 347 l 868 694 l 347 694 l 347 347 z "},"γ":{"ha":1389,"x_min":0,"x_max":1215,"o":"m 521 0 l 521 347 l 347 347 l 347 521 l 174 521 l 174 868 l 0 868 l 0 1042 l 347 1042 l 347 868 l 521 868 l 521 521 l 868 521 l 868 1042 l 1215 1042 l 1215 521 l 1042 521 l 1042 347 l 868 347 l 868 0 l 521 0 z "},"δ":{"ha":1389,"x_min":0,"x_max":1215,"o":"m 174 174 l 174 347 l 0 347 l 0 694 l 174 694 l 174 868 l 694 868 l 694 1042 l 521 1042 l 521 1215 l 694 1215 l 694 1389 l 1215 1389 l 1215 1215 l 868 1215 l 868 1042 l 1042 1042 l 1042 868 l 1215 868 l 1215 347 l 1042 347 l 1042 174 l 174 174 m 347 347 l 868 347 l 868 694 l 347 694 l 347 347 z "},"ε":{"ha":1389,"x_min":0,"x_max":1215,"o":"m 174 174 l 174 347 l 0 347 l 0 521 l 174 521 l 174 694 l 0 694 l 0 868 l 174 868 l 174 1042 l 1215 1042 l 1215 868 l 347 868 l 347 694 l 1042 694 l 1042 521 l 347 521 l 347 347 l 1215 347 l 1215 174 l 174 174 z "},"ζ":{"ha":1389,"x_min":0,"x_max":1215,"o":"m 694 0 l 694 174 l 868 174 l 868 347 l 174 347 l 174 521 l 0 521 l 0 868 l 174 868 l 174 1042 l 347 1042 l 347 1215 l 174 1215 l 174 1389 l 1042 1389 l 1042 1215 l 694 1215 l 694 1042 l 521 1042 l 521 868 l 347 868 l 347 521 l 1042 521 l 1042 347 l 1215 347 l 1215 174 l 1042 174 l 1042 0 l 694 0 z "},"η":{"ha":1389,"x_min":0,"x_max":1215,"o":"m 347 868 l 521 868 l 521 174 l 174 174 l 174 868 l 0 868 l 0 1042 l 347 1042 l 347 868 m 1215 868 l 1215 0 l 868 0 l 868 868 l 521 868 l 521 1042 l 1042 1042 l 1042 868 l 1215 868 z "},"θ":{"ha":1389,"x_min":0,"x_max":1215,"o":"m 347 174 l 347 347 l 174 347 l 174 521 l 0 521 l 0 1042 l 174 1042 l 174 1215 l 347 1215 l 347 1389 l 868 1389 l 868 1215 l 1042 1215 l 1042 1042 l 1215 1042 l 1215 521 l 1042 521 l 1042 347 l 868 347 l 868 174 l 347 174 m 347 868 l 868 868 l 868 1042 l 694 1042 l 694 1215 l 521 1215 l 521 1042 l 347 1042 l 347 868 m 521 347 l 694 347 l 694 521 l 868 521 l 868 694 l 347 694 l 347 521 l 521 521 l 521 347 z "},"ι":{"ha":1389,"x_min":174,"x_max":1042,"o":"m 521 174 l 521 347 l 347 347 l 347 868 l 174 868 l 174 1042 l 694 1042 l 694 347 l 1042 347 l 1042 174 l 521 174 z "},"κ":{"ha":1389,"x_min":0,"x_max":1215,"o":"m 0 174 l 0 1042 l 347 1042 l 347 694 l 694 694 l 694 868 l 868 868 l 868 1042 l 1215 1042 l 1215 868 l 1042 868 l 1042 694 l 868 694 l 868 521 l 1042 521 l 1042 347 l 1215 347 l 1215 174 l 868 174 l 868 347 l 694 347 l 694 521 l 347 521 l 347 174 l 0 174 z "},"λ":{"ha":1389,"x_min":0,"x_max":1215,"o":"m 0 174 l 0 521 l 174 521 l 174 694 l 347 694 l 347 1042 l 174 1042 l 174 1215 l 0 1215 l 0 1389 l 347 1389 l 347 1215 l 521 1215 l 521 1042 l 694 1042 l 694 868 l 868 868 l 868 694 l 1042 694 l 1042 521 l 1215 521 l 1215 174 l 868 174 l 868 521 l 694 521 l 694 694 l 521 694 l 521 521 l 347 521 l 347 174 l 0 174 z "},"μ":{"ha":1389,"x_min":0,"x_max":1215,"o":"m 347 347 l 694 347 l 694 174 l 347 174 l 347 0 l 0 0 l 0 1042 l 347 1042 l 347 347 m 1215 347 l 1215 174 l 868 174 l 868 347 l 694 347 l 694 1042 l 1042 1042 l 1042 347 l 1215 347 z "},"ν":{"ha":1389,"x_min":0,"x_max":1215,"o":"m 521 174 l 521 347 l 347 347 l 347 521 l 174 521 l 174 868 l 0 868 l 0 1042 l 347 1042 l 347 868 l 521 868 l 521 521 l 868 521 l 868 1042 l 1215 1042 l 1215 521 l 1042 521 l 1042 347 l 868 347 l 868 174 l 521 174 z "},"ξ":{"ha":1389,"x_min":0,"x_max":1042,"o":"m 521 0 l 521 174 l 694 174 l 694 347 l 174 347 l 174 521 l 0 521 l 0 694 l 174 694 l 174 868 l 347 868 l 347 1042 l 174 1042 l 174 1215 l 0 1215 l 0 1389 l 1042 1389 l 1042 1215 l 521 1215 l 521 1042 l 868 1042 l 868 868 l 521 868 l 521 694 l 347 694 l 347 521 l 868 521 l 868 347 l 1042 347 l 1042 174 l 868 174 l 868 0 l 521 0 z "},"ο":{"ha":1389,"x_min":0,"x_max":1215,"o":"m 174 174 l 174 347 l 0 347 l 0 868 l 174 868 l 174 1042 l 1042 1042 l 1042 868 l 1215 868 l 1215 347 l 1042 347 l 1042 174 l 174 174 m 347 347 l 868 347 l 868 868 l 347 868 l 347 347 z "},"π":{"ha":1389,"x_min":0,"x_max":1215,"o":"m 0 174 l 0 347 l 174 347 l 174 868 l 0 868 l 0 1042 l 1215 1042 l 1215 868 l 1042 868 l 1042 347 l 1215 347 l 1215 174 l 868 174 l 868 347 l 694 347 l 694 868 l 521 868 l 521 174 l 0 174 z "},"ρ":{"ha":1389,"x_min":0,"x_max":1215,"o":"m 0 0 l 0 868 l 174 868 l 174 1042 l 1042 1042 l 1042 868 l 1215 868 l 1215 521 l 1042 521 l 1042 347 l 347 347 l 347 0 l 0 0 m 347 521 l 868 521 l 868 868 l 347 868 l 347 521 z "},"ς":{"ha":1389,"x_min":0,"x_max":1215,"o":"m 174 0 l 174 174 l 868 174 l 868 347 l 174 347 l 174 521 l 0 521 l 0 868 l 174 868 l 174 1042 l 1042 1042 l 1042 868 l 347 868 l 347 521 l 1042 521 l 1042 347 l 1215 347 l 1215 174 l 1042 174 l 1042 0 l 174 0 z "},"σ":{"ha":1389,"x_min":0,"x_max":1215,"o":"m 174 174 l 174 347 l 0 347 l 0 868 l 174 868 l 174 1042 l 1215 1042 l 1215 868 l 868 868 l 868 694 l 1042 694 l 1042 347 l 868 347 l 868 174 l 174 174 m 347 347 l 694 347 l 694 694 l 521 694 l 521 868 l 347 868 l 347 347 z "},"τ":{"ha":1389,"x_min":174,"x_max":1215,"o":"m 694 174 l 694 347 l 521 347 l 521 868 l 174 868 l 174 1042 l 1215 1042 l 1215 868 l 868 868 l 868 347 l 1215 347 l 1215 174 l 694 174 z "},"υ":{"ha":1389,"x_min":0,"x_max":1215,"o":"m 347 174 l 347 347 l 174 347 l 174 868 l 0 868 l 0 1042 l 347 1042 l 347 868 l 521 868 l 521 347 l 868 347 l 868 868 l 694 868 l 694 1042 l 1042 1042 l 1042 868 l 1215 868 l 1215 347 l 1042 347 l 1042 174 l 347 174 z "},"φ":{"ha":1389,"x_min":0,"x_max":1215,"o":"m 1215 868 l 1215 347 l 1042 347 l 1042 174 l 694 174 l 694 0 l 521 0 l 521 174 l 174 174 l 174 347 l 0 347 l 0 868 l 174 868 l 174 1042 l 347 1042 l 347 347 l 521 347 l 521 868 l 694 868 l 694 347 l 868 347 l 868 868 l 694 868 l 694 1042 l 1042 1042 l 1042 868 l 1215 868 z "},"χ":{"ha":1389,"x_min":0,"x_max":1215,"o":"m 0 0 l 0 347 l 174 347 l 174 521 l 347 521 l 347 694 l 174 694 l 174 868 l 0 868 l 0 1042 l 347 1042 l 347 868 l 521 868 l 521 694 l 694 694 l 694 868 l 868 868 l 868 1042 l 1215 1042 l 1215 868 l 1042 868 l 1042 694 l 868 694 l 868 521 l 1042 521 l 1042 347 l 1215 347 l 1215 0 l 868 0 l 868 347 l 694 347 l 694 521 l 521 521 l 521 347 l 347 347 l 347 0 l 0 0 z "},"ψ":{"ha":1389,"x_min":0,"x_max":1389,"o":"m 521 0 l 521 174 l 174 174 l 174 347 l 0 347 l 0 1042 l 347 1042 l 347 347 l 521 347 l 521 1215 l 868 1215 l 868 347 l 1042 347 l 1042 1042 l 1389 1042 l 1389 347 l 1215 347 l 1215 174 l 868 174 l 868 0 l 521 0 z "},"ω":{"ha":1389,"x_min":0,"x_max":1215,"o":"m 347 347 l 521 347 l 521 174 l 174 174 l 174 347 l 0 347 l 0 868 l 174 868 l 174 1042 l 347 1042 l 347 347 m 1215 868 l 1215 347 l 1042 347 l 1042 174 l 694 174 l 694 347 l 868 347 l 868 1042 l 1042 1042 l 1042 868 l 1215 868 m 694 868 l 694 347 l 521 347 l 521 868 l 694 868 z "},"ί":{"ha":1389,"x_min":174,"x_max":1042,"o":"m 694 1215 l 521 1215 l 521 1389 l 694 1389 l 694 1215 m 1042 347 l 1042 174 l 521 174 l 521 347 l 347 347 l 347 868 l 174 868 l 174 1042 l 347 1042 l 347 1215 l 521 1215 l 521 1042 l 694 1042 l 694 347 l 1042 347 z "},"ϊ":{"ha":1389,"x_min":0,"x_max":1042,"o":"m 0 1215 l 0 1389 l 347 1389 l 347 1215 l 0 1215 m 521 1215 l 521 1389 l 868 1389 l 868 1215 l 521 1215 m 521 174 l 521 347 l 347 347 l 347 868 l 174 868 l 174 1042 l 694 1042 l 694 347 l 1042 347 l 1042 174 l 521 174 z "},"ΐ":{"ha":1389,"x_min":0,"x_max":1042,"o":"m 174 1215 l 0 1215 l 0 1389 l 174 1389 l 174 1215 m 694 1215 l 521 1215 l 521 1389 l 694 1389 l 694 1215 m 1042 1389 l 1042 1215 l 868 1215 l 868 1389 l 1042 1389 m 694 347 l 1042 347 l 1042 174 l 521 174 l 521 347 l 347 347 l 347 868 l 174 868 l 174 1042 l 347 1042 l 347 1215 l 521 1215 l 521 1042 l 694 1042 l 694 347 z "},"ύ":{"ha":1389,"x_min":0,"x_max":1215,"o":"m 868 1215 l 694 1215 l 694 1389 l 868 1389 l 868 1215 m 694 1215 l 694 1042 l 521 1042 l 521 1215 l 694 1215 m 1215 868 l 1215 347 l 1042 347 l 1042 174 l 347 174 l 347 347 l 174 347 l 174 868 l 0 868 l 0 1042 l 347 1042 l 347 868 l 521 868 l 521 347 l 868 347 l 868 868 l 694 868 l 694 1042 l 1042 1042 l 1042 868 l 1215 868 z "},"ϋ":{"ha":1389,"x_min":0,"x_max":1215,"o":"m 174 1215 l 174 1389 l 521 1389 l 521 1215 l 174 1215 m 694 1215 l 694 1389 l 1042 1389 l 1042 1215 l 694 1215 m 347 174 l 347 347 l 174 347 l 174 868 l 0 868 l 0 1042 l 347 1042 l 347 868 l 521 868 l 521 347 l 868 347 l 868 868 l 694 868 l 694 1042 l 1042 1042 l 1042 868 l 1215 868 l 1215 347 l 1042 347 l 1042 174 l 347 174 z "},"ΰ":{"ha":1389,"x_min":0,"x_max":1215,"o":"m 174 1215 l 0 1215 l 0 1389 l 174 1389 l 174 1215 m 694 1215 l 521 1215 l 521 1389 l 694 1389 l 694 1215 m 1042 1215 l 868 1215 l 868 1389 l 1042 1389 l 1042 1215 m 521 1042 l 347 1042 l 347 1215 l 521 1215 l 521 1042 m 1215 868 l 1215 347 l 1042 347 l 1042 174 l 347 174 l 347 347 l 174 347 l 174 868 l 0 868 l 0 1042 l 347 1042 l 347 868 l 521 868 l 521 347 l 868 347 l 868 868 l 694 868 l 694 1042 l 1042 1042 l 1042 868 l 1215 868 z "},"ό":{"ha":1389,"x_min":0,"x_max":1215,"o":"m 868 1215 l 694 1215 l 694 1389 l 868 1389 l 868 1215 m 1215 868 l 1215 347 l 1042 347 l 1042 174 l 174 174 l 174 347 l 0 347 l 0 868 l 174 868 l 174 1042 l 521 1042 l 521 1215 l 694 1215 l 694 1042 l 1042 1042 l 1042 868 l 1215 868 m 868 868 l 347 868 l 347 347 l 868 347 l 868 868 z "},"ώ":{"ha":1389,"x_min":0,"x_max":1215,"o":"m 868 1215 l 694 1215 l 694 1389 l 868 1389 l 868 1215 m 694 1042 l 521 1042 l 521 1215 l 694 1215 l 694 1042 m 347 347 l 521 347 l 521 174 l 174 174 l 174 347 l 0 347 l 0 868 l 174 868 l 174 1042 l 347 1042 l 347 347 m 1215 868 l 1215 347 l 1042 347 l 1042 174 l 694 174 l 694 347 l 868 347 l 868 1042 l 1042 1042 l 1042 868 l 1215 868 m 694 868 l 694 347 l 521 347 l 521 868 l 694 868 z "},"ά":{"ha":1389,"x_min":0,"x_max":1215,"o":"m 868 1215 l 694 1215 l 694 1389 l 868 1389 l 868 1215 m 1215 1042 l 1215 174 l 174 174 l 174 347 l 0 347 l 0 868 l 174 868 l 174 1042 l 521 1042 l 521 1215 l 694 1215 l 694 1042 l 1215 1042 m 868 868 l 347 868 l 347 347 l 868 347 l 868 868 z "},"έ":{"ha":1389,"x_min":0,"x_max":1215,"o":"m 868 1215 l 694 1215 l 694 1389 l 868 1389 l 868 1215 m 1215 1042 l 1215 868 l 347 868 l 347 694 l 1042 694 l 1042 521 l 347 521 l 347 347 l 1215 347 l 1215 174 l 174 174 l 174 347 l 0 347 l 0 521 l 174 521 l 174 694 l 0 694 l 0 868 l 174 868 l 174 1042 l 521 1042 l 521 1215 l 694 1215 l 694 1042 l 1215 1042 z "},"ή":{"ha":1389,"x_min":0,"x_max":1215,"o":"m 868 1215 l 694 1215 l 694 1389 l 868 1389 l 868 1215 m 1215 868 l 1215 0 l 868 0 l 868 868 l 521 868 l 521 1215 l 694 1215 l 694 1042 l 1042 1042 l 1042 868 l 1215 868 m 347 868 l 521 868 l 521 174 l 174 174 l 174 868 l 0 868 l 0 1042 l 347 1042 l 347 868 z "},"ͺ":{"ha":1389,"x_min":521,"x_max":1042,"o":"m 694 347 l 694 174 l 521 174 l 521 347 l 694 347 m 1042 174 l 1042 0 l 694 0 l 694 174 l 1042 174 z "},"¹":{"ha":1389,"x_min":347,"x_max":1042,"o":"m 347 694 l 347 868 l 521 868 l 521 1042 l 347 1042 l 347 1215 l 521 1215 l 521 1389 l 868 1389 l 868 868 l 1042 868 l 1042 694 l 347 694 z "},"²":{"ha":1389,"x_min":347,"x_max":1042,"o":"m 347 694 l 347 868 l 521 868 l 521 1042 l 694 1042 l 694 1215 l 347 1215 l 347 1389 l 868 1389 l 868 1215 l 1042 1215 l 1042 1042 l 868 1042 l 868 868 l 1042 868 l 1042 694 l 347 694 z "},"³":{"ha":1389,"x_min":347,"x_max":1042,"o":"m 347 694 l 347 868 l 694 868 l 694 1042 l 521 1042 l 521 1215 l 347 1215 l 347 1389 l 1042 1389 l 1042 1215 l 868 1215 l 868 1042 l 1042 1042 l 1042 868 l 868 868 l 868 694 l 347 694 z "},"⁴":{"ha":1389,"x_min":347,"x_max":868,"o":"m 694 694 l 694 868 l 347 868 l 347 1042 l 521 1042 l 521 1215 l 694 1215 l 694 1389 l 868 1389 l 868 694 l 694 694 z "},"⁄":{"ha":1389,"x_min":0,"x_max":1215,"o":"m 1215 1389 l 1215 1215 l 1042 1215 l 1042 1389 l 1215 1389 m 868 1215 l 1042 1215 l 1042 1042 l 868 1042 l 868 1215 m 694 1042 l 868 1042 l 868 868 l 694 868 l 694 1042 m 521 868 l 694 868 l 694 694 l 521 694 l 521 868 m 347 694 l 521 694 l 521 521 l 347 521 l 347 694 m 174 521 l 347 521 l 347 347 l 174 347 l 174 521 m 0 347 l 174 347 l 174 174 l 0 174 l 0 347 z "},"½":{"ha":1389,"x_min":0,"x_max":1215,"o":"m 347 1389 l 347 694 l 174 694 l 174 1042 l 0 1042 l 0 1215 l 174 1215 l 174 1389 l 347 1389 m 1215 1389 l 1215 1215 l 1042 1215 l 1042 1389 l 1215 1389 m 868 1215 l 1042 1215 l 1042 1042 l 868 1042 l 868 1215 m 694 1042 l 868 1042 l 868 868 l 694 868 l 694 1042 m 521 868 l 694 868 l 694 694 l 521 694 l 521 868 m 868 694 l 868 868 l 1215 868 l 1215 521 l 1042 521 l 1042 694 l 868 694 m 347 694 l 521 694 l 521 521 l 347 521 l 347 694 m 174 521 l 347 521 l 347 347 l 174 347 l 174 521 m 868 521 l 1042 521 l 1042 347 l 1215 347 l 1215 174 l 694 174 l 694 347 l 868 347 l 868 521 m 0 347 l 174 347 l 174 174 l 0 174 l 0 347 z "},"¼":{"ha":1389,"x_min":0,"x_max":1215,"o":"m 347 1389 l 347 694 l 174 694 l 174 1042 l 0 1042 l 0 1215 l 174 1215 l 174 1389 l 347 1389 m 1215 1389 l 1215 1215 l 1042 1215 l 1042 1389 l 1215 1389 m 868 1215 l 1042 1215 l 1042 1042 l 868 1042 l 868 1215 m 694 1042 l 868 1042 l 868 868 l 694 868 l 694 1042 m 521 868 l 694 868 l 694 694 l 521 694 l 521 868 m 1042 868 l 1215 868 l 1215 174 l 1042 174 l 1042 347 l 694 347 l 694 521 l 868 521 l 868 694 l 1042 694 l 1042 868 m 347 694 l 521 694 l 521 521 l 347 521 l 347 694 m 174 521 l 347 521 l 347 347 l 174 347 l 174 521 m 0 347 l 174 347 l 174 174 l 0 174 l 0 347 z "},"¾":{"ha":1389,"x_min":0,"x_max":1215,"o":"m 347 1215 l 347 1042 l 174 1042 l 174 1215 l 0 1215 l 0 1389 l 521 1389 l 521 1215 l 347 1215 m 1215 1389 l 1215 1215 l 1042 1215 l 1042 1389 l 1215 1389 m 868 1215 l 1042 1215 l 1042 1042 l 868 1042 l 868 1215 m 521 868 l 347 868 l 347 1042 l 521 1042 l 521 868 m 694 1042 l 868 1042 l 868 868 l 694 868 l 694 1042 m 347 868 l 347 694 l 0 694 l 0 868 l 347 868 m 521 868 l 694 868 l 694 694 l 521 694 l 521 868 m 1042 868 l 1215 868 l 1215 174 l 1042 174 l 1042 347 l 694 347 l 694 521 l 868 521 l 868 694 l 1042 694 l 1042 868 m 347 694 l 521 694 l 521 521 l 347 521 l 347 694 m 174 521 l 347 521 l 347 347 l 174 347 l 174 521 m 0 347 l 174 347 l 174 174 l 0 174 l 0 347 z "},"*":{"ha":1389,"x_min":0,"x_max":1215,"o":"m 174 347 l 174 521 l 347 521 l 347 694 l 0 694 l 0 868 l 347 868 l 347 1042 l 174 1042 l 174 1215 l 521 1215 l 521 1042 l 694 1042 l 694 1215 l 1042 1215 l 1042 1042 l 868 1042 l 868 868 l 1215 868 l 1215 694 l 868 694 l 868 521 l 1042 521 l 1042 347 l 694 347 l 694 521 l 521 521 l 521 347 l 174 347 z "},"\\":{"ha":1389,"x_min":0,"x_max":1215,"o":"m 174 1389 l 174 1215 l 0 1215 l 0 1389 l 174 1389 m 347 1215 l 347 1042 l 174 1042 l 174 1215 l 347 1215 m 521 1042 l 521 868 l 347 868 l 347 1042 l 521 1042 m 694 868 l 694 694 l 521 694 l 521 868 l 694 868 m 868 694 l 868 521 l 694 521 l 694 694 l 868 694 m 1042 521 l 1042 347 l 868 347 l 868 521 l 1042 521 m 1215 347 l 1215 174 l 1042 174 l 1042 347 l 1215 347 z "},"·":{"ha":1389,"x_min":347,"x_max":694,"o":"m 347 521 l 347 868 l 694 868 l 694 521 l 347 521 z "},"•":{"ha":1389,"x_min":347,"x_max":1042,"o":"m 521 347 l 521 521 l 347 521 l 347 868 l 521 868 l 521 1042 l 868 1042 l 868 868 l 1042 868 l 1042 521 l 868 521 l 868 347 l 521 347 z "},":":{"ha":1389,"x_min":347,"x_max":694,"o":"m 347 868 l 347 1215 l 694 1215 l 694 868 l 347 868 m 347 347 l 347 694 l 694 694 l 694 347 l 347 347 z "},",":{"ha":1389,"x_min":174,"x_max":694,"o":"m 174 0 l 174 174 l 347 174 l 347 521 l 694 521 l 694 174 l 521 174 l 521 0 l 174 0 z "},"…":{"ha":1389,"x_min":0,"x_max":1215,"o":"m 0 174 l 0 521 l 174 521 l 174 174 l 0 174 m 521 174 l 521 521 l 694 521 l 694 174 l 521 174 m 1042 174 l 1042 521 l 1215 521 l 1215 174 l 1042 174 z "},"!":{"ha":1389,"x_min":347,"x_max":868,"o":"m 347 521 l 347 1389 l 868 1389 l 868 868 l 694 868 l 694 521 l 347 521 m 347 174 l 347 347 l 694 347 l 694 174 l 347 174 z "},"¡":{"ha":1389,"x_min":347,"x_max":868,"o":"m 521 1215 l 521 1389 l 868 1389 l 868 1215 l 521 1215 m 347 174 l 347 694 l 521 694 l 521 1042 l 868 1042 l 868 174 l 347 174 z "},"#":{"ha":1389,"x_min":0,"x_max":1215,"o":"m 174 174 l 174 347 l 0 347 l 0 521 l 174 521 l 174 1042 l 0 1042 l 0 1215 l 174 1215 l 174 1389 l 521 1389 l 521 1215 l 694 1215 l 694 1389 l 1042 1389 l 1042 1215 l 1215 1215 l 1215 1042 l 1042 1042 l 1042 521 l 1215 521 l 1215 347 l 1042 347 l 1042 174 l 694 174 l 694 347 l 521 347 l 521 174 l 174 174 m 521 521 l 694 521 l 694 1042 l 521 1042 l 521 521 z "},".":{"ha":1389,"x_min":347,"x_max":694,"o":"m 347 174 l 347 521 l 694 521 l 694 174 l 347 174 z "},"?":{"ha":1389,"x_min":0,"x_max":1215,"o":"m 347 521 l 347 694 l 694 694 l 694 868 l 868 868 l 868 1042 l 347 1042 l 347 868 l 0 868 l 0 1215 l 174 1215 l 174 1389 l 1042 1389 l 1042 1215 l 1215 1215 l 1215 868 l 1042 868 l 1042 694 l 868 694 l 868 521 l 347 521 m 347 174 l 347 347 l 868 347 l 868 174 l 347 174 z "},"¿":{"ha":1389,"x_min":0,"x_max":1215,"o":"m 347 1215 l 347 1389 l 868 1389 l 868 1215 l 347 1215 m 174 174 l 174 347 l 0 347 l 0 694 l 174 694 l 174 868 l 347 868 l 347 1042 l 868 1042 l 868 868 l 521 868 l 521 694 l 347 694 l 347 521 l 868 521 l 868 694 l 1215 694 l 1215 347 l 1042 347 l 1042 174 l 174 174 z "},"\"":{"ha":1389,"x_min":174,"x_max":1042,"o":"m 174 868 l 174 1389 l 521 1389 l 521 868 l 174 868 m 694 868 l 694 1389 l 1042 1389 l 1042 868 l 694 868 z "},"'":{"ha":1389,"x_min":347,"x_max":694,"o":"m 347 868 l 347 1389 l 694 1389 l 694 868 l 347 868 z "},";":{"ha":1389,"x_min":174,"x_max":694,"o":"m 347 868 l 347 1215 l 694 1215 l 694 868 l 347 868 m 174 174 l 174 347 l 347 347 l 347 694 l 694 694 l 694 347 l 521 347 l 521 174 l 174 174 z "},"/":{"ha":1389,"x_min":0,"x_max":1215,"o":"m 1215 1389 l 1215 1215 l 1042 1215 l 1042 1389 l 1215 1389 m 868 1215 l 1042 1215 l 1042 1042 l 868 1042 l 868 1215 m 694 1042 l 868 1042 l 868 868 l 694 868 l 694 1042 m 521 868 l 694 868 l 694 694 l 521 694 l 521 868 m 347 694 l 521 694 l 521 521 l 347 521 l 347 694 m 174 521 l 347 521 l 347 347 l 174 347 l 174 521 m 0 347 l 174 347 l 174 174 l 0 174 l 0 347 z "},"_":{"ha":1389,"x_min":0,"x_max":1215,"o":"m 0 0 l 0 174 l 1215 174 l 1215 0 l 0 0 z "},"{":{"ha":1389,"x_min":347,"x_max":1042,"o":"m 694 174 l 694 347 l 521 347 l 521 694 l 347 694 l 347 868 l 521 868 l 521 1215 l 694 1215 l 694 1389 l 1042 1389 l 1042 1215 l 868 1215 l 868 868 l 694 868 l 694 694 l 868 694 l 868 347 l 1042 347 l 1042 174 l 694 174 z "},"}":{"ha":1389,"x_min":174,"x_max":868,"o":"m 174 174 l 174 347 l 347 347 l 347 694 l 521 694 l 521 868 l 347 868 l 347 1215 l 174 1215 l 174 1389 l 521 1389 l 521 1215 l 694 1215 l 694 868 l 868 868 l 868 694 l 694 694 l 694 347 l 521 347 l 521 174 l 174 174 z "},"[":{"ha":1389,"x_min":347,"x_max":1042,"o":"m 347 174 l 347 1389 l 1042 1389 l 1042 1215 l 694 1215 l 694 347 l 1042 347 l 1042 174 l 347 174 z "},"]":{"ha":1389,"x_min":174,"x_max":868,"o":"m 174 174 l 174 347 l 521 347 l 521 1215 l 174 1215 l 174 1389 l 868 1389 l 868 174 l 174 174 z "},"(":{"ha":1389,"x_min":347,"x_max":1042,"o":"m 694 174 l 694 347 l 521 347 l 521 521 l 347 521 l 347 1042 l 521 1042 l 521 1215 l 694 1215 l 694 1389 l 1042 1389 l 1042 1215 l 868 1215 l 868 1042 l 694 1042 l 694 521 l 868 521 l 868 347 l 1042 347 l 1042 174 l 694 174 z "},")":{"ha":1389,"x_min":174,"x_max":868,"o":"m 174 174 l 174 347 l 347 347 l 347 521 l 521 521 l 521 1042 l 347 1042 l 347 1215 l 174 1215 l 174 1389 l 521 1389 l 521 1215 l 694 1215 l 694 1042 l 868 1042 l 868 521 l 694 521 l 694 347 l 521 347 l 521 174 l 174 174 z "},"—":{"ha":1389,"x_min":0,"x_max":1389,"o":"m 0 694 l 0 868 l 1389 868 l 1389 694 l 0 694 z "},"–":{"ha":1389,"x_min":0,"x_max":1215,"o":"m 0 694 l 0 868 l 1215 868 l 1215 694 l 0 694 z "},"―":{"ha":1389,"x_min":0,"x_max":1215,"o":"m 0 694 l 0 868 l 1215 868 l 1215 694 l 0 694 z "},"-":{"ha":1389,"x_min":174,"x_max":1215,"o":"m 174 694 l 174 868 l 1215 868 l 1215 694 l 174 694 z "},"­":{"ha":1389,"x_min":174,"x_max":1215,"o":"m 174 694 l 174 868 l 1215 868 l 1215 694 l 174 694 z "},"«":{"ha":1389,"x_min":0,"x_max":1215,"o":"m 347 347 l 347 521 l 174 521 l 174 694 l 0 694 l 0 868 l 174 868 l 174 1042 l 347 1042 l 347 1215 l 694 1215 l 694 1042 l 868 1042 l 868 1215 l 1215 1215 l 1215 1042 l 1042 1042 l 1042 868 l 868 868 l 868 694 l 1042 694 l 1042 521 l 1215 521 l 1215 347 l 868 347 l 868 521 l 694 521 l 694 347 l 347 347 m 521 521 l 694 521 l 694 694 l 521 694 l 521 868 l 694 868 l 694 1042 l 521 1042 l 521 868 l 347 868 l 347 694 l 521 694 l 521 521 z "},"»":{"ha":1389,"x_min":0,"x_max":1215,"o":"m 0 347 l 0 521 l 174 521 l 174 694 l 347 694 l 347 868 l 174 868 l 174 1042 l 0 1042 l 0 1215 l 347 1215 l 347 1042 l 521 1042 l 521 1215 l 868 1215 l 868 1042 l 1042 1042 l 1042 868 l 1215 868 l 1215 694 l 1042 694 l 1042 521 l 868 521 l 868 347 l 521 347 l 521 521 l 347 521 l 347 347 l 0 347 m 521 521 l 694 521 l 694 694 l 868 694 l 868 868 l 694 868 l 694 1042 l 521 1042 l 521 868 l 694 868 l 694 694 l 521 694 l 521 521 z "},"‹":{"ha":1389,"x_min":347,"x_max":1042,"o":"m 694 347 l 694 521 l 521 521 l 521 694 l 347 694 l 347 868 l 521 868 l 521 1042 l 694 1042 l 694 1215 l 1042 1215 l 1042 1042 l 868 1042 l 868 868 l 694 868 l 694 694 l 868 694 l 868 521 l 1042 521 l 1042 347 l 694 347 z "},"›":{"ha":1389,"x_min":174,"x_max":868,"o":"m 174 347 l 174 521 l 347 521 l 347 694 l 521 694 l 521 868 l 347 868 l 347 1042 l 174 1042 l 174 1215 l 521 1215 l 521 1042 l 694 1042 l 694 868 l 868 868 l 868 694 l 694 694 l 694 521 l 521 521 l 521 347 l 174 347 z "},"„":{"ha":1389,"x_min":0,"x_max":1042,"o":"m 521 694 l 521 347 l 347 347 l 347 174 l 0 174 l 0 347 l 174 347 l 174 694 l 521 694 m 1042 694 l 1042 347 l 868 347 l 868 174 l 521 174 l 521 347 l 694 347 l 694 694 l 1042 694 z "},"“":{"ha":1389,"x_min":174,"x_max":1215,"o":"m 694 1389 l 694 1215 l 521 1215 l 521 868 l 174 868 l 174 1215 l 347 1215 l 347 1389 l 694 1389 m 1215 1389 l 1215 1215 l 1042 1215 l 1042 868 l 694 868 l 694 1215 l 868 1215 l 868 1389 l 1215 1389 z "},"”":{"ha":1389,"x_min":174,"x_max":1215,"o":"m 694 1389 l 694 1042 l 521 1042 l 521 868 l 174 868 l 174 1042 l 347 1042 l 347 1389 l 694 1389 m 1215 1389 l 1215 1042 l 1042 1042 l 1042 868 l 694 868 l 694 1042 l 868 1042 l 868 1389 l 1215 1389 z "},"‘":{"ha":1389,"x_min":347,"x_max":868,"o":"m 347 868 l 347 1215 l 521 1215 l 521 1389 l 868 1389 l 868 1215 l 694 1215 l 694 868 l 347 868 z "},"’":{"ha":1389,"x_min":347,"x_max":868,"o":"m 347 868 l 347 1042 l 521 1042 l 521 1389 l 868 1389 l 868 1042 l 694 1042 l 694 868 l 347 868 z "},"‚":{"ha":1389,"x_min":347,"x_max":868,"o":"m 347 174 l 347 347 l 521 347 l 521 694 l 868 694 l 868 347 l 694 347 l 694 174 l 347 174 z "},"·":{"ha":1389,"x_min":347,"x_max":694,"o":"m 347 521 l 347 868 l 694 868 l 694 521 l 347 521 z "},";":{"ha":1389,"x_min":174,"x_max":694,"o":"m 347 868 l 347 1215 l 694 1215 l 694 868 l 347 868 m 174 174 l 174 347 l 347 347 l 347 694 l 694 694 l 694 347 l 521 347 l 521 174 l 174 174 z "}," ":{"ha":1389,"x_min":0,"x_max":0,"o":""},"":{"ha":1389,"x_min":174,"x_max":1042,"o":"m 174 174 l 174 521 l 521 521 l 521 174 l 174 174 m 694 174 l 694 521 l 1042 521 l 1042 174 l 694 174 z "},"¢":{"ha":1389,"x_min":0,"x_max":1215,"o":"m 521 174 l 521 347 l 174 347 l 174 521 l 0 521 l 0 1042 l 174 1042 l 174 1215 l 521 1215 l 521 1389 l 694 1389 l 694 1215 l 1042 1215 l 1042 1042 l 1215 1042 l 1215 868 l 868 868 l 868 1042 l 694 1042 l 694 521 l 868 521 l 868 694 l 1215 694 l 1215 521 l 1042 521 l 1042 347 l 694 347 l 694 174 l 521 174 m 347 521 l 521 521 l 521 1042 l 347 1042 l 347 521 z "},"¤":{"ha":1389,"x_min":174,"x_max":1215,"o":"m 347 1215 l 347 1042 l 174 1042 l 174 1215 l 347 1215 m 868 1042 l 521 1042 l 521 1215 l 868 1215 l 868 1042 m 1215 1215 l 1215 1042 l 1042 1042 l 1042 1215 l 1215 1215 m 521 1042 l 521 521 l 347 521 l 347 1042 l 521 1042 m 868 1042 l 1042 1042 l 1042 521 l 868 521 l 868 1042 m 174 521 l 347 521 l 347 347 l 174 347 l 174 521 m 521 521 l 868 521 l 868 347 l 521 347 l 521 521 m 1042 347 l 1042 521 l 1215 521 l 1215 347 l 1042 347 z "},"$":{"ha":1389,"x_min":0,"x_max":1215,"o":"m 521 174 l 521 347 l 0 347 l 0 521 l 521 521 l 521 694 l 174 694 l 174 868 l 0 868 l 0 1042 l 174 1042 l 174 1215 l 521 1215 l 521 1389 l 694 1389 l 694 1215 l 1042 1215 l 1042 1042 l 694 1042 l 694 868 l 1042 868 l 1042 694 l 1215 694 l 1215 521 l 1042 521 l 1042 347 l 694 347 l 694 174 l 521 174 m 347 868 l 521 868 l 521 1042 l 347 1042 l 347 868 m 694 521 l 868 521 l 868 694 l 694 694 l 694 521 z "},"₯":{"ha":1389,"x_min":0,"x_max":1215,"o":"m 521 1215 l 174 1215 l 174 1389 l 521 1389 l 521 1215 m 174 347 l 521 347 l 521 174 l 0 174 l 0 1215 l 174 1215 l 174 347 m 868 347 l 1042 347 l 1042 174 l 868 174 l 868 0 l 694 0 l 694 347 l 521 347 l 521 1215 l 694 1215 l 694 868 l 868 868 l 868 347 m 1042 868 l 868 868 l 868 1042 l 1042 1042 l 1042 868 m 1215 868 l 1215 347 l 1042 347 l 1042 868 l 1215 868 z "},"€":{"ha":1389,"x_min":0,"x_max":1215,"o":"m 1215 1215 l 1215 1042 l 868 1042 l 868 1215 l 694 1215 l 694 1042 l 868 1042 l 868 868 l 521 868 l 521 694 l 868 694 l 868 521 l 694 521 l 694 347 l 868 347 l 868 521 l 1215 521 l 1215 347 l 1042 347 l 1042 174 l 521 174 l 521 347 l 347 347 l 347 521 l 0 521 l 0 694 l 174 694 l 174 868 l 0 868 l 0 1042 l 347 1042 l 347 1215 l 521 1215 l 521 1389 l 1042 1389 l 1042 1215 l 1215 1215 z "},"ƒ":{"ha":1389,"x_min":174,"x_max":1215,"o":"m 174 174 l 174 347 l 521 347 l 521 868 l 174 868 l 174 1042 l 521 1042 l 521 1215 l 694 1215 l 694 1389 l 1215 1389 l 1215 1215 l 868 1215 l 868 1042 l 1215 1042 l 1215 868 l 868 868 l 868 347 l 694 347 l 694 174 l 174 174 z "},"₴":{"ha":1389,"x_min":0,"x_max":1215,"o":"m 1042 1042 l 1215 1042 l 1215 868 l 0 868 l 0 1042 l 694 1042 l 694 1215 l 174 1215 l 174 1389 l 868 1389 l 868 1215 l 1042 1215 l 1042 1042 m 1215 694 l 1215 521 l 521 521 l 521 347 l 1042 347 l 1042 174 l 347 174 l 347 347 l 174 347 l 174 521 l 0 521 l 0 694 l 1215 694 z "},"₽":{"ha":1389,"x_min":0,"x_max":1389,"o":"m 1389 1215 l 1389 868 l 1215 868 l 1215 694 l 521 694 l 521 521 l 868 521 l 868 347 l 521 347 l 521 174 l 174 174 l 174 347 l 0 347 l 0 521 l 174 521 l 174 694 l 0 694 l 0 868 l 174 868 l 174 1389 l 1215 1389 l 1215 1215 l 1389 1215 m 1042 1215 l 521 1215 l 521 868 l 1042 868 l 1042 1215 z "},"£":{"ha":1389,"x_min":0,"x_max":1215,"o":"m 0 174 l 0 347 l 174 347 l 174 694 l 0 694 l 0 868 l 174 868 l 174 1215 l 347 1215 l 347 1389 l 1042 1389 l 1042 1215 l 1215 1215 l 1215 1042 l 868 1042 l 868 1215 l 521 1215 l 521 868 l 1042 868 l 1042 694 l 521 694 l 521 347 l 1215 347 l 1215 174 l 0 174 z "},"₸":{"ha":1389,"x_min":174,"x_max":1215,"o":"m 174 1215 l 174 1389 l 1215 1389 l 1215 1215 l 174 1215 m 521 174 l 521 868 l 174 868 l 174 1042 l 1215 1042 l 1215 868 l 868 868 l 868 174 l 521 174 z "},"₮":{"ha":1389,"x_min":174,"x_max":1215,"o":"m 1215 1389 l 1215 1215 l 868 1215 l 868 1042 l 1042 1042 l 1042 868 l 868 868 l 868 694 l 1042 694 l 1042 521 l 868 521 l 868 174 l 521 174 l 521 347 l 347 347 l 347 521 l 521 521 l 521 694 l 347 694 l 347 868 l 521 868 l 521 1215 l 174 1215 l 174 1389 l 1215 1389 z "},"¥":{"ha":1389,"x_min":174,"x_max":1215,"o":"m 521 174 l 521 347 l 174 347 l 174 521 l 521 521 l 521 694 l 174 694 l 174 868 l 347 868 l 347 1042 l 174 1042 l 174 1389 l 521 1389 l 521 1042 l 868 1042 l 868 1389 l 1215 1389 l 1215 1042 l 1042 1042 l 1042 868 l 1215 868 l 1215 694 l 868 694 l 868 521 l 1215 521 l 1215 347 l 868 347 l 868 174 l 521 174 z "},"∕":{"ha":1389,"x_min":0,"x_max":1215,"o":"m 1215 1389 l 1215 1215 l 1042 1215 l 1042 1389 l 1215 1389 m 868 1215 l 1042 1215 l 1042 1042 l 868 1042 l 868 1215 m 694 1042 l 868 1042 l 868 868 l 694 868 l 694 1042 m 521 868 l 694 868 l 694 694 l 521 694 l 521 868 m 347 694 l 521 694 l 521 521 l 347 521 l 347 694 m 174 521 l 347 521 l 347 347 l 174 347 l 174 521 m 0 347 l 174 347 l 174 174 l 0 174 l 0 347 z "},"+":{"ha":1389,"x_min":174,"x_max":1215,"o":"m 521 347 l 521 694 l 174 694 l 174 868 l 521 868 l 521 1215 l 868 1215 l 868 868 l 1215 868 l 1215 694 l 868 694 l 868 347 l 521 347 z "},"×":{"ha":1389,"x_min":174,"x_max":1042,"o":"m 347 1215 l 347 1042 l 174 1042 l 174 1215 l 347 1215 m 1042 1215 l 1042 1042 l 868 1042 l 868 1215 l 1042 1215 m 521 1042 l 521 868 l 347 868 l 347 1042 l 521 1042 m 694 1042 l 868 1042 l 868 868 l 694 868 l 694 1042 m 521 868 l 694 868 l 694 694 l 521 694 l 521 868 m 347 694 l 521 694 l 521 521 l 347 521 l 347 694 m 694 521 l 694 694 l 868 694 l 868 521 l 694 521 m 174 521 l 347 521 l 347 347 l 174 347 l 174 521 m 868 347 l 868 521 l 1042 521 l 1042 347 l 868 347 z "},"÷":{"ha":1389,"x_min":174,"x_max":1215,"o":"m 521 1042 l 521 1215 l 868 1215 l 868 1042 l 521 1042 m 174 694 l 174 868 l 1215 868 l 1215 694 l 174 694 m 521 347 l 521 521 l 868 521 l 868 347 l 521 347 z "},"=":{"ha":1389,"x_min":0,"x_max":1215,"o":"m 0 868 l 0 1042 l 1215 1042 l 1215 868 l 0 868 m 0 521 l 0 694 l 1215 694 l 1215 521 l 0 521 z "},"≠":{"ha":1389,"x_min":0,"x_max":1215,"o":"m 1215 1389 l 1215 1215 l 1042 1215 l 1042 1389 l 1215 1389 m 868 1215 l 1042 1215 l 1042 1042 l 1215 1042 l 1215 868 l 694 868 l 694 694 l 1215 694 l 1215 521 l 347 521 l 347 347 l 174 347 l 174 521 l 0 521 l 0 694 l 521 694 l 521 868 l 0 868 l 0 1042 l 868 1042 l 868 1215 m 0 347 l 174 347 l 174 174 l 0 174 l 0 347 z "},">":{"ha":1389,"x_min":174,"x_max":1042,"o":"m 174 174 l 174 347 l 347 347 l 347 521 l 521 521 l 521 694 l 694 694 l 694 868 l 521 868 l 521 1042 l 347 1042 l 347 1215 l 174 1215 l 174 1389 l 521 1389 l 521 1215 l 694 1215 l 694 1042 l 868 1042 l 868 868 l 1042 868 l 1042 694 l 868 694 l 868 521 l 694 521 l 694 347 l 521 347 l 521 174 l 174 174 z "},"<":{"ha":1389,"x_min":174,"x_max":1042,"o":"m 694 174 l 694 347 l 521 347 l 521 521 l 347 521 l 347 694 l 174 694 l 174 868 l 347 868 l 347 1042 l 521 1042 l 521 1215 l 694 1215 l 694 1389 l 1042 1389 l 1042 1215 l 868 1215 l 868 1042 l 694 1042 l 694 868 l 521 868 l 521 694 l 694 694 l 694 521 l 868 521 l 868 347 l 1042 347 l 1042 174 l 694 174 z "},"≥":{"ha":1389,"x_min":347,"x_max":1042,"o":"m 347 521 l 347 694 l 521 694 l 521 868 l 694 868 l 694 1042 l 521 1042 l 521 1215 l 347 1215 l 347 1389 l 694 1389 l 694 1215 l 868 1215 l 868 1042 l 1042 1042 l 1042 868 l 868 868 l 868 694 l 694 694 l 694 521 l 347 521 m 347 174 l 347 347 l 1042 347 l 1042 174 l 347 174 z "},"≤":{"ha":1389,"x_min":347,"x_max":1042,"o":"m 694 521 l 694 694 l 521 694 l 521 868 l 347 868 l 347 1042 l 521 1042 l 521 1215 l 694 1215 l 694 1389 l 1042 1389 l 1042 1215 l 868 1215 l 868 1042 l 694 1042 l 694 868 l 868 868 l 868 694 l 1042 694 l 1042 521 l 694 521 m 347 174 l 347 347 l 1042 347 l 1042 174 l 347 174 z "},"±":{"ha":1389,"x_min":174,"x_max":1215,"o":"m 521 521 l 521 868 l 174 868 l 174 1042 l 521 1042 l 521 1389 l 868 1389 l 868 1042 l 1215 1042 l 1215 868 l 868 868 l 868 521 l 521 521 m 174 174 l 174 347 l 1215 347 l 1215 174 l 174 174 z "},"≈":{"ha":1389,"x_min":0,"x_max":1042,"o":"m 521 1215 l 521 1042 l 174 1042 l 174 1215 l 521 1215 m 1042 1215 l 1042 1042 l 868 1042 l 868 1215 l 1042 1215 m 0 1042 l 174 1042 l 174 868 l 0 868 l 0 1042 m 521 1042 l 868 1042 l 868 868 l 521 868 l 521 1042 m 521 694 l 521 521 l 174 521 l 174 694 l 521 694 m 868 694 l 1042 694 l 1042 521 l 868 521 l 868 694 m 0 521 l 174 521 l 174 347 l 0 347 l 0 521 m 521 521 l 868 521 l 868 347 l 521 347 l 521 521 z "},"~":{"ha":1389,"x_min":0,"x_max":1215,"o":"m 868 694 l 1042 694 l 1042 521 l 521 521 l 521 694 l 347 694 l 347 868 l 174 868 l 174 1042 l 694 1042 l 694 868 l 868 868 l 868 694 m 0 868 l 174 868 l 174 694 l 0 694 l 0 868 m 1215 868 l 1215 694 l 1042 694 l 1042 868 l 1215 868 z "},"¬":{"ha":1389,"x_min":174,"x_max":1215,"o":"m 868 521 l 868 868 l 174 868 l 174 1042 l 1215 1042 l 1215 521 l 868 521 z "},"∞":{"ha":1389,"x_min":0,"x_max":1215,"o":"m 521 868 l 174 868 l 174 1042 l 521 1042 l 521 868 m 1042 868 l 694 868 l 694 1042 l 1042 1042 l 1042 868 m 174 868 l 174 521 l 0 521 l 0 868 l 174 868 m 694 868 l 694 521 l 521 521 l 521 868 l 694 868 m 1215 868 l 1215 521 l 1042 521 l 1042 868 l 1215 868 m 174 521 l 521 521 l 521 347 l 174 347 l 174 521 m 694 521 l 1042 521 l 1042 347 l 694 347 l 694 521 z "},"∫":{"ha":1389,"x_min":174,"x_max":1215,"o":"m 1042 1389 l 1042 1215 l 868 1215 l 868 174 l 694 174 l 694 0 l 347 0 l 347 174 l 521 174 l 521 1215 l 694 1215 l 694 1389 l 1042 1389 m 1215 1215 l 1215 1042 l 1042 1042 l 1042 1215 l 1215 1215 m 347 347 l 347 174 l 174 174 l 174 347 l 347 347 z "},"∆":{"ha":1389,"x_min":0,"x_max":1215,"o":"m 0 174 l 0 1042 l 174 1042 l 174 1215 l 347 1215 l 347 1389 l 868 1389 l 868 1215 l 1042 1215 l 1042 1042 l 1215 1042 l 1215 174 l 0 174 m 347 347 l 868 347 l 868 1042 l 694 1042 l 694 1215 l 521 1215 l 521 1042 l 347 1042 l 347 347 z "},"∏":{"ha":1389,"x_min":0,"x_max":1215,"o":"m 0 174 l 0 1389 l 1215 1389 l 1215 174 l 868 174 l 868 1215 l 347 1215 l 347 174 l 0 174 z "},"∑":{"ha":1389,"x_min":0,"x_max":1215,"o":"m 0 174 l 0 347 l 174 347 l 174 521 l 347 521 l 347 694 l 521 694 l 521 868 l 347 868 l 347 1042 l 174 1042 l 174 1215 l 0 1215 l 0 1389 l 1215 1389 l 1215 1042 l 868 1042 l 868 1215 l 521 1215 l 521 1042 l 694 1042 l 694 868 l 1042 868 l 1042 694 l 694 694 l 694 521 l 521 521 l 521 347 l 868 347 l 868 521 l 1215 521 l 1215 174 l 0 174 z "},"√":{"ha":1389,"x_min":0,"x_max":1215,"o":"m 347 174 l 347 347 l 174 347 l 174 521 l 0 521 l 0 694 l 347 694 l 347 521 l 521 521 l 521 1389 l 1215 1389 l 1215 1215 l 868 1215 l 868 174 l 347 174 z "},"µ":{"ha":1389,"x_min":0,"x_max":1215,"o":"m 347 347 l 694 347 l 694 174 l 347 174 l 347 0 l 0 0 l 0 1042 l 347 1042 l 347 347 m 1215 347 l 1215 174 l 868 174 l 868 347 l 694 347 l 694 1042 l 1042 1042 l 1042 347 l 1215 347 z "},"∂":{"ha":1389,"x_min":0,"x_max":1215,"o":"m 174 174 l 174 347 l 0 347 l 0 694 l 174 694 l 174 868 l 868 868 l 868 1042 l 694 1042 l 694 1215 l 347 1215 l 347 1042 l 0 1042 l 0 1215 l 174 1215 l 174 1389 l 868 1389 l 868 1215 l 1042 1215 l 1042 1042 l 1215 1042 l 1215 347 l 1042 347 l 1042 174 l 174 174 m 347 347 l 868 347 l 868 694 l 347 694 l 347 347 z "},"%":{"ha":1389,"x_min":0,"x_max":1215,"o":"m 347 1215 l 174 1215 l 174 1389 l 521 1389 l 521 1042 l 347 1042 l 347 1215 m 1215 1389 l 1215 1215 l 1042 1215 l 1042 1389 l 1215 1389 m 347 868 l 0 868 l 0 1215 l 174 1215 l 174 1042 l 347 1042 l 347 868 m 868 1215 l 1042 1215 l 1042 1042 l 868 1042 l 868 1215 m 694 1042 l 868 1042 l 868 868 l 694 868 l 694 1042 m 521 868 l 694 868 l 694 694 l 521 694 l 521 868 m 347 694 l 521 694 l 521 521 l 347 521 l 347 694 m 868 694 l 1215 694 l 1215 347 l 1042 347 l 1042 521 l 868 521 l 868 694 m 174 521 l 347 521 l 347 347 l 174 347 l 174 521 m 868 347 l 1042 347 l 1042 174 l 694 174 l 694 521 l 868 521 l 868 347 m 0 347 l 174 347 l 174 174 l 0 174 l 0 347 z "},"‰":{"ha":1389,"x_min":0,"x_max":1389,"o":"m 347 1215 l 174 1215 l 174 1389 l 521 1389 l 521 1042 l 347 1042 l 347 1215 m 1215 1215 l 1042 1215 l 1042 1389 l 1215 1389 l 1215 1215 m 347 868 l 0 868 l 0 1215 l 174 1215 l 174 1042 l 347 1042 l 347 868 m 1042 1042 l 868 1042 l 868 1215 l 1042 1215 l 1042 1042 m 868 868 l 694 868 l 694 1042 l 868 1042 l 868 868 m 694 694 l 521 694 l 521 868 l 694 868 l 694 694 m 521 694 l 521 521 l 347 521 l 347 694 l 521 694 m 1389 694 l 1389 347 l 1215 347 l 1215 521 l 1042 521 l 1042 347 l 1215 347 l 1215 174 l 521 174 l 521 521 l 694 521 l 694 347 l 868 347 l 868 521 l 694 521 l 694 694 l 1389 694 m 174 521 l 347 521 l 347 347 l 174 347 l 174 521 m 0 347 l 174 347 l 174 174 l 0 174 l 0 347 z "},"↑":{"ha":1389,"x_min":0,"x_max":1215,"o":"m 347 0 l 347 694 l 0 694 l 0 868 l 174 868 l 174 1042 l 347 1042 l 347 1215 l 521 1215 l 521 1389 l 694 1389 l 694 1215 l 868 1215 l 868 1042 l 1042 1042 l 1042 868 l 1215 868 l 1215 694 l 868 694 l 868 0 l 347 0 z "},"→":{"ha":1389,"x_min":0,"x_max":1389,"o":"m 694 174 l 694 521 l 0 521 l 0 1042 l 694 1042 l 694 1389 l 868 1389 l 868 1215 l 1042 1215 l 1042 1042 l 1215 1042 l 1215 868 l 1389 868 l 1389 694 l 1215 694 l 1215 521 l 1042 521 l 1042 347 l 868 347 l 868 174 l 694 174 z "},"↓":{"ha":1389,"x_min":0,"x_max":1215,"o":"m 521 0 l 521 174 l 347 174 l 347 347 l 174 347 l 174 521 l 0 521 l 0 694 l 347 694 l 347 1389 l 868 1389 l 868 694 l 1215 694 l 1215 521 l 1042 521 l 1042 347 l 868 347 l 868 174 l 694 174 l 694 0 l 521 0 z "},"←":{"ha":1389,"x_min":0,"x_max":1389,"o":"m 521 174 l 521 347 l 347 347 l 347 521 l 174 521 l 174 694 l 0 694 l 0 868 l 174 868 l 174 1042 l 347 1042 l 347 1215 l 521 1215 l 521 1389 l 694 1389 l 694 1042 l 1389 1042 l 1389 521 l 694 521 l 694 174 l 521 174 z "},"◊":{"ha":1389,"x_min":0,"x_max":1215,"o":"m 694 1215 l 521 1215 l 521 1389 l 694 1389 l 694 1215 m 521 1042 l 347 1042 l 347 1215 l 521 1215 l 521 1042 m 694 1042 l 694 1215 l 868 1215 l 868 1042 l 694 1042 m 347 868 l 174 868 l 174 1042 l 347 1042 l 347 868 m 868 868 l 868 1042 l 1042 1042 l 1042 868 l 868 868 m 174 868 l 174 694 l 0 694 l 0 868 l 174 868 m 1215 868 l 1215 694 l 1042 694 l 1042 868 l 1215 868 m 347 694 l 347 521 l 174 521 l 174 694 l 347 694 m 868 694 l 1042 694 l 1042 521 l 868 521 l 868 694 m 521 521 l 521 347 l 347 347 l 347 521 l 521 521 m 694 521 l 868 521 l 868 347 l 694 347 l 694 521 m 521 347 l 694 347 l 694 174 l 521 174 l 521 347 z "},"▲":{"ha":1389,"x_min":0,"x_max":1215,"o":"m 0 174 l 0 347 l 174 347 l 174 694 l 347 694 l 347 1042 l 521 1042 l 521 1389 l 694 1389 l 694 1042 l 868 1042 l 868 694 l 1042 694 l 1042 347 l 1215 347 l 1215 174 l 0 174 z "},"▶":{"ha":1389,"x_min":0,"x_max":1215,"o":"m 0 174 l 0 1389 l 174 1389 l 174 1215 l 521 1215 l 521 1042 l 868 1042 l 868 868 l 1215 868 l 1215 694 l 868 694 l 868 521 l 521 521 l 521 347 l 174 347 l 174 174 l 0 174 z "},"▼":{"ha":1389,"x_min":0,"x_max":1215,"o":"m 521 174 l 521 521 l 347 521 l 347 868 l 174 868 l 174 1215 l 0 1215 l 0 1389 l 1215 1389 l 1215 1215 l 1042 1215 l 1042 868 l 868 868 l 868 521 l 694 521 l 694 174 l 521 174 z "},"◀":{"ha":1389,"x_min":0,"x_max":1215,"o":"m 1042 174 l 1042 347 l 694 347 l 694 521 l 347 521 l 347 694 l 0 694 l 0 868 l 347 868 l 347 1042 l 694 1042 l 694 1215 l 1042 1215 l 1042 1389 l 1215 1389 l 1215 174 l 1042 174 z "},"★":{"ha":1389,"x_min":0,"x_max":1215,"o":"m 174 174 l 174 521 l 347 521 l 347 694 l 174 694 l 174 868 l 0 868 l 0 1042 l 521 1042 l 521 1389 l 694 1389 l 694 1042 l 1215 1042 l 1215 868 l 1042 868 l 1042 694 l 868 694 l 868 521 l 1042 521 l 1042 174 l 868 174 l 868 347 l 694 347 l 694 521 l 521 521 l 521 347 l 347 347 l 347 174 l 174 174 z "},"☆":{"ha":1389,"x_min":0,"x_max":1215,"o":"m 694 1042 l 521 1042 l 521 1389 l 694 1389 l 694 1042 m 347 868 l 347 694 l 174 694 l 174 868 l 0 868 l 0 1042 l 521 1042 l 521 868 l 347 868 m 1215 1042 l 1215 868 l 1042 868 l 1042 694 l 868 694 l 868 868 l 694 868 l 694 1042 l 1215 1042 m 694 694 l 868 694 l 868 521 l 1042 521 l 1042 174 l 868 174 l 868 347 l 347 347 l 347 174 l 174 174 l 174 521 l 347 521 l 347 694 l 521 694 l 521 521 l 694 521 l 694 694 z "},"♠":{"ha":1389,"x_min":0,"x_max":1215,"o":"m 174 174 l 174 347 l 347 347 l 347 521 l 0 521 l 0 868 l 174 868 l 174 1042 l 347 1042 l 347 1215 l 521 1215 l 521 1389 l 694 1389 l 694 1215 l 868 1215 l 868 1042 l 1042 1042 l 1042 868 l 1215 868 l 1215 521 l 868 521 l 868 347 l 1042 347 l 1042 174 l 174 174 z "},"♣":{"ha":1389,"x_min":174,"x_max":1215,"o":"m 868 1042 l 521 1042 l 521 1389 l 868 1389 l 868 1042 m 521 1042 l 521 694 l 174 694 l 174 1042 l 521 1042 m 1215 1042 l 1215 694 l 868 694 l 868 1042 l 1215 1042 m 521 694 l 868 694 l 868 347 l 1042 347 l 1042 174 l 347 174 l 347 347 l 521 347 l 521 694 z "},"♥":{"ha":1389,"x_min":0,"x_max":1215,"o":"m 521 174 l 521 347 l 347 347 l 347 521 l 174 521 l 174 694 l 0 694 l 0 1215 l 174 1215 l 174 1389 l 521 1389 l 521 1215 l 694 1215 l 694 1389 l 1042 1389 l 1042 1215 l 1215 1215 l 1215 694 l 1042 694 l 1042 521 l 868 521 l 868 347 l 694 347 l 694 174 l 521 174 z "},"♦":{"ha":1389,"x_min":0,"x_max":1215,"o":"m 521 174 l 521 347 l 347 347 l 347 521 l 174 521 l 174 694 l 0 694 l 0 868 l 174 868 l 174 1042 l 347 1042 l 347 1215 l 521 1215 l 521 1389 l 694 1389 l 694 1215 l 868 1215 l 868 1042 l 1042 1042 l 1042 868 l 1215 868 l 1215 694 l 1042 694 l 1042 521 l 868 521 l 868 347 l 694 347 l 694 174 l 521 174 z "},"♪":{"ha":1389,"x_min":0,"x_max":1215,"o":"m 868 1215 l 868 1042 l 694 1042 l 694 347 l 521 347 l 521 174 l 174 174 l 174 347 l 0 347 l 0 521 l 174 521 l 174 694 l 521 694 l 521 1389 l 694 1389 l 694 1215 l 868 1215 m 1042 1042 l 1042 868 l 868 868 l 868 1042 l 1042 1042 m 1215 868 l 1215 694 l 1042 694 l 1042 868 l 1215 868 m 868 694 l 1042 694 l 1042 521 l 868 521 l 868 694 z "},"":{"ha":1389,"x_min":0,"x_max":1389,"o":"m 868 1215 l 694 1215 l 694 1389 l 868 1389 l 868 1215 m 1389 1042 l 1389 521 l 1215 521 l 1215 347 l 1042 347 l 1042 174 l 694 174 l 694 347 l 521 347 l 521 174 l 347 174 l 347 347 l 174 347 l 174 521 l 0 521 l 0 1042 l 174 1042 l 174 1215 l 694 1215 l 694 1042 l 868 1042 l 868 1215 l 1215 1215 l 1215 1042 l 1042 1042 l 1042 694 l 868 694 l 868 521 l 1042 521 l 1042 694 l 1215 694 l 1215 1042 l 1389 1042 z "},"@":{"ha":1389,"x_min":0,"x_max":1215,"o":"m 1042 1389 l 1042 1215 l 174 1215 l 174 1389 l 1042 1389 m 0 1215 l 174 1215 l 174 347 l 0 347 l 0 1215 m 1215 1215 l 1215 521 l 347 521 l 347 1042 l 868 1042 l 868 694 l 1042 694 l 1042 1215 l 1215 1215 m 694 868 l 521 868 l 521 694 l 694 694 l 694 868 m 174 174 l 174 347 l 1042 347 l 1042 174 l 174 174 z "},"&":{"ha":1389,"x_min":0,"x_max":1215,"o":"m 868 521 l 1042 521 l 1042 347 l 1215 347 l 1215 174 l 174 174 l 174 347 l 0 347 l 0 694 l 174 694 l 174 868 l 0 868 l 0 1215 l 174 1215 l 174 1389 l 694 1389 l 694 1215 l 868 1215 l 868 868 l 694 868 l 694 694 l 868 694 l 868 521 m 347 868 l 521 868 l 521 1215 l 347 1215 l 347 868 m 694 521 l 521 521 l 521 694 l 347 694 l 347 347 l 694 347 l 694 521 m 1215 694 l 1215 521 l 1042 521 l 1042 694 l 1215 694 z "},"¶":{"ha":1389,"x_min":174,"x_max":1215,"o":"m 694 174 l 694 521 l 347 521 l 347 694 l 174 694 l 174 1215 l 347 1215 l 347 1389 l 1215 1389 l 1215 174 l 1042 174 l 1042 521 l 868 521 l 868 174 l 694 174 m 521 694 l 694 694 l 694 1215 l 521 1215 l 521 1042 l 347 1042 l 347 868 l 521 868 l 521 694 m 868 694 l 1042 694 l 1042 1215 l 868 1215 l 868 694 z "},"§":{"ha":1389,"x_min":174,"x_max":1215,"o":"m 1215 1215 l 1215 1042 l 868 1042 l 868 1215 l 521 1215 l 521 1042 l 868 1042 l 868 868 l 521 868 l 521 694 l 347 694 l 347 868 l 174 868 l 174 1215 l 347 1215 l 347 1389 l 1042 1389 l 1042 1215 l 1215 1215 m 868 694 l 868 868 l 1042 868 l 1042 694 l 1215 694 l 1215 347 l 1042 347 l 1042 174 l 347 174 l 347 347 l 174 347 l 174 521 l 521 521 l 521 347 l 868 347 l 868 521 l 521 521 l 521 694 l 868 694 z "},"©":{"ha":1389,"x_min":0,"x_max":1389,"o":"m 1042 1215 l 347 1215 l 347 1389 l 1042 1389 l 1042 1215 m 347 1042 l 174 1042 l 174 1215 l 347 1215 l 347 1042 m 1042 1042 l 1042 1215 l 1215 1215 l 1215 1042 l 1042 1042 m 174 1042 l 174 347 l 0 347 l 0 1042 l 174 1042 m 521 1042 l 868 1042 l 868 868 l 521 868 l 521 1042 m 1389 1042 l 1389 347 l 1215 347 l 1215 1042 l 1389 1042 m 347 868 l 521 868 l 521 521 l 347 521 l 347 868 m 521 347 l 521 521 l 868 521 l 868 347 l 521 347 m 347 347 l 347 174 l 174 174 l 174 347 l 347 347 m 1042 347 l 1215 347 l 1215 174 l 1042 174 l 1042 347 m 347 174 l 1042 174 l 1042 0 l 347 0 l 347 174 z "},"®":{"ha":1389,"x_min":0,"x_max":1389,"o":"m 1042 1215 l 347 1215 l 347 1389 l 1042 1389 l 1042 1215 m 347 1042 l 174 1042 l 174 1215 l 347 1215 l 347 1042 m 1042 1042 l 1042 1215 l 1215 1215 l 1215 1042 l 1042 1042 m 174 1042 l 174 347 l 0 347 l 0 1042 l 174 1042 m 347 347 l 347 1042 l 868 1042 l 868 868 l 521 868 l 521 694 l 868 694 l 868 521 l 521 521 l 521 347 l 347 347 m 1389 1042 l 1389 347 l 1215 347 l 1215 1042 l 1389 1042 m 868 694 l 868 868 l 1042 868 l 1042 694 l 868 694 m 868 347 l 868 521 l 1042 521 l 1042 347 l 868 347 m 347 347 l 347 174 l 174 174 l 174 347 l 347 347 m 1042 347 l 1215 347 l 1215 174 l 1042 174 l 1042 347 m 347 174 l 1042 174 l 1042 0 l 347 0 l 347 174 z "},"™":{"ha":1389,"x_min":174,"x_max":1215,"o":"m 347 694 l 347 1215 l 174 1215 l 174 1389 l 1215 1389 l 1215 694 l 1042 694 l 1042 1042 l 868 1042 l 868 694 l 694 694 l 694 1215 l 521 1215 l 521 694 l 347 694 z "},"°":{"ha":1389,"x_min":347,"x_max":868,"o":"m 694 1215 l 521 1215 l 521 1389 l 694 1389 l 694 1215 m 521 1215 l 521 1042 l 347 1042 l 347 1215 l 521 1215 m 868 1215 l 868 1042 l 694 1042 l 694 1215 l 868 1215 m 521 1042 l 694 1042 l 694 868 l 521 868 l 521 1042 z "},"|":{"ha":1389,"x_min":521,"x_max":868,"o":"m 521 174 l 521 1389 l 868 1389 l 868 174 l 521 174 z "},"¦":{"ha":1389,"x_min":521,"x_max":868,"o":"m 521 868 l 521 1389 l 868 1389 l 868 868 l 521 868 m 521 174 l 521 694 l 868 694 l 868 174 l 521 174 z "},"†":{"ha":1389,"x_min":174,"x_max":1215,"o":"m 521 174 l 521 868 l 174 868 l 174 1042 l 521 1042 l 521 1389 l 868 1389 l 868 1042 l 1215 1042 l 1215 868 l 868 868 l 868 174 l 521 174 z "},"‡":{"ha":1389,"x_min":174,"x_max":1215,"o":"m 521 174 l 521 521 l 174 521 l 174 694 l 521 694 l 521 868 l 174 868 l 174 1042 l 521 1042 l 521 1389 l 868 1389 l 868 1042 l 1215 1042 l 1215 868 l 868 868 l 868 694 l 1215 694 l 1215 521 l 868 521 l 868 174 l 521 174 z "},"№":{"ha":1389,"x_min":0,"x_max":1215,"o":"m 347 1389 l 347 1215 l 174 1215 l 174 174 l 0 174 l 0 1389 l 347 1389 m 1042 1215 l 868 1215 l 868 1389 l 1042 1389 l 1042 1215 m 347 1215 l 521 1215 l 521 174 l 347 174 l 347 1215 m 868 1215 l 868 694 l 694 694 l 694 1215 l 868 1215 m 1215 1215 l 1215 694 l 1042 694 l 1042 1215 l 1215 1215 m 868 694 l 1042 694 l 1042 521 l 868 521 l 868 694 m 694 347 l 1215 347 l 1215 174 l 694 174 l 694 347 z "},"^":{"ha":1389,"x_min":174,"x_max":1042,"o":"m 174 1042 l 174 1215 l 347 1215 l 347 1389 l 868 1389 l 868 1215 l 1042 1215 l 1042 1042 l 694 1042 l 694 1215 l 521 1215 l 521 1042 l 174 1042 z "},"˗":{"ha":1389,"x_min":174,"x_max":1042,"o":"m 174 694 l 174 868 l 1042 868 l 1042 694 l 174 694 z "},"̀":{"ha":0,"x_min":-986,"x_max":-639,"o":"m -812 1389 l -812 1215 l -986 1215 l -986 1389 l -812 1389 m -639 1215 l -639 1042 l -812 1042 l -812 1215 l -639 1215 z "},"́":{"ha":0,"x_min":-847,"x_max":-500,"o":"m -500 1389 l -500 1215 l -674 1215 l -674 1389 l -500 1389 m -847 1215 l -674 1215 l -674 1042 l -847 1042 l -847 1215 z "},"̦":{"ha":0,"x_min":-1042,"x_max":-521,"o":"m -1042 -519 l -1042 -346 l -868 -346 l -868 1 l -521 1 l -521 -346 l -694 -346 l -694 -519 l -1042 -519 z "},"̵":{"ha":0,"x_min":-1028,"x_max":-356,"o":"m -1028 499 l -1028 672 l -356 672 l -356 499 l -1028 499 z "},"ʼ":{"ha":1389,"x_min":0,"x_max":347,"o":"m 0 868 l 0 1389 l 347 1389 l 347 1042 l 174 1042 l 174 868 l 0 868 z "},"ˉ":{"ha":1389,"x_min":174,"x_max":1042,"o":"m 174 1215 l 174 1389 l 1042 1389 l 1042 1215 l 174 1215 z "},"ˋ":{"ha":1389,"x_min":521,"x_max":868,"o":"m 694 1389 l 694 1215 l 521 1215 l 521 1389 l 694 1389 m 868 1215 l 868 1042 l 694 1042 l 694 1215 l 868 1215 z "},"ˊ":{"ha":1389,"x_min":521,"x_max":868,"o":"m 868 1389 l 868 1215 l 694 1215 l 694 1389 l 868 1389 m 521 1215 l 694 1215 l 694 1042 l 521 1042 l 521 1215 z "},"´":{"ha":1389,"x_min":521,"x_max":868,"o":"m 868 1389 l 868 1215 l 694 1215 l 694 1389 l 868 1389 m 521 1215 l 694 1215 l 694 1042 l 521 1042 l 521 1215 z "},"˘":{"ha":1389,"x_min":174,"x_max":1042,"o":"m 347 1389 l 347 1215 l 174 1215 l 174 1389 l 347 1389 m 1042 1389 l 1042 1215 l 868 1215 l 868 1389 l 1042 1389 m 347 1215 l 868 1215 l 868 1042 l 347 1042 l 347 1215 z "},"ˇ":{"ha":1389,"x_min":174,"x_max":1042,"o":"m 347 1042 l 347 1215 l 174 1215 l 174 1389 l 521 1389 l 521 1215 l 694 1215 l 694 1389 l 1042 1389 l 1042 1215 l 868 1215 l 868 1042 l 347 1042 z "},"¸":{"ha":1389,"x_min":347,"x_max":868,"o":"m 868 347 l 868 174 l 694 174 l 694 347 l 868 347 m 347 174 l 694 174 l 694 0 l 347 0 l 347 174 z "},"ˆ":{"ha":1389,"x_min":174,"x_max":1042,"o":"m 174 1042 l 174 1215 l 347 1215 l 347 1389 l 868 1389 l 868 1215 l 1042 1215 l 1042 1042 l 694 1042 l 694 1215 l 521 1215 l 521 1042 l 174 1042 z "},"¨":{"ha":1389,"x_min":174,"x_max":1042,"o":"m 174 1215 l 174 1389 l 521 1389 l 521 1215 l 174 1215 m 694 1215 l 694 1389 l 1042 1389 l 1042 1215 l 694 1215 z "},"˙":{"ha":1389,"x_min":521,"x_max":868,"o":"m 521 1215 l 521 1389 l 868 1389 l 868 1215 l 521 1215 z "},"`":{"ha":1389,"x_min":521,"x_max":868,"o":"m 694 1389 l 694 1215 l 521 1215 l 521 1389 l 694 1389 m 868 1215 l 868 1042 l 694 1042 l 694 1215 l 868 1215 z "},"˝":{"ha":1389,"x_min":174,"x_max":1042,"o":"m 347 1389 l 521 1389 l 521 1215 l 347 1215 l 347 1389 m 1042 1389 l 1042 1215 l 868 1215 l 868 1389 l 1042 1389 m 174 1215 l 347 1215 l 347 1042 l 174 1042 l 174 1215 m 694 1215 l 868 1215 l 868 1042 l 694 1042 l 694 1215 z "},"¯":{"ha":1389,"x_min":174,"x_max":1042,"o":"m 174 1215 l 174 1389 l 1042 1389 l 1042 1215 l 174 1215 z "},"˛":{"ha":1389,"x_min":347,"x_max":868,"o":"m 694 347 l 521 347 l 521 521 l 694 521 l 694 347 m 521 347 l 521 174 l 347 174 l 347 347 l 521 347 m 868 174 l 868 0 l 521 0 l 521 174 l 868 174 z "},"˚":{"ha":1389,"x_min":174,"x_max":1042,"o":"m 347 868 l 347 1042 l 174 1042 l 174 1215 l 347 1215 l 347 1389 l 868 1389 l 868 1215 l 1042 1215 l 1042 1042 l 868 1042 l 868 868 l 347 868 m 521 1042 l 694 1042 l 694 1215 l 521 1215 l 521 1042 z "},"˜":{"ha":1389,"x_min":174,"x_max":1042,"o":"m 694 1215 l 868 1215 l 868 1042 l 521 1042 l 521 1215 l 347 1215 l 347 1389 l 694 1389 l 694 1215 m 1042 1389 l 1042 1215 l 868 1215 l 868 1389 l 1042 1389 m 174 1215 l 347 1215 l 347 1042 l 174 1042 l 174 1215 z "},"΄":{"ha":1389,"x_min":521,"x_max":868,"o":"m 868 1389 l 868 1215 l 694 1215 l 694 1389 l 868 1389 m 521 1215 l 694 1215 l 694 1042 l 521 1042 l 521 1215 z "},"΅":{"ha":1389,"x_min":174,"x_max":1215,"o":"m 174 1389 l 347 1389 l 347 1215 l 174 1215 l 174 1389 m 694 1389 l 868 1389 l 868 1215 l 694 1215 l 694 1389 m 1215 1389 l 1215 1215 l 1042 1215 l 1042 1389 l 1215 1389 m 521 1215 l 694 1215 l 694 1042 l 521 1042 l 521 1215 z "},"":{"ha":1389,"x_min":174,"x_max":1215,"o":"m 174 174 l 174 1389 l 1215 1389 l 1215 174 l 174 174 m 521 694 l 1042 694 l 1042 1215 l 347 1215 l 347 1042 l 868 1042 l 868 868 l 521 868 l 521 694 m 521 347 l 694 347 l 694 521 l 521 521 l 521 347 z "},"":{"ha":1389,"x_min":174,"x_max":1042,"o":"m 174 174 l 174 347 l 521 347 l 521 521 l 1042 521 l 1042 174 l 174 174 z "}}}
